<?xml version="1.0" encoding="utf-8"?>
<svg version="1.1" xmlns:xlink="http://www.w3.org/1999/xlink" width="11px" height="15px" xmlns="http://www.w3.org/2000/svg">
  <g transform="matrix(1 0 0 1 -745 -290 )">
    <path d="M 10.7958984375 9.06605113636364  C 10.9319661458333 9.20099431818182  11 9.36079545454545  11 9.54545454545455  C 11 9.73011363636364  10.9319661458333 9.88991477272727  10.7958984375 10.0248579545455  L 5.9833984375 14.7975852272727  C 5.84733072916667 14.9325284090909  5.68619791666667 15  5.5 15  C 5.31380208333333 15  5.15266927083333 14.9325284090909  5.0166015625 14.7975852272727  L 0.2041015625 10.0248579545455  C 0.0680338541666667 9.88991477272727  0 9.73011363636364  0 9.54545454545455  C 0 9.36079545454545  0.0680338541666667 9.20099431818182  0.2041015625 9.06605113636364  C 0.340169270833333 8.93110795454545  0.501302083333333 8.86363636363636  0.6875 8.86363636363636  L 10.3125 8.86363636363636  C 10.4986979166667 8.86363636363636  10.6598307291667 8.93110795454545  10.7958984375 9.06605113636364  Z M 10.7958984375 4.97514204545455  C 10.9319661458333 5.11008522727273  11 5.26988636363636  11 5.45454545454546  C 11 5.63920454545454  10.9319661458333 5.79900568181818  10.7958984375 5.93394886363636  C 10.6598307291667 6.06889204545455  10.4986979166667 6.13636363636364  10.3125 6.13636363636364  L 0.6875 6.13636363636364  C 0.501302083333333 6.13636363636364  0.340169270833333 6.06889204545455  0.2041015625 5.93394886363636  C 0.0680338541666667 5.79900568181818  0 5.63920454545454  0 5.45454545454546  C 0 5.26988636363636  0.0680338541666667 5.11008522727273  0.2041015625 4.97514204545455  L 5.0166015625 0.202414772727273  C 5.15266927083333 0.0674715909090895  5.31380208333333 0  5.5 0  C 5.68619791666667 0  5.84733072916667 0.0674715909090895  5.9833984375 0.202414772727273  L 10.7958984375 4.97514204545455  Z " fill-rule="nonzero" fill="#000000" stroke="none" transform="matrix(1 0 0 1 745 290 )" />
  </g>
</svg>