<?xml version="1.0" encoding="utf-8"?>
<svg version="1.1" xmlns:xlink="http://www.w3.org/1999/xlink" width="20px" height="5px" xmlns="http://www.w3.org/2000/svg">
  <g transform="matrix(1 0 0 1 -100 -99 )">
    <path d="M 19.6022727272727 0.364583333333333  C 19.8674242424242 0.607638888888887  20 0.902777777777777  20 1.25  L 20 3.75  C 20 4.09722222222222  19.8674242424242 4.39236111111111  19.6022727272727 4.63541666666667  C 19.3371212121212 4.87847222222222  19.0151515151515 5  18.6363636363636 5  L 1.36363636363636 5  C 0.984848484848485 5  0.662878787878788 4.87847222222222  0.397727272727273 4.63541666666667  C 0.132575757575758 4.39236111111111  0 4.09722222222222  0 3.75  L 0 1.25  C 0 0.902777777777777  0.132575757575758 0.607638888888887  0.397727272727273 0.364583333333333  C 0.662878787878788 0.121527777777777  0.984848484848485 0  1.36363636363636 0  L 18.6363636363636 0  C 19.0151515151515 0  19.3371212121212 0.121527777777777  19.6022727272727 0.364583333333333  Z " fill-rule="nonzero" fill="#000000" stroke="none" transform="matrix(1 0 0 1 100 99 )" />
  </g>
</svg>