<?xml version="1.0" encoding="utf-8"?>
<svg version="1.1" xmlns:xlink="http://www.w3.org/1999/xlink" width="18px" height="12px" xmlns="http://www.w3.org/2000/svg">
  <g transform="matrix(1 0 0 1 -1728 -304 )">
    <path d="M 1.28571428571429 6  C 2.40401785714286 7.53571428571429  3.83370535714286 8.65178571428571  5.57477678571429 9.34821428571429  L 6.35825892857143 8.08928571428571  C 5.77566964285714 7.71428571428571  5.3203125 7.24107142857143  4.9921875 6.66964285714286  C 4.6640625 6.09821428571429  4.5 5.49404761904762  4.5 4.85714285714286  C 4.5 4.13690476190476  4.70424107142857 3.4672619047619  5.11272321428571 2.84821428571429  C 3.57924107142857 3.54464285714286  2.30357142857143 4.59523809523809  1.28571428571429 6  Z M 9.34151785714286 2.875  C 9.43526785714286 2.79166666666666  9.48214285714286 2.69047619047619  9.48214285714286 2.57142857142857  C 9.48214285714286 2.45238095238095  9.43526785714286 2.35119047619048  9.34151785714286 2.26785714285714  C 9.24776785714286 2.18452380952381  9.13392857142857 2.14285714285714  9 2.14285714285714  C 8.16294642857143 2.14285714285714  7.44475446428572 2.40922619047619  6.84542410714286 2.94196428571429  C 6.24609375 3.47470238095238  5.94642857142857 4.11309523809524  5.94642857142857 4.85714285714286  C 5.94642857142857 4.97619047619048  5.99330357142857 5.07738095238095  6.08705357142857 5.16071428571429  C 6.18080357142857 5.24404761904762  6.29464285714286 5.28571428571429  6.42857142857143 5.28571428571429  C 6.5625 5.28571428571429  6.67633928571429 5.24404761904762  6.77008928571429 5.16071428571429  C 6.86383928571429 5.07738095238095  6.91071428571429 4.97619047619048  6.91071428571429 4.85714285714286  C 6.91071428571429 4.34523809523809  7.11495535714286 3.9077380952381  7.5234375 3.54464285714286  C 7.93191964285714 3.18154761904762  8.42410714285714 3  9 3  C 9.13392857142857 3  9.24776785714286 2.95833333333333  9.34151785714286 2.875  Z M 12.9676339285714 0.625  C 13.0747767857143 0.684523809523808  13.1283482142857 0.764880952380952  13.1283482142857 0.866071428571429  C 13.1283482142857 0.907738095238094  13.125 0.934523809523808  13.1183035714286 0.946428571428572  C 12.4084821428571 2.07142857142857  11.3504464285714 3.75892857142857  9.94419642857143 6.00892857142857  C 8.53794642857143 8.25892857142857  7.48325892857143 9.94345238095238  6.78013392857143 11.0625  L 6.28794642857143 11.8571428571429  C 6.22098214285714 11.952380952381  6.12723214285714 12  6.00669642857143 12  C 5.92633928571429 12  5.47767857142857 11.7916666666667  4.66071428571429 11.375  C 4.55357142857143 11.3154761904762  4.5 11.2321428571429  4.5 11.125  C 4.5 11.0535714285714  4.64732142857143 10.7946428571429  4.94196428571429 10.3482142857143  C 3.984375 9.96130952380952  3.10212053571429 9.44642857142857  2.29520089285714 8.80357142857143  C 1.48828125 8.16071428571429  0.790178571428572 7.43154761904762  0.200892857142857 6.61607142857143  C 0.0669642857142857 6.43154761904762  0 6.22619047619048  0 6  C 0 5.77380952380952  0.0669642857142857 5.56845238095238  0.200892857142857 5.38392857142857  C 1.22544642857143 3.98511904761905  2.49776785714286 2.88095238095238  4.01785714285714 2.07142857142857  C 5.53794642857143 1.26190476190476  7.19866071428572 0.857142857142857  9 0.857142857142857  C 9.59598214285714 0.857142857142857  10.1986607142857 0.907738095238094  10.8080357142857 1.00892857142857  L 11.3504464285714 0.142857142857142  C 11.4174107142857 0.0476190476190475  11.5111607142857 0  11.6316964285714 0  C 11.6651785714286 0  11.7254464285714 0.0178571428571428  11.8125 0.0535714285714284  C 11.8995535714286 0.089285714285714  12.0033482142857 0.135416666666665  12.1238839285714 0.191964285714286  C 12.2444196428571 0.248511904761904  12.3549107142857 0.303571428571429  12.4553571428571 0.357142857142857  C 12.5558035714286 0.410714285714286  12.6612723214286 0.465773809523808  12.7717633928571 0.522321428571428  C 12.8822544642857 0.578869047619047  12.9475446428571 0.613095238095237  12.9676339285714 0.625  Z M 13.4196428571429 4.10714285714286  C 13.4732142857143 4.375  13.5 4.625  13.5 4.85714285714286  C 13.5 5.68452380952381  13.2354910714286 6.43898809523809  12.7064732142857 7.12053571428571  C 12.1774553571429 7.80208333333333  11.4776785714286 8.29166666666666  10.6071428571429 8.58928571428572  L 13.4196428571429 4.10714285714286  Z M 17.7991071428571 5.38392857142857  C 17.9330357142857 5.58630952380952  18 5.79166666666667  18 6  C 18 6.20833333333333  17.9330357142857 6.41369047619048  17.7991071428571 6.61607142857143  C 17.5379464285714 6.99702380952381  17.1729910714286 7.42857142857143  16.7042410714286 7.91071428571429  C 15.6997767857143 8.93452380952381  14.5362723214286 9.72916666666667  13.2137276785714 10.2946428571429  C 11.8911830357143 10.860119047619  10.4866071428571 11.1428571428571  9 11.1428571428571  L 9.74330357142857 9.96428571428571  C 11.1629464285714 9.85714285714286  12.4771205357143 9.44940476190476  13.6858258928571 8.74107142857143  C 14.89453125 8.03273809523809  15.9040178571429 7.11904761904762  16.7142857142857 6  C 15.9441964285714 4.93452380952381  15 4.05952380952381  13.8816964285714 3.375  L 14.5145089285714 2.375  C 15.1506696428571 2.75595238095238  15.76171875 3.21130952380952  16.34765625 3.74107142857143  C 16.93359375 4.27083333333333  17.4174107142857 4.81845238095238  17.7991071428571 5.38392857142857  Z " fill-rule="nonzero" fill="#aaaaaa" stroke="none" transform="matrix(1 0 0 1 1728 304 )" />
  </g>
</svg>