<?xml version="1.0" encoding="utf-8"?>
<svg version="1.1" xmlns:xlink="http://www.w3.org/1999/xlink" width="95px" height="27px" xmlns="http://www.w3.org/2000/svg">
  <defs>
    <mask fill="white" id="clip12">
      <path d="M 0 22  L 0 5  C 0 2.20000000000005  2.20000000000005 0  5 0  L 49.0273224043706 0  L 90 0  C 92.8 0  95 2.20000000000005  95 5  L 95 22  C 95 24.8  92.8 27  90 27  L 5 27  C 2.20000000000005 27  0 24.8  0 22  Z " fill-rule="evenodd" />
    </mask>
  </defs>
  <g transform="matrix(1 0 0 1 -616 -855 )">
    <path d="M 0 22  L 0 5  C 0 2.20000000000005  2.20000000000005 0  5 0  L 49.0273224043706 0  L 90 0  C 92.8 0  95 2.20000000000005  95 5  L 95 22  C 95 24.8  92.8 27  90 27  L 5 27  C 2.20000000000005 27  0 24.8  0 22  Z " fill-rule="nonzero" fill="#ffffff" stroke="none" transform="matrix(1 0 0 1 616 855 )" />
    <path d="M 0 22  L 0 5  C 0 2.20000000000005  2.20000000000005 0  5 0  L 49.0273224043706 0  L 90 0  C 92.8 0  95 2.20000000000005  95 5  L 95 22  C 95 24.8  92.8 27  90 27  L 5 27  C 2.20000000000005 27  0 24.8  0 22  Z " stroke-width="2" stroke="#797979" fill="none" transform="matrix(1 0 0 1 616 855 )" mask="url(#clip12)" />
  </g>
</svg>