<?xml version="1.0" encoding="utf-8"?>
<svg version="1.1" xmlns:xlink="http://www.w3.org/1999/xlink" width="30px" height="30px" xmlns="http://www.w3.org/2000/svg">
  <g transform="matrix(1 0 0 1 -149 -33 )">
    <path d="M 164 33  C 172.4 33  179 39.6  179 48  C 179 56.4  172.4 63  164 63  C 155.6 63  149 56.4  149 48  C 149 39.6  155.6 33  164 33  Z " fill-rule="nonzero" fill="#d7d7d7" stroke="none" />
    <path d="M 164 33.5  C 172.12 33.5  178.5 39.88  178.5 48  C 178.5 56.12  172.12 62.5  164 62.5  C 155.88 62.5  149.5 56.12  149.5 48  C 149.5 39.88  155.88 33.5  164 33.5  Z " stroke-width="1" stroke="#797979" fill="none" />
  </g>
</svg>