<?xml version="1.0" encoding="utf-8"?>
<svg version="1.1" xmlns:xlink="http://www.w3.org/1999/xlink" width="35px" height="18px" xmlns="http://www.w3.org/2000/svg">
  <g transform="matrix(1 0 0 1 -298 -116 )">
    <path d="M 298.5 122.3  C 298.5 119.096748450981  301.096748450981 116.5  304.3 116.5  C 304.3 116.5  326.7 116.5  326.7 116.5  C 329.903251549019 116.5  332.5 119.096748450981  332.5 122.3  C 332.5 125.503251549019  329.903251549019 128.1  326.7 128.1  C 326.7 128.1  316.628927058456 128.1  316.628927058456 128.1  C 316.628927058456 128.1  309.654940276488 133.177689252489  309.654940276488 133.177689252489  C 309.654940276488 133.177689252489  308.166111637641 128.1  308.166111637641 128.1  C 308.166111637641 128.1  304.3 128.1  304.3 128.1  C 301.096748450981 128.1  298.5 125.503251549019  298.5 122.3  Z " fill-rule="nonzero" fill="#f2f2f2" stroke="none" />
    <path d="M 298 122.3  C 298 118.820606076066  300.820606076066 116  304.3 116  C 304.3 116  326.7 116  326.7 116  C 330.179393923934 116  333 118.820606076066  333 122.3  C 333 125.779393923934  330.179393923934 128.6  326.7 128.6  C 326.7 128.6  316.791666666667 128.6  316.791666666667 128.6  C 316.791666666667 128.6  309.375 134  309.375 134  C 309.375 134  307.791666666667 128.6  307.791666666667 128.6  C 307.791666666667 128.6  304.3 128.6  304.3 128.6  C 300.820606076066 128.6  298 125.779393923934  298 122.3  Z M 299 122.3  C 299 125.227109174103  301.372890825897 127.6  304.3 127.6  C 304.3 127.6  308.540556608616 127.6  308.540556608616 127.6  C 308.540556608616 127.6  309.934880552977 132.355378504977  309.934880552977 132.355378504977  C 309.934880552977 132.355378504977  316.466187450245 127.6  316.466187450245 127.6  C 316.466187450245 127.6  326.7 127.6  326.7 127.6  C 329.627109174103 127.6  332 125.227109174103  332 122.3  C 332 119.372890825897  329.627109174103 117  326.7 117  C 326.7 117  304.3 117  304.3 117  C 301.372890825897 117  299 119.372890825897  299 122.3  Z " fill-rule="nonzero" fill="#333333" stroke="none" />
  </g>
</svg>