<?xml version="1.0" encoding="utf-8"?>
<svg version="1.1" xmlns:xlink="http://www.w3.org/1999/xlink" width="14px" height="11px" xmlns="http://www.w3.org/2000/svg">
  <g transform="matrix(1 0 0 1 -260 -93 )">
    <path d="M 11.9876084262701 6.28448947778644  C 11.9933911606774 6.29592101844635  11.996282527881 6.31306832943622  11.996282527881 6.33593141075604  L 11.996282527881 10.4512860483242  C 11.996282527881 10.5998960769031  11.941346551012 10.7285009093271  11.8314745972739 10.8371005455963  C 11.7216026435357 10.9457001818654  11.5914911193722 11  11.4411400247831 11  L 8.11028500619579 11  L 8.11028500619579 7.70771628994544  L 5.88971499380421 7.70771628994544  L 5.88971499380421 11  L 2.55885997521685 11  C 2.40850888062784 11  2.27839735646427 10.9457001818654  2.16852540272615 10.8371005455963  C 2.05865344898802 10.7285009093271  2.00371747211896 10.5998960769031  2.00371747211896 10.4512860483242  L 2.00371747211896 6.33593141075604  C 2.00371747211896 6.33021564042608  2.00516315572078 6.32164198493115  2.00805452292441 6.31021044427124  C 2.01094589012805 6.29877890361133  2.01239157372986 6.29020524811639  2.01239157372986 6.28448947778644  L 7 2.22057677318784  L 11.9876084262701 6.28448947778644  Z M 13.9913258983891 5.54286827747467  C 13.9971086327964 5.62003117692907  13.9768690623709 5.68719147830605  13.9306071871128 5.74434918160561  L 13.3928128872367 6.37879968823071  C 13.3465510119785 6.43024162120031  13.2858323007022 6.46167835801507  13.2106567534077 6.47310989867498  L 13.184634448575 6.47310989867498  C 13.1094589012805 6.47310989867498  13.0487401900041 6.45310470252013  13.002478314746 6.41309431021044  L 7 1.46609508963367  L 0.997521685254027 6.41309431021044  C 0.928128872366791 6.45882047285009  0.858736059479554 6.47882566900494  0.789343246592317 6.47310989867498  C 0.714167699297811 6.46167835801507  0.653448988021479 6.43024162120031  0.607187112763321 6.37879968823071  L 0.0693928128872367 5.74434918160561  C 0.0231309376290789 5.68719147830605  0.00289136720363488 5.62003117692907  0.00867410161090459 5.54286827747467  C 0.0144568360181743 5.46570537802027  0.0462618752581578 5.40426084697324  0.104089219330855 5.35853468433359  L 6.34076827757125 0.222915042868278  C 6.52581577860388 0.0743050142894247  6.74555968608013 0  7 0  C 7.25444031391987 0  7.47418422139612 0.0743050142894247  7.65923172242875 0.222915042868278  L 9.77571251548947 1.97194076383476  L 9.77571251548947 0.300077942322681  C 9.77571251548947 0.220057157703298  9.80173482032218 0.154325798908807  9.85377942998761 0.102883865939206  C 9.90582403965304 0.0514419329696028  9.97232548533664 0.0257209664848014  10.0532837670384 0.0257209664848014  L 11.7187112763321 0.0257209664848014  C 11.7996695580339 0.0257209664848014  11.8661710037175 0.0514419329696028  11.9182156133829 0.102883865939206  C 11.9702602230483 0.154325798908807  11.996282527881 0.220057157703298  11.996282527881 0.300077942322681  L 11.996282527881 3.79812938425565  L 13.8959107806691 5.35853468433359  C 13.9537381247418 5.40426084697324  13.9855431639818 5.46570537802027  13.9913258983891 5.54286827747467  Z " fill-rule="nonzero" fill="#145ccd" stroke="none" transform="matrix(1 0 0 1 260 93 )" />
  </g>
</svg>