<?xml version="1.0" encoding="utf-8"?>
<svg version="1.1" xmlns:xlink="http://www.w3.org/1999/xlink" width="68px" height="26px" xmlns="http://www.w3.org/2000/svg">
  <g transform="matrix(1 0 0 1 -1091 -27 )">
    <path d="M 1091.5 31  A 3.5 3.5 0 0 1 1095 27.5 L 1155 27.5  A 3.5 3.5 0 0 1 1158.5 31 L 1158.5 49  A 3.5 3.5 0 0 1 1155 52.5 L 1095 52.5  A 3.5 3.5 0 0 1 1091.5 49 L 1091.5 31  Z " fill-rule="nonzero" fill="#dedede" stroke="none" />
    <path d="M 1091.5 31  A 3.5 3.5 0 0 1 1095 27.5 L 1155 27.5  A 3.5 3.5 0 0 1 1158.5 31 L 1158.5 49  A 3.5 3.5 0 0 1 1155 52.5 L 1095 52.5  A 3.5 3.5 0 0 1 1091.5 49 L 1091.5 31  Z " stroke-width="1" stroke="#dedede" fill="none" />
  </g>
</svg>