<?xml version="1.0" encoding="utf-8"?>
<svg version="1.1" xmlns:xlink="http://www.w3.org/1999/xlink" width="12px" height="14px" xmlns="http://www.w3.org/2000/svg">
  <g transform="matrix(1 0 0 1 -25 -305 )">
    <path d="M 10.8 12.6768010575017  L 10.8 1.18440185062789  L 1.2 1.18440185062789  L 1.2 12.6768010575017  L 5.165625 8.92002643754131  L 6 8.13350958360872  L 6.834375 8.92002643754131  L 10.8 12.6768010575017  Z M 1.0875 0  L 10.9125 0  C 11.05625 0  11.19375 0.0277594183740915  11.325 0.0832782551222744  C 11.53125 0.163472130425202  11.6953125 0.289931703018285  11.8171875 0.46265697290152  C 11.9390625 0.635382242784754  12 0.826613791584048  12 1.0363516192994  L 12 12.9636483807006  C 12 13.173386208416  11.9390625 13.3646177572152  11.8171875 13.5373430270985  C 11.6953125 13.7100682969817  11.53125 13.8365278695748  11.325 13.9167217448777  C 11.20625 13.9660718219872  11.06875 13.990746860542  10.9125 13.990746860542  C 10.6125 13.990746860542  10.353125 13.892046706323  10.134375 13.694646397885  L 6 9.77131526768011  L 1.865625 13.694646397885  C 1.640625 13.8982154659617  1.38125 14  1.0875 14  C 0.94375 14  0.80625 13.9722405816259  0.675 13.9167217448777  C 0.46875 13.8365278695748  0.3046875 13.7100682969817  0.1828125 13.5373430270985  C 0.0609375 13.3646177572152  0 13.173386208416  0 12.9636483807006  L 0 1.0363516192994  C 0 0.826613791584048  0.0609375 0.635382242784754  0.1828125 0.46265697290152  C 0.3046875 0.289931703018285  0.46875 0.163472130425202  0.675 0.0832782551222744  C 0.80625 0.0277594183740915  0.94375 0  1.0875 0  Z " fill-rule="nonzero" fill="#353535" stroke="none" transform="matrix(1 0 0 1 25 305 )" />
  </g>
</svg>