<?xml version="1.0" encoding="utf-8"?>
<svg version="1.1" xmlns:xlink="http://www.w3.org/1999/xlink" width="200px" height="113px" xmlns="http://www.w3.org/2000/svg">
  <g transform="matrix(1 0 0 1 -292 -436 )">
    <path d="M 292 436  L 492 436  L 492 549  L 292 549  L 292 436  " fill-rule="nonzero" fill="#cccccc" stroke="none" />
    <path d="M 300 444  L 484 444  L 484 541  L 300 541  L 300 444  " fill-rule="nonzero" fill="#ffffff" stroke="none" />
    <path d="M 404.475 469.9  C 399.729 469.9  396 466.171  396 461.425  C 396 456.679  399.729 452.95  404.475 452.95  C 409.221 452.95  412.95 456.679  412.95 461.425  C 412.95 466.171  409.221 469.9  404.475 469.9  " fill-rule="nonzero" fill="#cccccc" stroke="none" />
    <path d="M 303 538  L 303 487.95  L 347.5 465.2  L 409.8 507.151  L 445.4 478.85  L 481 507.151  L 481 538  L 303 538  " fill-rule="nonzero" fill="#169bd5" stroke="none" />
  </g>
</svg>