<?xml version="1.0" encoding="utf-8"?>
<svg version="1.1" xmlns:xlink="http://www.w3.org/1999/xlink" width="12px" height="12px" viewBox="502 575.5  12 12" xmlns="http://www.w3.org/2000/svg">
  <path d="M 508 575.5  C 511.36 575.5  514 578.14  514 581.5  C 514 584.86  511.36 587.5  508 587.5  C 504.64 587.5  502 584.86  502 581.5  C 502 578.14  504.64 575.5  508 575.5  Z " fill-rule="nonzero" fill="#f0f0f0" stroke="none" />
  <path d="M 508 576  C 511.08 576  513.5 578.42  513.5 581.5  C 513.5 584.58  511.08 587  508 587  C 504.92 587  502.5 584.58  502.5 581.5  C 502.5 578.42  504.92 576  508 576  Z " stroke-width="1" stroke="#797979" fill="none" />
  <path d="M 508 584.5  C 506.32 584.5  505 583.18  505 581.5  C 505 579.82  506.32 578.5  508 578.5  C 509.68 578.5  511 579.82  511 581.5  C 511 583.18  509.68 584.5  508 584.5  " fill-rule="nonzero" fill="#797979" stroke="none" />
</svg>