<?xml version="1.0" encoding="utf-8"?>
<svg version="1.1" xmlns:xlink="http://www.w3.org/1999/xlink" width="12px" height="12px" viewBox="843 572.5  12 12" xmlns="http://www.w3.org/2000/svg">
  <path d="M 849 572.5  C 852.36 572.5  855 575.14  855 578.5  C 855 581.86  852.36 584.5  849 584.5  C 845.64 584.5  843 581.86  843 578.5  C 843 575.14  845.64 572.5  849 572.5  Z " fill-rule="nonzero" fill="#f0f0f0" stroke="none" />
  <path d="M 849 573  C 852.08 573  854.5 575.42  854.5 578.5  C 854.5 581.58  852.08 584  849 584  C 845.92 584  843.5 581.58  843.5 578.5  C 843.5 575.42  845.92 573  849 573  Z " stroke-width="1" stroke="#797979" fill="none" />
  <path d="M 849 581.5  C 847.32 581.5  846 580.18  846 578.5  C 846 576.82  847.32 575.5  849 575.5  C 850.68 575.5  852 576.82  852 578.5  C 852 580.18  850.68 581.5  849 581.5  " fill-rule="nonzero" fill="#797979" stroke="none" />
</svg>