<?xml version="1.0" encoding="utf-8"?>
<svg version="1.1" xmlns:xlink="http://www.w3.org/1999/xlink" width="12px" height="12px" viewBox="993 572.5  12 12" xmlns="http://www.w3.org/2000/svg">
  <path d="M 999 572.5  C 1002.36 572.5  1005 575.14  1005 578.5  C 1005 581.86  1002.36 584.5  999 584.5  C 995.64 584.5  993 581.86  993 578.5  C 993 575.14  995.64 572.5  999 572.5  Z " fill-rule="nonzero" fill="#f0f0f0" stroke="none" />
  <path d="M 999 573  C 1002.08 573  1004.5 575.42  1004.5 578.5  C 1004.5 581.58  1002.08 584  999 584  C 995.92 584  993.5 581.58  993.5 578.5  C 993.5 575.42  995.92 573  999 573  Z " stroke-width="1" stroke="#797979" fill="none" />
  <path d="M 999 581.5  C 997.32 581.5  996 580.18  996 578.5  C 996 576.82  997.32 575.5  999 575.5  C 1000.68 575.5  1002 576.82  1002 578.5  C 1002 580.18  1000.68 581.5  999 581.5  " fill-rule="nonzero" fill="#797979" stroke="none" />
</svg>