<?xml version="1.0" encoding="utf-8"?>
<svg version="1.1" xmlns:xlink="http://www.w3.org/1999/xlink" width="40px" height="40px" xmlns="http://www.w3.org/2000/svg">
  <g transform="matrix(1 0 0 1 -402 -190 )">
    <path d="M 422 190  C 433.2 190  442 198.8  442 210  C 442 221.2  433.2 230  422 230  C 410.8 230  402 221.2  402 210  C 402 198.8  410.8 190  422 190  Z " fill-rule="nonzero" fill="#ffffff" stroke="none" />
    <path d="M 422 190.5  C 432.92 190.5  441.5 199.08  441.5 210  C 441.5 220.92  432.92 229.5  422 229.5  C 411.08 229.5  402.5 220.92  402.5 210  C 402.5 199.08  411.08 190.5  422 190.5  Z " stroke-width="1" stroke="#797979" fill="none" />
  </g>
</svg>