<?xml version="1.0" encoding="utf-8"?>
<svg version="1.1" xmlns:xlink="http://www.w3.org/1999/xlink" width="352px" height="170px" xmlns="http://www.w3.org/2000/svg">
  <g transform="matrix(1 0 0 1 -399 -439 )">
    <path d="M 399 439  L 751 439  L 751 609  L 399 609  L 399 439  " fill-rule="nonzero" fill="#cccccc" stroke="none" />
    <path d="M 411 451  L 739 451  L 739 597  L 411 597  L 411 451  " fill-rule="nonzero" fill="#ffffff" stroke="none" />
    <path d="M 594.79 490  C 587.65 490  582.04 484.39  582.04 477.25  C 582.04 470.11  587.65 464.5  594.79 464.5  C 601.93 464.5  607.54 470.11  607.54 477.25  C 607.54 484.39  601.93 490  594.79 490  " fill-rule="nonzero" fill="#cccccc" stroke="none" />
    <path d="M 416 593  L 416 517.65  L 495.75 483.4  L 607.4 553.301136363636  L 671.2 503.95  L 735 553.301136363636  L 735 593  L 416 593  " fill-rule="nonzero" fill="#169bd5" stroke="none" />
  </g>
</svg>