<?xml version="1.0" encoding="utf-8"?>
<svg version="1.1" xmlns:xlink="http://www.w3.org/1999/xlink" width="12px" height="12px" viewBox="502 341.5  12 12" xmlns="http://www.w3.org/2000/svg">
  <path d="M 508 341.5  C 511.36 341.5  514 344.14  514 347.5  C 514 350.86  511.36 353.5  508 353.5  C 504.64 353.5  502 350.86  502 347.5  C 502 344.14  504.64 341.5  508 341.5  Z " fill-rule="nonzero" fill="#ffffff" stroke="none" />
  <path d="M 508 342  C 511.08 342  513.5 344.42  513.5 347.5  C 513.5 350.58  511.08 353  508 353  C 504.92 353  502.5 350.58  502.5 347.5  C 502.5 344.42  504.92 342  508 342  Z " stroke-width="1" stroke="#797979" fill="none" />
  <path d="M 508 350.5  C 506.32 350.5  505 349.18  505 347.5  C 505 345.82  506.32 344.5  508 344.5  C 509.68 344.5  511 345.82  511 347.5  C 511 349.18  509.68 350.5  508 350.5  " fill-rule="nonzero" fill="#797979" stroke="none" />
</svg>