<?xml version="1.0" encoding="utf-8"?>
<svg version="1.1" xmlns:xlink="http://www.w3.org/1999/xlink" width="18px" height="12px" xmlns="http://www.w3.org/2000/svg">
  <g transform="matrix(1 0 0 1 -394 -420 )">
    <path d="M 13.3643973214286 9.40104166666667  C 14.70703125 8.55729166666667  15.8236607142857 7.42361111111111  16.7142857142857 6  C 15.6964285714286 4.36111111111111  14.4207589285714 3.13541666666667  12.8872767857143 2.32291666666667  C 13.2957589285714 3.04513888888889  13.5 3.82638888888889  13.5 4.66666666666667  C 13.5 5.95138888888889  13.0597098214286 7.05034722222222  12.1791294642857 7.96354166666667  C 11.2985491071429 8.87673611111111  10.2388392857143 9.33333333333333  9 9.33333333333333  C 7.76116071428572 9.33333333333333  6.70145089285714 8.87673611111111  5.82087053571429 7.96354166666667  C 4.94029017857143 7.05034722222222  4.5 5.95138888888889  4.5 4.66666666666667  C 4.5 3.82638888888889  4.70424107142857 3.04513888888889  5.11272321428571 2.32291666666667  C 3.57924107142857 3.13541666666667  2.30357142857143 4.36111111111111  1.28571428571429 6  C 2.17633928571429 7.42361111111111  3.29296875 8.55729166666667  4.63560267857143 9.40104166666667  C 5.97823660714286 10.2447916666667  7.43303571428571 10.6666666666667  9 10.6666666666667  C 10.5669642857143 10.6666666666667  12.0217633928571 10.2447916666667  13.3643973214286 9.40104166666667  Z M 9.34151785714286 2.35416666666667  C 9.43526785714286 2.25694444444444  9.48214285714286 2.13888888888889  9.48214285714286 2  C 9.48214285714286 1.86111111111111  9.43526785714286 1.74305555555555  9.34151785714286 1.64583333333333  C 9.24776785714286 1.54861111111111  9.13392857142857 1.5  9 1.5  C 8.16294642857143 1.5  7.44475446428572 1.81076388888889  6.84542410714286 2.43229166666667  C 6.24609375 3.05381944444444  5.94642857142857 3.79861111111111  5.94642857142857 4.66666666666667  C 5.94642857142857 4.80555555555556  5.99330357142857 4.92361111111111  6.08705357142857 5.02083333333333  C 6.18080357142857 5.11805555555555  6.29464285714286 5.16666666666667  6.42857142857143 5.16666666666667  C 6.5625 5.16666666666667  6.67633928571429 5.11805555555555  6.77008928571429 5.02083333333333  C 6.86383928571429 4.92361111111111  6.91071428571429 4.80555555555556  6.91071428571429 4.66666666666667  C 6.91071428571429 4.06944444444444  7.11495535714286 3.55902777777778  7.5234375 3.13541666666667  C 7.93191964285714 2.71180555555556  8.42410714285714 2.5  9 2.5  C 9.13392857142857 2.5  9.24776785714286 2.45138888888889  9.34151785714286 2.35416666666667  Z M 17.7991071428571 5.28125  C 17.9330357142857 5.52430555555556  18 5.76388888888889  18 6  C 18 6.23611111111111  17.9330357142857 6.47569444444444  17.7991071428571 6.71875  C 16.8616071428571 8.31597222222222  15.6010044642857 9.59548611111111  14.0172991071429 10.5572916666667  C 12.43359375 11.5190972222222  10.7611607142857 12  9 12  C 7.23883928571429 12  5.56640625 11.5173611111111  3.98270089285714 10.5520833333333  C 2.39899553571429 9.58680555555556  1.13839285714286 8.30902777777778  0.200892857142857 6.71875  C 0.0669642857142857 6.47569444444444  0 6.23611111111111  0 6  C 0 5.76388888888889  0.0669642857142857 5.52430555555556  0.200892857142857 5.28125  C 1.13839285714286 3.69097222222222  2.39899553571429 2.41319444444444  3.98270089285714 1.44791666666667  C 5.56640625 0.482638888888888  7.23883928571429 0  9 0  C 10.7611607142857 0  12.43359375 0.482638888888888  14.0172991071429 1.44791666666667  C 15.6010044642857 2.41319444444444  16.8616071428571 3.69097222222222  17.7991071428571 5.28125  Z " fill-rule="nonzero" fill="#aaaaaa" stroke="none" transform="matrix(1 0 0 1 394 420 )" />
  </g>
</svg>