<?xml version="1.0" encoding="utf-8"?>
<svg version="1.1" xmlns:xlink="http://www.w3.org/1999/xlink" width="18px" height="14px" xmlns="http://www.w3.org/2000/svg">
  <g transform="matrix(1 0 0 1 -2086 -419 )">
    <path d="M 1.28571428571429 7  C 2.40401785714286 8.79166666666667  3.83370535714286 10.09375  5.57477678571429 10.90625  L 6.35825892857143 9.4375  C 5.77566964285714 9  5.3203125 8.44791666666667  4.9921875 7.78125  C 4.6640625 7.11458333333333  4.5 6.40972222222222  4.5 5.66666666666667  C 4.5 4.82638888888889  4.70424107142857 4.04513888888889  5.11272321428571 3.32291666666667  C 3.57924107142857 4.13541666666667  2.30357142857143 5.36111111111111  1.28571428571429 7  Z M 9.34151785714286 3.35416666666667  C 9.43526785714286 3.25694444444444  9.48214285714286 3.13888888888889  9.48214285714286 3  C 9.48214285714286 2.86111111111111  9.43526785714286 2.74305555555556  9.34151785714286 2.64583333333333  C 9.24776785714286 2.54861111111111  9.13392857142857 2.5  9 2.5  C 8.16294642857143 2.5  7.44475446428572 2.81076388888889  6.84542410714286 3.43229166666667  C 6.24609375 4.05381944444444  5.94642857142857 4.79861111111111  5.94642857142857 5.66666666666667  C 5.94642857142857 5.80555555555556  5.99330357142857 5.92361111111111  6.08705357142857 6.02083333333333  C 6.18080357142857 6.11805555555555  6.29464285714286 6.16666666666667  6.42857142857143 6.16666666666667  C 6.5625 6.16666666666667  6.67633928571429 6.11805555555555  6.77008928571429 6.02083333333333  C 6.86383928571429 5.92361111111111  6.91071428571429 5.80555555555556  6.91071428571429 5.66666666666667  C 6.91071428571429 5.06944444444444  7.11495535714286 4.55902777777778  7.5234375 4.13541666666667  C 7.93191964285714 3.71180555555555  8.42410714285714 3.5  9 3.5  C 9.13392857142857 3.5  9.24776785714286 3.45138888888889  9.34151785714286 3.35416666666667  Z M 12.9676339285714 0.729166666666667  C 13.0747767857143 0.79861111111111  13.1283482142857 0.89236111111111  13.1283482142857 1.01041666666667  C 13.1283482142857 1.05902777777778  13.125 1.09027777777778  13.1183035714286 1.10416666666667  C 12.4084821428571 2.41666666666667  11.3504464285714 4.38541666666667  9.94419642857143 7.01041666666667  C 8.53794642857143 9.63541666666667  7.48325892857143 11.6006944444444  6.78013392857143 12.90625  L 6.28794642857143 13.8333333333333  C 6.22098214285714 13.9444444444444  6.12723214285714 14  6.00669642857143 14  C 5.92633928571429 14  5.47767857142857 13.7569444444444  4.66071428571429 13.2708333333333  C 4.55357142857143 13.2013888888889  4.5 13.1041666666667  4.5 12.9791666666667  C 4.5 12.8958333333333  4.64732142857143 12.59375  4.94196428571429 12.0729166666667  C 3.984375 11.6215277777778  3.10212053571429 11.0208333333333  2.29520089285714 10.2708333333333  C 1.48828125 9.52083333333333  0.790178571428572 8.67013888888889  0.200892857142857 7.71875  C 0.0669642857142857 7.50347222222222  0 7.26388888888889  0 7  C 0 6.73611111111111  0.0669642857142857 6.49652777777778  0.200892857142857 6.28125  C 1.22544642857143 4.64930555555556  2.49776785714286 3.36111111111111  4.01785714285714 2.41666666666667  C 5.53794642857143 1.47222222222222  7.19866071428572 1  9 1  C 9.59598214285714 1  10.1986607142857 1.05902777777778  10.8080357142857 1.17708333333333  L 11.3504464285714 0.166666666666666  C 11.4174107142857 0.0555555555555554  11.5111607142857 0  11.6316964285714 0  C 11.6651785714286 0  11.7254464285714 0.0208333333333333  11.8125 0.0624999999999998  C 11.8995535714286 0.104166666666666  12.0033482142857 0.157986111111109  12.1238839285714 0.223958333333334  C 12.2444196428571 0.289930555555555  12.3549107142857 0.354166666666667  12.4553571428571 0.416666666666667  C 12.5558035714286 0.479166666666667  12.6612723214286 0.543402777777775  12.7717633928571 0.609375  C 12.8822544642857 0.675347222222221  12.9475446428571 0.715277777777777  12.9676339285714 0.729166666666667  Z M 13.4196428571429 4.79166666666667  C 13.4732142857143 5.10416666666667  13.5 5.39583333333333  13.5 5.66666666666667  C 13.5 6.63194444444444  13.2354910714286 7.51215277777778  12.7064732142857 8.30729166666667  C 12.1774553571429 9.10243055555556  11.4776785714286 9.67361111111111  10.6071428571429 10.0208333333333  L 13.4196428571429 4.79166666666667  Z M 17.7991071428571 6.28125  C 17.9330357142857 6.51736111111111  18 6.75694444444444  18 7  C 18 7.24305555555555  17.9330357142857 7.48263888888889  17.7991071428571 7.71875  C 17.5379464285714 8.16319444444444  17.1729910714286 8.66666666666667  16.7042410714286 9.22916666666667  C 15.6997767857143 10.4236111111111  14.5362723214286 11.3506944444444  13.2137276785714 12.0104166666667  C 11.8911830357143 12.6701388888889  10.4866071428571 13  9 13  L 9.74330357142857 11.625  C 11.1629464285714 11.5  12.4771205357143 11.0243055555556  13.6858258928571 10.1979166666667  C 14.89453125 9.37152777777778  15.9040178571429 8.30555555555555  16.7142857142857 7  C 15.9441964285714 5.75694444444444  15 4.73611111111111  13.8816964285714 3.9375  L 14.5145089285714 2.77083333333333  C 15.1506696428571 3.21527777777778  15.76171875 3.74652777777778  16.34765625 4.36458333333333  C 16.93359375 4.98263888888889  17.4174107142857 5.62152777777778  17.7991071428571 6.28125  Z " fill-rule="nonzero" fill="#aaaaaa" stroke="none" transform="matrix(1 0 0 1 2086 419 )" />
  </g>
</svg>