<?xml version="1.0" encoding="utf-8"?>
<svg version="1.1" xmlns:xlink="http://www.w3.org/1999/xlink" width="8px" height="12px" xmlns="http://www.w3.org/2000/svg">
  <g transform="matrix(1 0 0 1 -349 -396 )">
    <path d="M 7.86254295532646 0.721442885771542  C 7.95418098510882 0.801603206412824  8 0.893787575150299  8 0.997995991983968  C 8 1.10220440881763  7.95418098510882 1.19438877755511  7.86254295532646 1.27454909819639  L 2.46048109965636 6  L 7.86254295532646 10.7254509018036  C 7.95418098510882 10.8056112224449  8 10.8977955911824  8 11.002004008016  C 8 11.1062124248497  7.95418098510882 11.1983967935872  7.86254295532646 11.2785571142285  L 7.17525773195876 11.8797595190381  C 7.0836197021764 11.9599198396794  6.97823596792669 12  6.85910652920962 12  C 6.73997709049256 12  6.63459335624284 11.9599198396794  6.54295532646048 11.8797595190381  L 0.13745704467354 6.27655310621242  C 0.0458190148911799 6.19639278557114  0 6.10420841683367  0 6  C 0 5.89579158316633  0.0458190148911799 5.80360721442886  0.13745704467354 5.72344689378758  L 6.54295532646048 0.120240480961924  C 6.63459335624284 0.0400801603206409  6.73997709049256 0  6.85910652920962 0  C 6.97823596792669 0  7.0836197021764 0.0400801603206409  7.17525773195876 0.120240480961924  L 7.86254295532646 0.721442885771542  Z " fill-rule="nonzero" fill="#aaaaaa" stroke="none" transform="matrix(1 0 0 1 349 396 )" />
  </g>
</svg>