<?xml version="1.0" encoding="utf-8"?>
<svg version="1.1" xmlns:xlink="http://www.w3.org/1999/xlink" width="19px" height="19px" xmlns="http://www.w3.org/2000/svg">
  <g transform="matrix(1 0 0 1 -88 -522 )">
    <path d="M 97.5 522  C 102.82 522  107 526.18  107 531.5  C 107 536.82  102.82 541  97.5 541  C 92.18 541  88 536.82  88 531.5  C 88 526.18  92.18 522  97.5 522  Z " fill-rule="nonzero" fill="#ffffff" stroke="none" />
    <path d="M 97.5 522.5  C 102.54 522.5  106.5 526.46  106.5 531.5  C 106.5 536.54  102.54 540.5  97.5 540.5  C 92.46 540.5  88.5 536.54  88.5 531.5  C 88.5 526.46  92.46 522.5  97.5 522.5  Z " stroke-width="1" stroke="#797979" fill="none" />
  </g>
</svg>