<?xml version="1.0" encoding="utf-8"?>
<svg version="1.1" xmlns:xlink="http://www.w3.org/1999/xlink" width="20px" height="20px" xmlns="http://www.w3.org/2000/svg">
  <g transform="matrix(1 0 0 1 -329 -849 )">
    <path d="M 339 849  C 344.6 849  349 853.4  349 859  C 349 864.6  344.6 869  339 869  C 333.4 869  329 864.6  329 859  C 329 853.4  333.4 849  339 849  Z " fill-rule="nonzero" fill="#ffffff" stroke="none" />
    <path d="M 339 849.5  C 344.32 849.5  348.5 853.68  348.5 859  C 348.5 864.32  344.32 868.5  339 868.5  C 333.68 868.5  329.5 864.32  329.5 859  C 329.5 853.68  333.68 849.5  339 849.5  Z " stroke-width="1" stroke="#7f7f7f" fill="none" />
  </g>
</svg>