<?xml version="1.0" encoding="utf-8"?>
<svg version="1.1" xmlns:xlink="http://www.w3.org/1999/xlink" width="100px" height="100px" xmlns="http://www.w3.org/2000/svg">
  <g transform="matrix(1 0 0 1 -546 -302 )">
    <path d="M 596 302  C 624 302  646 324  646 352  C 646 380  624 402  596 402  C 568 402  546 380  546 352  C 546 324  568 302  596 302  Z " fill-rule="nonzero" fill="#d7d7d7" stroke="none" />
    <path d="M 596 302.5  C 623.72 302.5  645.5 324.28  645.5 352  C 645.5 379.72  623.72 401.5  596 401.5  C 568.28 401.5  546.5 379.72  546.5 352  C 546.5 324.28  568.28 302.5  596 302.5  Z " stroke-width="1" stroke="#797979" fill="none" />
  </g>
</svg>