<?xml version="1.0" encoding="utf-8"?>
<svg version="1.1" xmlns:xlink="http://www.w3.org/1999/xlink" width="12px" height="12px" viewBox="698 497.5  12 12" xmlns="http://www.w3.org/2000/svg">
  <path d="M 704 497.5  C 707.36 497.5  710 500.14  710 503.5  C 710 506.86  707.36 509.5  704 509.5  C 700.64 509.5  698 506.86  698 503.5  C 698 500.14  700.64 497.5  704 497.5  Z " fill-rule="nonzero" fill="#ffffff" stroke="none" />
  <path d="M 704 498  C 707.08 498  709.5 500.42  709.5 503.5  C 709.5 506.58  707.08 509  704 509  C 700.92 509  698.5 506.58  698.5 503.5  C 698.5 500.42  700.92 498  704 498  Z " stroke-width="1" stroke="#797979" fill="none" />
  <path d="M 704 506.5  C 702.32 506.5  701 505.18  701 503.5  C 701 501.82  702.32 500.5  704 500.5  C 705.68 500.5  707 501.82  707 503.5  C 707 505.18  705.68 506.5  704 506.5  " fill-rule="nonzero" fill="#797979" stroke="none" />
</svg>