<?xml version="1.0" encoding="utf-8"?>
<svg version="1.1" xmlns:xlink="http://www.w3.org/1999/xlink" width="12px" height="12px" viewBox="741 497.5  12 12" xmlns="http://www.w3.org/2000/svg">
  <path d="M 747 497.5  C 750.36 497.5  753 500.14  753 503.5  C 753 506.86  750.36 509.5  747 509.5  C 743.64 509.5  741 506.86  741 503.5  C 741 500.14  743.64 497.5  747 497.5  Z " fill-rule="nonzero" fill="#f0f0f0" stroke="none" />
  <path d="M 747 498  C 750.08 498  752.5 500.42  752.5 503.5  C 752.5 506.58  750.08 509  747 509  C 743.92 509  741.5 506.58  741.5 503.5  C 741.5 500.42  743.92 498  747 498  Z " stroke-width="1" stroke="#797979" fill="none" />
  <path d="M 747 506.5  C 745.32 506.5  744 505.18  744 503.5  C 744 501.82  745.32 500.5  747 500.5  C 748.68 500.5  750 501.82  750 503.5  C 750 505.18  748.68 506.5  747 506.5  " fill-rule="nonzero" fill="#797979" stroke="none" />
</svg>