<?xml version="1.0" encoding="utf-8"?>
<svg version="1.1" xmlns:xlink="http://www.w3.org/1999/xlink" width="23px" height="23px" xmlns="http://www.w3.org/2000/svg">
  <g transform="matrix(1 0 0 1 -340 -658 )">
    <path d="M 0 16.3258928571429  C 0 13.9728422619048  1.1002277904328 11.9791666666667  3.30068337129841 10.3448660714286  C 3.23082763857251 10.1822916666667  3.19589977220957 9.95982142857143  3.19589977220957 9.67745535714286  C 3.19589977220957 9.5063244047619  3.24392558845862 9.29668898809524  3.33997722095672 9.04854910714286  C 3.43602885345482 8.80040922619047  3.54081245254366 8.6078869047619  3.65432801822323 8.47098214285714  C 3.6455960516325 8.28273809523809  3.67834092634776 8.05598958333333  3.75256264236902 7.79073660714286  C 3.82678435839028 7.52548363095238  3.92501898253607 7.34151785714286  4.04726651480638 7.23883928571429  C 4.04726651480638 6.04947916666667  4.45111996962794 4.81519717261905  5.25882687927107 3.53599330357143  C 6.0665337889142 2.25678943452381  7.0161351556568 1.36049107142857  8.10763097949886 0.847098214285713  C 9.32137433561124 0.282366071428571  10.7359529233106 0  12.3513667425968 0  C 13.5127182991648 0  14.6740698557327 0.235305059523812  15.8354214123007 0.705915178571429  C 16.2632877752468 0.885602678571429  16.6562262718299 1.09095982142857  17.0142369020501 1.32198660714286  C 17.3722475322703 1.55301339285714  17.6822323462415 1.79259672619047  17.9441913439636 2.04073660714286  C 18.2061503416857 2.28887648809524  18.4462794229309 2.57979910714286  18.6645785876993 2.91350446428571  C 18.8828777524677 3.24720982142857  19.0662490508732 3.56380208333333  19.2146924829157 3.86328125  C 19.3631359149582 4.16276041666667  19.5050303720577 4.52427455357143  19.6403758542141 4.94782366071429  C 19.7757213363705 5.37137276785714  19.8870539104024 5.75427827380952  19.9743735763098 6.09654017857143  C 20.0616932422172 6.43880208333333  20.1577448747153 6.85807291666667  20.2625284738041 7.35435267857143  L 20.2756264236902 7.41852678571429  C 20.7558845861807 8.12872023809524  20.996013667426 8.77046130952381  20.996013667426 9.34375  C 20.996013667426 9.46354166666666  20.9567198177677 9.63467261904762  20.878132118451 9.85714285714286  C 20.7995444191344 10.0796130952381  20.7602505694761 10.2421875  20.7602505694761 10.3448660714286  C 20.7602505694761 10.3534226190476  20.7667995444191 10.368396577381  20.7798974943052 10.3897879464286  C 20.7929954441913 10.4111793154762  20.8082763857251 10.4325706845238  20.8257403189066 10.4539620535714  C 20.8432042520881 10.475353422619  20.8519362186788 10.4903273809524  20.8519362186788 10.4988839285714  C 21.5242976461655 11.4743303571429  22.0503986332574 12.3920200892857  22.4302391799544 13.251953125  C 22.8100797266515 14.1118861607143  23 15.00390625  23 15.9280133928571  C 23 16.2959449404762  22.9148633257403 16.7237723214286  22.744589977221 17.2114955357143  C 22.5743166287016 17.69921875  22.3320045558087 17.9430803571429  22.0176537585421 17.9430803571429  C 21.9390660592255 17.9430803571429  21.8539293849658 17.9109933035714  21.7622437357631 17.8468191964286  C 21.6705580865604 17.7826450892857  21.5876044039484 17.707775297619  21.5133826879271 17.6222098214286  C 21.4391609719058 17.5366443452381  21.3562072892938 17.4254092261905  21.2645216400911 17.2885044642857  C 21.1728359908884 17.151599702381  21.1029802581625 17.0382254464286  21.0549544419134 16.9483816964286  C 21.0069286256644 16.8585379464286  20.9479878511769 16.747302827381  20.878132118451 16.6146763392857  C 20.8082763857251 16.4820498511905  20.7689825360668 16.4071800595238  20.7602505694761 16.3900669642857  C 20.7515186028853 16.3815104166667  20.7384206529992 16.3772321428571  20.7209567198178 16.3772321428571  L 20.6554669703872 16.4285714285714  C 20.1402809415338 17.7462797619048  19.5639711465452 18.7003348214286  18.9265375854214 19.2907366071429  C 19.1011769172361 19.4618675595238  19.3696848899013 19.6265811011905  19.7320615034169 19.7848772321429  C 20.0944381169324 19.9431733630952  20.3956909643128 20.1207217261905  20.6358200455581 20.3175223214286  C 20.8759491268033 20.5143229166667  21.0309415337889 20.7924107142857  21.1007972665148 21.1517857142857  C 21.0833333333333 21.1860119047619  21.0658694001519 21.2544642857143  21.0484054669704 21.3571428571429  C 21.0309415337889 21.4598214285714  21.0003796507213 21.5368303571429  20.9567198177677 21.5881696428571  C 20.3978739559605 22.4181547619048  19.0793470007593 22.8331473214286  17.001138952164 22.8331473214286  C 16.538344722855 22.8331473214286  16.0559035687168 22.7946428571429  15.5538154897494 22.7176339285714  C 15.0517274107821 22.640625  14.623861047836 22.5550595238095  14.2702164009112 22.4609375  C 13.9165717539863 22.3668154761905  13.4603264996203 22.2384672619048  12.9014806378132 22.0758928571429  C 12.7705011389522 22.0331101190476  12.6700835231587 22.003162202381  12.6002277904328 21.9860491071429  C 12.4779802581625 21.9518229166667  12.2771450265756 21.9325706845238  11.997722095672 21.9282924107143  C 11.7182991647684 21.9240141369048  11.5436598329537 21.9175967261905  11.4738041002278 21.9090401785714  C 11.1157934700076 22.2940848214286  10.5591305998481 22.5721726190476  9.80381548974943 22.7433035714286  C 9.04850037965072 22.9144345238095  8.31283219438117 23  7.59681093394078 23  C 7.291192103265 23  6.98993925588459 22.9935825892857  6.69305239179954 22.9807477678571  C 6.3961655277145 22.9679129464286  5.99012908124525 22.9294084821429  5.4749430523918 22.865234375  C 4.95975702353834 22.8010602678571  4.51879271070615 22.7133556547619  4.15205011389522 22.6021205357143  C 3.78530751708428 22.4908854166667  3.46004176157935 22.3197544642857  3.17625284738041 22.0887276785714  C 2.89246393318147 21.8577008928571  2.75056947608201 21.5838913690476  2.750569476082 21.2672991071429  C 2.75056947608201 20.925037202381  2.79422930903569 20.6704799107143  2.88154897494305 20.5036272321429  C 2.96886864085042 20.3367745535714  3.14787395596052 20.1292782738095  3.41856492027335 19.8811383928571  C 3.51461655277145 19.864025297619  3.69143887623387 19.8084077380952  3.94903189066059 19.7142857142857  C 4.20662490508732 19.6201636904762  4.42274107820805 19.5688244047619  4.59738041002278 19.5602678571429  C 4.63230827638573 19.5602678571429  4.69343204252088 19.5517113095238  4.78075170842825 19.5345982142857  C 4.79821564160972 19.5174851190476  4.80694760820046 19.5003720238095  4.80694760820046 19.4832589285714  L 4.78075170842825 19.4447544642857  C 4.36161731207289 19.3506324404762  3.89009111617312 18.8992745535714  3.36617312072893 18.0906808035714  C 2.84225512528474 17.2820870535714  2.52353834472286 16.612537202381  2.41002277904328 16.08203125  L 2.34453302961276 16.0435267857143  C 2.30960516324981 16.0435267857143  2.25721336370539 16.1290922619048  2.1873576309795 16.3002232142857  C 2.03018223234624 16.6510416666667  1.79223614274867 16.9697730654762  1.47351936218679 17.2564174107143  C 1.15480258162491 17.5430617559524  0.816438876233865 17.7034970238095  0.458428246013667 17.7377232142857  L 0.445330296127563 17.7377232142857  C 0.410402429764616 17.7377232142857  0.384206529992407 17.7184709821429  0.366742596810934 17.6799665178571  C 0.349278663629461 17.6414620535714  0.32744874715262 17.617931547619  0.30125284738041 17.609375  C 0.10041761579347 17.1473214285714  0 16.719494047619  0 16.3258928571429  Z " fill-rule="nonzero" fill="#aaaaaa" stroke="none" transform="matrix(1 0 0 1 340 658 )" />
  </g>
</svg>