<?xml version="1.0" encoding="utf-8"?>
<svg version="1.1" xmlns:xlink="http://www.w3.org/1999/xlink" width="28px" height="23px" xmlns="http://www.w3.org/2000/svg">
  <g transform="matrix(1 0 0 1 -273 -658 )">
    <path d="M 7.587890625 6.40497601918465  C 7.81575520833333 6.17975619504396  7.9296875 5.87869704236611  7.9296875 5.50179856115108  C 7.9296875 5.12490007993605  7.81575520833333 4.82154276578737  7.587890625 4.59172661870504  C 7.36002604166667 4.3619104716227  7.05924479166667 4.24700239808153  6.685546875 4.24700239808153  C 6.29361979166667 4.24700239808153  5.947265625 4.36420863309353  5.646484375 4.59862110311751  C 5.345703125 4.83303357314149  5.1953125 5.13409272581934  5.1953125 5.50179856115108  C 5.1953125 5.86031175059952  5.345703125 6.15677458033573  5.646484375 6.39118705035971  C 5.947265625 6.62559952038369  6.29361979166667 6.74280575539568  6.685546875 6.74280575539568  C 7.05924479166667 6.74280575539568  7.36002604166667 6.63019584332534  7.587890625 6.40497601918465  Z M 17.7392578125 13.1960431654676  C 17.9716796875 12.9938049560352  18.087890625 12.7593924860112  18.087890625 12.4928057553957  C 18.087890625 12.2354116706635  17.9716796875 12.0055955235811  17.7392578125 11.8033573141487  C 17.5068359375 11.6011191047162  17.2083333333333 11.5  16.84375 11.5  C 16.59765625 11.5  16.3720703125 11.6034172661871  16.1669921875 11.8102517985612  C 15.9619140625 12.0170863309353  15.859375 12.2446043165468  15.859375 12.4928057553957  C 15.859375 12.7501998401279  15.9619140625 12.9823141486811  16.1669921875 13.1891486810552  C 16.3720703125 13.3959832134293  16.59765625 13.4994004796163  16.84375 13.4994004796163  C 17.2083333333333 13.4994004796163  17.5068359375 13.3982813749001  17.7392578125 13.1960431654676  Z M 14.5263671875 6.40497601918465  C 14.7496744791667 6.17975619504396  14.861328125 5.87869704236611  14.861328125 5.50179856115108  C 14.861328125 5.12490007993605  14.7496744791667 4.82154276578737  14.5263671875 4.59172661870504  C 14.3030598958333 4.3619104716227  14.0045572916667 4.24700239808153  13.630859375 4.24700239808153  C 13.2389322916667 4.24700239808153  12.892578125 4.36420863309353  12.591796875 4.59862110311751  C 12.291015625 4.83303357314149  12.140625 5.13409272581934  12.140625 5.50179856115108  C 12.140625 5.86031175059952  12.291015625 6.15677458033573  12.591796875 6.39118705035971  C 12.892578125 6.62559952038369  13.2389322916667 6.74280575539568  13.630859375 6.74280575539568  C 14.0045572916667 6.74280575539568  14.3030598958333 6.63019584332534  14.5263671875 6.40497601918465  Z M 23.1875 13.1960431654676  C 23.4244791666667 12.9938049560352  23.54296875 12.7593924860112  23.54296875 12.4928057553957  C 23.54296875 12.2354116706635  23.4244791666667 12.0055955235811  23.1875 11.8033573141487  C 22.9505208333333 11.6011191047162  22.654296875 11.5  22.298828125 11.5  C 22.052734375 11.5  21.8271484375 11.6034172661871  21.6220703125 11.8102517985612  C 21.4169921875 12.0170863309353  21.314453125 12.2446043165468  21.314453125 12.4928057553957  C 21.314453125 12.7501998401279  21.4169921875 12.9823141486811  21.6220703125 13.1891486810552  C 21.8271484375 13.3959832134293  22.052734375 13.4994004796163  22.298828125 13.4994004796163  C 22.654296875 13.4994004796163  22.9505208333333 13.3982813749001  23.1875 13.1960431654676  Z M 18.0400390625 3.4265587529976  C 19.0016276041667 4.49750199840128  19.6236979166667 5.69484412470024  19.90625 7.01858513189448  C 19.6236979166667 6.98181454836131  19.3046875 6.96342925659472  18.94921875 6.96342925659472  C 17.4088541666667 6.96342925659472  15.9915364583333 7.31734612310152  14.697265625 8.02517985611511  C 13.4029947916667 8.7330135891287  12.3844401041667 9.69134692246203  11.6416015625 10.9001798561151  C 10.8987630208333 12.1090127897682  10.52734375 13.4304556354916  10.52734375 14.8645083932854  C 10.52734375 15.5815347721823  10.6321614583333 16.2801758593126  10.841796875 16.9604316546763  C 10.5227864583333 16.9880095923261  10.212890625 17.0017985611511  9.912109375 17.0017985611511  C 9.67513020833333 17.0017985611511  9.447265625 16.9949040767386  9.228515625 16.9811151079137  C 9.009765625 16.9673261390887  8.75911458333333 16.937450039968  8.4765625 16.8914868105516  C 8.19401041666667 16.8455235811351  7.9912109375 16.8133493205436  7.8681640625 16.794964028777  C 7.7451171875 16.7765787370104  7.49674479166667 16.7283173461231  7.123046875 16.6501798561151  C 6.74934895833333 16.5720423661071  6.521484375 16.5237809752198  6.439453125 16.5053956834532  L 2.98046875 18.2565947242206  L 3.96484375 15.2505995203837  C 1.32161458333333 13.3844924060751  0 11.1322941646683  0 8.49400479616307  C 0 6.94044764188649  0.4443359375 5.51099120703437  1.3330078125 4.20563549160671  C 2.2216796875 2.90027977617906  3.4248046875 1.87300159872102  4.9423828125 1.12380095923261  C 6.4599609375 0.374600319744203  8.11653645833333 0  9.912109375 0  C 11.5162760416667 0  13.0315755208333 0.303357314148682  14.4580078125 0.910071942446043  C 15.8844401041667 1.51678657074341  17.0784505208333 2.35561550759392  18.0400390625 3.4265587529976  Z M 26.8310546875 11.1208033573141  C 27.6103515625 12.2377098321343  28 13.4488409272582  28 14.7541966426859  C 28 15.8297362110312  27.6878255208333 16.8570143884892  27.0634765625 17.83603117506  C 26.4391276041667 18.8150479616307  25.59375 19.7044364508393  24.52734375 20.5041966426859  L 25.279296875 23  L 22.55859375 21.4970023980815  C 21.19140625 21.8371302957634  20.1979166666667 22.0071942446043  19.578125 22.0071942446043  C 18.0377604166667 22.0071942446043  16.6204427083333 21.6831534772182  15.326171875 21.035071942446  C 14.0319010416667 20.3869904076739  13.0133463541667 19.5067945643485  12.2705078125 18.39448441247  C 11.5276692708333 17.2821742605915  11.15625 16.0687450039968  11.15625 14.7541966426859  C 11.15625 13.4396482813749  11.5276692708333 12.2262190247802  12.2705078125 11.1139088729017  C 13.0133463541667 10.0015987210232  14.0319010416667 9.12140287769784  15.326171875 8.47332134292566  C 16.6204427083333 7.82523980815348  18.0377604166667 7.50119904076739  19.578125 7.50119904076739  C 21.0455729166667 7.50119904076739  22.4264322916667 7.82523980815348  23.720703125 8.47332134292566  C 25.0149739583333 9.12140287769784  26.0517578125 10.003896882494  26.8310546875 11.1208033573141  Z " fill-rule="nonzero" fill="#aaaaaa" stroke="none" transform="matrix(1 0 0 1 273 658 )" />
  </g>
</svg>