<?xml version="1.0" encoding="utf-8"?>
<svg version="1.1" xmlns:xlink="http://www.w3.org/1999/xlink" width="30px" height="24px" xmlns="http://www.w3.org/2000/svg">
  <g transform="matrix(1 0 0 1 -203 -658 )">
    <path d="M 10.2481873954267 19.198347107438  C 10.6999442275516 19.0495867768595  11.0485220301171 18.7878787878788  11.2939208031233 18.4132231404959  C 11.5281650864473 18.0385674931129  11.5895147796988 17.6584022038567  11.4779698828779 17.2727272727273  C 11.3664249860569 16.8870523415978  11.1154489682097 16.6115702479339  10.7250418293363 16.4462809917355  C 10.345789180145 16.2920110192837  9.93865030674847 16.2865013774105  9.50362520914668 16.4297520661157  C 9.0686001115449 16.5730027548209  8.73396542108198 16.8264462809917  8.49972113775795 17.1900826446281  C 8.25432236475181 17.564738292011  8.18181818181818 17.9421487603306  8.28220858895706 18.3223140495868  C 8.38259899609593 18.702479338843  8.62242052426102 18.9807162534435  9.00167317345231 19.1570247933884  C 9.38092582264362 19.3333333333333  9.79643056330173 19.3471074380165  10.2481873954267 19.198347107438  Z M 12.4986056887897 16.7190082644628  C 12.6659230340212 16.6584022038567  12.7886224205243 16.5564738292011  12.8667038482989 16.4132231404959  C 12.9559397657557 16.2699724517906  12.9754601226994 16.1239669421488  12.9252649191299 15.9752066115702  C 12.8750697155605 15.8264462809917  12.7774679308422 15.7245179063361  12.6324595649749 15.6694214876033  C 12.4762967094255 15.6143250688705  12.3173452314557 15.6170798898072  12.1556051310653 15.6776859504132  C 11.9938650306748 15.7382920110193  11.8739542665923 15.8402203856749  11.7958728388176 15.9834710743802  C 11.606246514222 16.3250688705234  11.6787506971556 16.5730027548209  12.0133853876185 16.7272727272727  C 12.1695482431679 16.7823691460055  12.3312883435583 16.7796143250689  12.4986056887897 16.7190082644628  Z M 15.7361963190184 15.0330578512397  C 16.266034578918 16.030303030303  16.2799776910206 17.0798898071625  15.7780256553263 18.1818181818182  C 15.2760736196319 19.3057851239669  14.3948689347462 20.1322314049587  13.1344116006693 20.6611570247934  C 11.8739542665923 21.1900826446281  10.6246514221974 21.2561983471074  9.38650306748466 20.8595041322314  C 8.19297267150028 20.4848484848485  7.37032905744562 19.7878787878788  6.91857222532069 18.7685950413223  C 6.46681539319576 17.7493112947658  6.50306748466258 16.7162534435262  7.02732849972114 15.6694214876033  C 7.5515895147797 14.6446280991736  8.39654210819855 13.8787878787879  9.56218627997769 13.3719008264463  C 10.7278304517568 12.8650137741047  11.9018404907975 12.7603305785124  13.0842163970998 13.0578512396694  C 14.3223647518126 13.3774104683196  15.2063580591188 14.0358126721763  15.7361963190184 15.0330578512397  Z M 18.7813720022309 19.9090909090909  C 20.4155047406581 18.603305785124  21.154489682097 17.1460055096419  20.9983268265477 15.5371900826446  C 20.8979364194088 14.4793388429752  20.4015616285555 13.5426997245179  19.5092024539877 12.7272727272727  C 18.61684327942 11.9118457300275  17.4539877300614 11.3112947658402  16.0206358059119 10.9256198347107  C 14.5872838817624 10.5399449035813  13.0563301728946 10.4242424242424  11.4277746793084 10.5785123966942  C 8.94032348020078 10.831955922865  6.87953151143335 11.6115702479339  5.24539877300613 12.9173553719008  C 3.61126603457892 14.2231404958678  2.87228109313999 15.6804407713499  3.02844394868935 17.2892561983471  C 3.12883435582822 18.3471074380165  3.62520914668154 19.2837465564738  4.5175683212493 20.099173553719  C 5.40992749581707 20.9146005509642  6.57278304517568 21.5151515151515  8.00613496932515 21.900826446281  C 9.43948689347462 22.2865013774105  10.9704406023424 22.4022038567493  12.5989960959286 22.2479338842975  C 15.0864472950363 21.9944903581267  17.1472392638037 21.2148760330578  18.7813720022309 19.9090909090909  Z M 25.5828220858896 13.6776859504132  C 25.9620747350809 14.2561983471074  26.1517010596765 14.8980716253444  26.1517010596765 15.603305785124  C 26.1517010596765 16.3526170798898  25.9453430005577 17.1212121212121  25.5326268823201 17.9090909090909  C 25.1199107640825 18.6969696969697  24.5119910764083 19.4517906336088  23.7088678192973 20.1735537190083  C 22.9057445621863 20.8953168044077  21.9659788064696 21.5426997245179  20.8895705521472 22.1157024793388  C 19.8131622978249 22.6887052341598  18.5527049637479 23.1460055096419  17.1081985499163 23.4876033057851  C 15.6636921360848 23.8292011019284  14.1550474065811 24  12.5822643614055 24  C 11.0094813162298 24  9.47573898494144 23.8154269972452  7.98103736754044 23.4462809917355  C 6.48633575013943 23.0771349862259  5.14500836586726 22.564738292011  3.95705521472393 21.9090909090909  C 2.76910206358059 21.2534435261708  1.81260457334077 20.4214876033058  1.08756274400446 19.4132231404959  C 0.362520914668154 18.4049586776859  0 17.3057851239669  0 16.1157024793388  C 0 14.8484848484848  0.387618516452872 13.4986225895317  1.16285554935862 12.0661157024793  C 1.93809258226436 10.633608815427  3.03959843837145 9.21212121212121  4.46737311767987 7.80165289256198  C 6.35248187395427 5.93939393939394  8.25711098717234 4.63911845730027  10.1812604573341 3.90082644628099  C 12.1054099274958 3.16253443526171  13.4802007808143 3.20110192837465  14.3056330172895 4.01652892561984  C 15.0306748466258 4.72176308539945  15.1422197434467 5.8732782369146  14.6402677077524 7.47107438016529  C 14.595649749024 7.62534435261708  14.5900725041829 7.73553719008264  14.6235359732292 7.80165289256198  C 14.6569994422755 7.86776859504132  14.712771890686 7.90633608815427  14.7908533184607 7.91735537190083  C 14.8689347462354 7.92837465564738  14.9498047964306 7.92561983471074  15.0334634690463 7.90909090909091  C 15.117122141662 7.89256198347107  15.1924149470162 7.8732782369146  15.2593418851088 7.85123966942149  L 15.3597322922476 7.81818181818182  C 16.9102063580591 7.16804407713499  18.2822085889571 6.84297520661157  19.4757389849414 6.84297520661157  C 20.6692693809258 6.84297520661157  21.5225878416062 7.17906336088154  22.0356943669827 7.85123966942149  C 22.5376464026771 8.54545454545454  22.5376464026771 9.52617079889807  22.0356943669827 10.7933884297521  C 22.0133853876185 10.9366391184573  21.9882877858338 11.0468319559229  21.9604015616286 11.1239669421488  C 21.9325153374233 11.2011019283747  21.957612939208 11.2699724517906  22.0356943669827 11.3305785123967  C 22.1137757947574 11.3911845730028  22.18070273285 11.4325068870523  22.2364751812605 11.4545454545455  C 22.2922476296709 11.4765840220386  22.3870607919688 11.5096418732782  22.5209146681539 11.5537190082645  C 23.1567205800335 11.7520661157025  23.7311767986615 12.0110192837466  24.2442833240379 12.3305785123967  C 24.7573898494144 12.6501377410468  25.2035694366983 13.099173553719  25.5828220858896 13.6776859504132  Z M 23.223647518126 4.20661157024793  C 23.8817624093698 4.41046831955923  24.4450641383157 4.77134986225895  24.9135527049637 5.28925619834711  C 25.3820412716118 5.80716253443526  25.686001115449 6.40495867768595  25.8254322364752 7.08264462809917  C 25.9648633575014 7.76033057851239  25.9286112660346 8.40771349862259  25.7166759620747 9.02479338842975  C 25.627440044618 9.27823691460055  25.462911321807 9.46556473829201  25.2230897936419 9.58677685950413  C 24.9832682654769 9.70798898071625  24.7350808700502 9.73002754820937  24.478527607362 9.65289256198347  C 24.2219743446737 9.56473829201102  24.0323480200781 9.40220385674931  23.909648633575 9.16528925619835  C 23.7869492470719 8.92837465564738  23.7646402677078 8.6831955922865  23.8427216954824 8.4297520661157  C 24.0658114891244 7.73553719008265  23.9319576129392 7.12396694214876  23.4411600669269 6.59504132231405  C 22.9503625209147 6.06611570247934  22.3535973229225 5.8732782369146  21.6508644729504 6.01652892561983  C 21.38315672058 6.07162534435262  21.1321807027329 6.02754820936639  20.8979364194088 5.88429752066116  C 20.6636921360848 5.74104683195592  20.5242610150586 5.53719008264463  20.4796430563302 5.27272727272727  C 20.4238706079197 5.00826446280992  20.4684885666481 4.76308539944903  20.6134969325153 4.53719008264463  C 20.7585052983826 4.31129476584022  20.9648633575014 4.17079889807162  21.2325711098717 4.11570247933884  C 21.9018404907975 3.97245179063361  22.5655326268823 4.00275482093664  23.223647518126 4.20661157024793  Z M 24.4617958728388 0.37190082644628  C 25.8114891243726 0.785123966942149  26.9715560513107 1.52617079889807  27.9419966536531 2.59504132231405  C 28.9124372559955 3.65289256198347  29.5398773006135 4.87878787878788  29.824316787507 6.27272727272727  C 30.1087562744004 7.66666666666667  30.0334634690463 8.99724517906336  29.5984383714445 10.2644628099174  C 29.4980479643056 10.5619834710744  29.30842163971 10.7823691460055  29.0295593976576 10.9256198347107  C 28.7506971556051 11.068870523416  28.4606804238706 11.0909090909091  28.159509202454 10.9917355371901  C 27.8583379810374 10.8925619834711  27.6352481873954 10.7052341597796  27.4902398215282 10.4297520661157  C 27.3452314556609 10.1542699724518  27.3173452314557 9.86776859504132  27.4065811489124 9.5702479338843  C 27.7189068600112 8.66666666666666  27.7746793084216 7.71900826446281  27.5738984941439 6.72727272727273  C 27.3731176798661 5.73553719008264  26.9269380925823 4.86501377410468  26.2353597322922 4.11570247933884  C 25.5437813720022 3.35537190082645  24.7183491355271 2.82920110192837  23.7590630228667 2.53719008264463  C 22.7997769102064 2.24517906336088  21.834913552705 2.19834710743802  20.8644729503625 2.39669421487603  C 20.5521472392638 2.46280991735537  20.2621305075293 2.41046831955923  19.994422755159 2.2396694214876  C 19.7267150027886 2.06887052341598  19.5593976575572 1.82920110192837  19.4924707194646 1.52066115702479  C 19.425543781372 1.21212121212121  19.478527607362 0.92837465564738  19.6514221974345 0.669421487603307  C 19.824316787507 0.410468319559229  20.0669269380926 0.247933884297521  20.3792526491913 0.181818181818182  C 21.7512548800892 -0.10468319559229  23.1121026213051 -0.0413223140495855  24.4617958728388 0.37190082644628  Z " fill-rule="nonzero" fill="#aaaaaa" stroke="none" transform="matrix(1 0 0 1 203 658 )" />
  </g>
</svg>