<?xml version="1.0" encoding="utf-8"?>
<svg version="1.1" xmlns:xlink="http://www.w3.org/1999/xlink" width="19px" height="23px" xmlns="http://www.w3.org/2000/svg">
  <g transform="matrix(1 0 0 1 -403 -658 )">
    <path d="M 16.8449389806174 15.0522836538462  C 17.4723618090452 15.9645432692308  18.1907154821728 16.5450721153846  19 16.7938701923077  C 18.6453697056712 17.9457131410256  18.0861450107681 19.0975560897436  17.3223259152907 20.2493990384615  C 16.1493180186648 22.0554887820513  14.9808566642738 22.9585336538462  13.8169418521177 22.9585336538462  C 13.3713807130893 22.9585336538462  12.7348648001914 22.8110977564103  11.9073941134243 22.5162259615385  C 11.1253888490069 22.2213541666667  10.4388609715243 22.0739182692308  9.84781048097631 22.0739182692308  C 9.29313232830821 22.0739182692308  8.64752333094042 22.2259615384615  7.91098348887294 22.5300480769231  C 7.17444364680546 22.8433493589744  6.57430007178751 23  6.1105527638191 23  C 4.72840392438382 23  3.35989471165351 21.8066907051282  2.00502512562814 19.4200721153846  C 0.668341708542714 17.0150240384615  0 14.697516025641  0 12.4675480769231  C 0 10.3665865384615  0.513759272553242 8.64342948717949  1.54127781765973 7.29807692307692  C 2.56879636276621 5.97115384615384  3.86001435750179 5.30769230769231  5.41493180186648 5.30769230769231  C 6.06963388370424 5.30769230769231  6.87437185929648 5.44591346153846  7.82914572864322 5.72235576923077  C 8.77482651351998 5.99879807692308  9.40224934194783 6.13701923076923  9.71141421392678 6.13701923076923  C 10.1206030150754 6.13701923076923  10.7707585546782 5.98036858974359  11.6618808327351 5.66706730769231  C 12.5893754486719 5.35376602564103  13.3759272553242 5.19711538461538  14.021536252692 5.19711538461538  C 15.1036133046183 5.19711538461538  16.07202680067 5.49659455128205  16.9267767408471 6.09555288461538  C 17.3996171332855 6.42728365384616  17.8724575257239 6.88802083333333  18.3452979181622 7.47776442307692  C 17.6269442450347 8.09515224358974  17.1086384302465 8.63882211538462  16.7903804737976 9.10877403846154  C 16.1993299832496 9.97495993589743  15.9038047379756 10.9286858974359  15.9038047379756 11.9699519230769  C 15.9038047379756 13.1125801282051  16.2175161521895 14.1400240384615  16.8449389806174 15.0522836538462  Z M 13.8646805455851 0.442307692307693  C 13.8692270878201 0.497596153846155  13.8715003589375 0.543669871794871  13.8715003589375 0.580528846153845  C 13.8715003589375 1.1426282051282  13.739650634123 1.76923076923077  13.4759511844939 2.46033653846154  C 13.2031586503948 3.15144230769231  12.7803302225413 3.78725961538462  12.2074659009332 4.36778846153846  C 11.7164393395549 4.86538461538462  11.2254127781766 5.19711538461538  10.7343862167983 5.36298076923077  C 10.3979420914094 5.46434294871795  9.92510169897105 5.54266826923077  9.31586503948313 5.59795673076923  C 9.34314429289304 4.22495993589743  9.69777458722182 3.04086538461538  10.3797559224695 2.04567307692308  C 11.0526441732472 1.05969551282051  12.1892797319933 0.377804487179487  13.7896625987078 0  C 13.7987556831778 0.0276442307692319  13.8101220387653 0.0783253205128196  13.8237616654702 0.152043269230768  C 13.8374012921752 0.225761217948717  13.8487676477626 0.276442307692307  13.8578607322326 0.304086538461539  C 13.8578607322326 0.34094551282051  13.8601340033501 0.387019230769232  13.8646805455851 0.442307692307693  Z " fill-rule="nonzero" fill="#aaaaaa" stroke="none" transform="matrix(1 0 0 1 403 658 )" />
  </g>
</svg>