<?xml version="1.0" encoding="utf-8"?>
<svg version="1.1" xmlns:xlink="http://www.w3.org/1999/xlink" width="15px" height="9px" xmlns="http://www.w3.org/2000/svg">
  <g transform="matrix(1 0 0 1 -339 -359 )">
    <path d="M 14.8496993987976 0.927835051546367  C 14.9498997995992 1.03092783505156  15 1.14948453608247  15 1.28350515463916  C 15 1.41752577319585  14.9498997995992 1.53608247422682  14.8496993987976 1.63917525773195  L 10.7845298204601 5.82168993729988  L 7.84569138276549 8.84536082474227  C 7.74549098196394 8.94845360824741  7.63026052104203 9  7.5 9  C 7.36973947895797 9  7.25450901803606 8.94845360824741  7.15430861723451 8.84536082474227  L 0.150300601202389 1.63917525773195  C 0.0501002004008342 1.53608247422682  0 1.41752577319585  0 1.28350515463916  C 0 1.14948453608247  0.0501002004008342 1.03092783505156  0.150300601202389 0.927835051546367  L 0.901803607214447 0.154639175257728  C 1.002004008016 0.0515463917525949  1.11723446893791 0  1.24749498997994 0  C 1.37775551102209 0  1.49298597194388 0.0515463917525949  1.59318637274544 0.154639175257728  L 7.5 6.23195876288662  L 13.4068136272546 0.154639175257728  C 13.5070140280561 0.0515463917525949  13.6222444889779 0  13.7525050100201 0  C 13.8827655310621 0  13.997995991984 0.0515463917525949  14.0981963927856 0.154639175257728  L 14.8496993987976 0.927835051546367  Z " fill-rule="nonzero" fill="#7f7f7f" stroke="none" transform="matrix(1 0 0 1 339 359 )" />
  </g>
</svg>