<?xml version="1.0" encoding="utf-8"?>
<svg version="1.1" xmlns:xlink="http://www.w3.org/1999/xlink" width="22px" height="23px" xmlns="http://www.w3.org/2000/svg">
  <g transform="matrix(1 0 0 1 -124 -402 )">
    <path d="M 3.39453125 19.1989182692308  C 3.57595486111111 19.0238381410256  3.66666666666667 18.8165064102564  3.66666666666667 18.5769230769231  C 3.66666666666667 18.3373397435897  3.57595486111111 18.1300080128205  3.39453125 17.9549278846154  C 3.21310763888889 17.7798477564103  2.99826388888889 17.6923076923077  2.75 17.6923076923077  C 2.50173611111111 17.6923076923077  2.28689236111111 17.7798477564103  2.10546875 17.9549278846154  C 1.92404513888889 18.1300080128205  1.83333333333333 18.3373397435897  1.83333333333333 18.5769230769231  C 1.83333333333333 18.8165064102564  1.92404513888889 19.0238381410256  2.10546875 19.1989182692308  C 2.28689236111111 19.3739983974359  2.50173611111111 19.4615384615385  2.75 19.4615384615385  C 2.99826388888889 19.4615384615385  3.21310763888889 19.3739983974359  3.39453125 19.1989182692308  Z M 19.8587239583333 11.7349759615385  C 20.0640190972222 11.3110977564103  20.1666666666667 10.9379006410256  20.1666666666667 10.6153846153846  C 20.1666666666667 10.1454326923077  19.98046875 9.73307291666666  19.6080729166667 9.37830528846154  C 19.2356770833333 9.02353766025641  18.8107638888889 8.84615384615384  18.3333333333333 8.84615384615384  L 13.2916666666667 8.84615384615384  C 13.2916666666667 8.31169871794872  13.5208333333333 7.57682291666667  13.9791666666667 6.64152644230769  C 14.4375 5.70622996794872  14.6666666666667 4.96674679487179  14.6666666666667 4.42307692307692  C 14.6666666666667 3.52003205128205  14.5138888888889 2.85196314102564  14.2083333333333 2.41887019230769  C 13.9027777777778 1.98577724358974  13.2916666666667 1.76923076923077  12.375 1.76923076923077  C 12.1267361111111 2.0088141025641  11.9453125 2.4004407051282  11.8307291666667 2.94411057692308  C 11.7161458333333 3.48778044871795  11.5705295138889 4.06600560897436  11.3938802083333 4.67878605769231  C 11.2172309027778 5.29156650641026  10.9331597222222 5.79607371794872  10.5416666666667 6.19230769230769  C 10.3315972222222 6.40424679487179  9.96397569444445 6.82351762820513  9.43880208333333 7.45012019230769  C 9.40060763888889 7.49619391025641  9.29079861111111 7.63441506410256  9.109375 7.86478365384616  C 8.92795138888889 8.09515224358974  8.77756076388889 8.28405448717949  8.658203125 8.43149038461538  C 8.53884548611111 8.57892628205128  8.37413194444445 8.77473958333333  8.1640625 9.01893028846154  C 7.95399305555556 9.26312099358974  7.76302083333333 9.4658453525641  7.59114583333333 9.62710336538462  C 7.41927083333333 9.78836137820513  7.23546006944444 9.95192307692307  7.03971354166667 10.1177884615385  C 6.84396701388889 10.2836538461538  6.65299479166667 10.4080528846154  6.466796875 10.4909855769231  C 6.28059895833333 10.5739182692308  6.11111111111111 10.6153846153846  5.95833333333333 10.6153846153846  L 5.5 10.6153846153846  L 5.5 19.4615384615385  L 5.95833333333333 19.4615384615385  C 6.08246527777778 19.4615384615385  6.23285590277778 19.4753605769231  6.40950520833333 19.5030048076923  C 6.58615451388889 19.5306490384615  6.74370659722222 19.5605969551282  6.88216145833333 19.5928485576923  C 7.02061631944445 19.6251001602564  7.20203993055556 19.67578125  7.42643229166667 19.7448918269231  C 7.65082465277778 19.8140024038462  7.81792534722222 19.8669871794872  7.927734375 19.9038461538462  C 8.03754340277778 19.9407051282051  8.20703125 19.998297275641  8.43619791666667 20.0766225961538  C 8.66536458333333 20.1549479166667  8.80381944444445 20.2033253205128  8.8515625 20.2217548076923  C 10.8663194444444 20.8944310897436  12.4991319444444 21.2307692307692  13.75 21.2307692307692  L 15.4830729166667 21.2307692307692  C 17.31640625 21.2307692307692  18.2330729166667 20.4613381410256  18.2330729166667 18.9224759615385  C 18.2330729166667 18.6828926282051  18.2092013888889 18.4248798076923  18.1614583333333 18.1484375  C 18.4479166666667 18.0010016025641  18.6746961805556 17.7591145833333  18.841796875 17.4227764423077  C 19.0088975694444 17.086438301282  19.0924479166667 16.747796474359  19.0924479166667 16.4068509615385  C 19.0924479166667 16.0659054487179  19.0065104166667 15.7479967948718  18.8346354166667 15.453125  C 19.3407118055556 14.9923878205128  19.59375 14.4441105769231  19.59375 13.8082932692308  C 19.59375 13.5779246794872  19.5460069444444 13.3222155448718  19.4505208333333 13.0411658653846  C 19.3550347222222 12.7601161858974  19.2356770833333 12.541266025641  19.0924479166667 12.3846153846154  C 19.3980034722222 12.3754006410256  19.6534288194444 12.1588541666667  19.8587239583333 11.7349759615385  Z M 20.9114583333333 8.12740384615384  C 21.6371527777778 8.82772435897436  22 9.65244391025641  22 10.6015625  C 22 11.4216746794872  21.7660590277778 12.1726762820513  21.2981770833333 12.8545673076923  C 21.3841145833333 13.1586538461538  21.4270833333333 13.4765625  21.4270833333333 13.8082932692308  C 21.4270833333333 14.517828525641  21.2456597222222 15.1812900641026  20.8828125 15.7986778846154  C 20.9114583333333 15.9921875  20.92578125 16.1903044871795  20.92578125 16.3930288461538  C 20.92578125 17.3237179487179  20.6393229166667 18.1438301282051  20.06640625 18.8533653846154  C 20.0759548611111 20.1342147435897  19.6701388888889 21.1455328525641  18.8489583333333 21.8873197115385  C 18.0277777777778 22.6291065705128  16.9440104166667 23  15.59765625 23  L 15.08203125 23  L 13.75 23  C 12.8333333333333 23  11.9286024305556 22.8963341346154  11.0358072916667 22.6890024038462  C 10.1430121527778 22.4816706730769  9.109375 22.1798878205128  7.93489583333333 21.7836538461538  C 6.82725694444445 21.4150641025641  6.16840277777778 21.2307692307692  5.95833333333333 21.2307692307692  L 1.83333333333333 21.2307692307692  C 1.32725694444444 21.2307692307692  0.895182291666667 21.0579927884615  0.537109375 20.7124399038462  C 0.179036458333333 20.3668870192308  0 19.9499198717949  0 19.4615384615385  L 0 10.6153846153846  C 0 10.1270032051282  0.179036458333333 9.71003605769231  0.537109375 9.36448317307692  C 0.895182291666667 9.01893028846154  1.32725694444444 8.84615384615384  1.83333333333333 8.84615384615384  L 5.7578125 8.84615384615384  C 6.1015625 8.625  6.75564236111111 7.91085737179487  7.72005208333333 6.70372596153846  C 8.27387152777778 6.01262019230769  8.78472222222222 5.4228766025641  9.25260416666667 4.93449519230769  C 9.48177083333333 4.7041266025641  9.65125868055556 4.31019631410256  9.76106770833333 3.75270432692308  C 9.87087673611111 3.19521233974359  10.0164930555556 2.61237980769231  10.1979166666667 2.00420673076923  C 10.3793402777778 1.39603365384615  10.6753472222222 0.8984375  11.0859375 0.511418269230768  C 11.4583333333333 0.170472756410258  11.8880208333333 0  12.375 0  C 13.1770833333333 0  13.8980034722222 0.149739583333335  14.5377604166667 0.44921875  C 15.1775173611111 0.748697916666665  15.6644965277778 1.21634615384615  15.9986979166667 1.85216346153846  C 16.3328993055556 2.48798076923077  16.5 3.34495192307692  16.5 4.42307692307692  C 16.5 5.28004807692308  16.2708333333333 6.16466346153846  15.8125 7.07692307692308  L 18.3333333333333 7.07692307692308  C 19.3263888888889 7.07692307692308  20.1857638888889 7.42708333333333  20.9114583333333 8.12740384615384  Z " fill-rule="nonzero" fill="#000000" stroke="none" transform="matrix(1 0 0 1 124 402 )" />
  </g>
</svg>