<?xml version="1.0" encoding="utf-8"?>
<svg version="1.1" xmlns:xlink="http://www.w3.org/1999/xlink" width="23px" height="22px" xmlns="http://www.w3.org/2000/svg">
  <g transform="matrix(1 0 0 1 -199 -402 )">
    <path d="M 16.7109375 19.3106490233144  L 15.7157451923077 13.4744801512287  L 19.9453125 9.35727788279773  L 14.1123798076923 8.49779458097038  L 11.5 3.20226843100189  L 8.88762019230769 8.49779458097038  L 3.0546875 9.35727788279773  L 7.28425480769231 13.4744801512287  L 6.27524038461538 19.3106490233144  L 11.5 16.5519848771267  L 16.7109375 19.3106490233144  Z M 22.2259615384615 7.88783868935098  C 22.7419871794872 7.97101449275362  23 8.18357487922705  23 8.52551984877127  C 23 8.72883847931107  22.8802083333333 8.95064062171812  22.640625 9.19092627599244  L 17.6231971153846 14.0982986767486  L 18.8118990384615 21.0296156269691  C 18.8211137820513 21.0943079185045  18.8257211538462 21.1867254778408  18.8257211538462 21.3068683049779  C 18.8257211538462 21.7689561016593  18.6368189102564 22  18.2590144230769 22  C 18.0839342948718 22  17.8996394230769 21.9445494643982  17.7061298076923 21.8336483931947  L 11.5 18.5620667926906  L 5.29387019230769 21.8336483931947  C 5.09114583333333 21.9445494643982  4.90685096153846 22  4.74098557692308 22  C 4.54747596153846 22  4.40234375 21.9329972694812  4.30558894230769 21.7989918084436  C 4.20883413461539 21.664986347406  4.16045673076923 21.5009451795841  4.16045673076923 21.3068683049779  C 4.16045673076923 21.2514177693762  4.16967147435897 21.1590002100399  4.18810096153846 21.0296156269691  L 5.37680288461539 14.0982986767486  L 0.345552884615385 9.19092627599244  C 0.115184294871795 8.9413988657845  0 8.71959672337744  0 8.52551984877127  C 0 8.18357487922705  0.25801282051282 7.97101449275362  0.774038461538461 7.88783868935098  L 7.71274038461538 6.87586641461878  L 10.8227163461538 0.568367989918083  C 10.997796474359 0.18945599663936  11.2235576923077 0  11.5 0  C 11.7764423076923 0  12.002203525641 0.18945599663936  12.1772836538462 0.568367989918083  L 15.2872596153846 6.87586641461878  L 22.2259615384615 7.88783868935098  Z " fill-rule="nonzero" fill="#000000" stroke="none" transform="matrix(1 0 0 1 199 402 )" />
  </g>
</svg>