<?xml version="1.0" encoding="utf-8"?>
<svg version="1.1" xmlns:xlink="http://www.w3.org/1999/xlink" width="20px" height="22px" xmlns="http://www.w3.org/2000/svg">
  <g transform="matrix(1 0 0 1 -337 -1263 )">
    <path d="M 3.0859375 18.3641826923077  C 3.25086805555556 18.1967147435897  3.33333333333333 17.9983974358974  3.33333333333333 17.7692307692308  C 3.33333333333333 17.5400641025641  3.25086805555556 17.3417467948718  3.0859375 17.1742788461538  C 2.92100694444444 17.0068108974359  2.72569444444444 16.9230769230769  2.5 16.9230769230769  C 2.27430555555556 16.9230769230769  2.07899305555556 17.0068108974359  1.9140625 17.1742788461538  C 1.74913194444444 17.3417467948718  1.66666666666667 17.5400641025641  1.66666666666667 17.7692307692308  C 1.66666666666667 17.9983974358974  1.74913194444444 18.1967147435897  1.9140625 18.3641826923077  C 2.07899305555556 18.5316506410256  2.27430555555556 18.6153846153846  2.5 18.6153846153846  C 2.72569444444444 18.6153846153846  2.92100694444444 18.5316506410256  3.0859375 18.3641826923077  Z M 18.0533854166667 11.2247596153846  C 18.2400173611111 10.8193108974359  18.3333333333333 10.4623397435897  18.3333333333333 10.1538461538462  C 18.3333333333333 9.70432692307692  18.1640625 9.30989583333333  17.8255208333333 8.97055288461539  C 17.4869791666667 8.63120993589744  17.1006944444444 8.46153846153846  16.6666666666667 8.46153846153846  L 12.0833333333333 8.46153846153846  C 12.0833333333333 7.95032051282051  12.2916666666667 7.24739583333333  12.7083333333333 6.35276442307692  C 13.125 5.45813301282051  13.3333333333333 4.75080128205128  13.3333333333333 4.23076923076923  C 13.3333333333333 3.36698717948718  13.1944444444444 2.72796474358974  12.9166666666667 2.31370192307692  C 12.6388888888889 1.8994391025641  12.0833333333333 1.69230769230769  11.25 1.69230769230769  C 11.0243055555556 1.92147435897436  10.859375 2.29607371794872  10.7552083333333 2.81610576923077  C 10.6510416666667 3.33613782051282  10.5186631944444 3.88922275641025  10.3580729166667 4.47536057692308  C 10.1974826388889 5.0614983974359  9.93923611111111 5.54407051282051  9.58333333333333 5.92307692307692  C 9.39236111111111 6.12580128205128  9.05815972222222 6.52684294871795  8.58072916666667 7.12620192307692  C 8.54600694444444 7.17027243589744  8.44618055555556 7.30248397435897  8.28125 7.52283653846154  C 8.11631944444444 7.7431891025641  7.97960069444445 7.92387820512821  7.87109375 8.06490384615384  C 7.76258680555556 8.20592948717949  7.61284722222222 8.39322916666667  7.421875 8.62680288461539  C 7.23090277777778 8.8603766025641  7.05729166666667 9.05428685897436  6.90104166666667 9.20853365384616  C 6.74479166666667 9.36278044871795  6.57769097222222 9.51923076923077  6.39973958333333 9.67788461538462  C 6.22178819444445 9.83653846153846  6.04817708333333 9.95552884615384  5.87890625 10.0348557692308  C 5.70963541666667 10.1141826923077  5.55555555555556 10.1538461538462  5.41666666666667 10.1538461538462  L 5 10.1538461538462  L 5 18.6153846153846  L 5.41666666666667 18.6153846153846  C 5.52951388888889 18.6153846153846  5.66623263888889 18.6286057692308  5.82682291666667 18.6550480769231  C 5.98741319444445 18.6814903846154  6.13064236111111 18.7101362179487  6.25651041666667 18.7409855769231  C 6.38237847222222 18.7718349358974  6.54730902777778 18.8203125  6.75130208333333 18.8864182692308  C 6.95529513888889 18.9525240384615  7.10720486111111 19.0032051282051  7.20703125 19.0384615384615  C 7.30685763888889 19.0737179487179  7.4609375 19.1288060897436  7.66927083333333 19.2037259615385  C 7.87760416666667 19.2786458333333  8.00347222222222 19.3249198717949  8.046875 19.3425480769231  C 9.87847222222222 19.9859775641026  11.3628472222222 20.3076923076923  12.5 20.3076923076923  L 14.0755208333333 20.3076923076923  C 15.7421875 20.3076923076923  16.5755208333333 19.5717147435897  16.5755208333333 18.0997596153846  C 16.5755208333333 17.8705929487179  16.5538194444444 17.6237980769231  16.5104166666667 17.359375  C 16.7708333333333 17.2183493589744  16.9769965277778 16.9869791666667  17.12890625 16.6652644230769  C 17.2808159722222 16.3435496794872  17.3567708333333 16.0196314102564  17.3567708333333 15.6935096153846  C 17.3567708333333 15.3673878205128  17.2786458333333 15.0633012820513  17.1223958333333 14.78125  C 17.5824652777778 14.3405448717949  17.8125 13.8161057692308  17.8125 13.2079326923077  C 17.8125 12.9875801282051  17.7690972222222 12.7429887820513  17.6822916666667 12.4741586538462  C 17.5954861111111 12.205328525641  17.4869791666667 11.9959935897436  17.3567708333333 11.8461538461538  C 17.6345486111111 11.8373397435897  17.8667534722222 11.6302083333333  18.0533854166667 11.2247596153846  Z M 19.0104166666667 7.77403846153846  C 19.6701388888889 8.44391025641025  20 9.23277243589744  20 10.140625  C 20 10.9250801282051  19.7873263888889 11.6434294871795  19.3619791666667 12.2956730769231  C 19.4401041666667 12.5865384615385  19.4791666666667 12.890625  19.4791666666667 13.2079326923077  C 19.4791666666667 13.8866185897436  19.3142361111111 14.521233974359  18.984375 15.1117788461538  C 19.0104166666667 15.296875  19.0234375 15.4863782051282  19.0234375 15.6802884615385  C 19.0234375 16.5705128205128  18.7630208333333 17.3549679487179  18.2421875 18.0336538461538  C 18.2508680555556 19.2588141025641  17.8819444444444 20.2261618589744  17.1354166666667 20.9356971153846  C 16.3888888888889 21.6452323717949  15.4036458333333 22  14.1796875 22  L 13.7109375 22  L 12.5 22  C 11.6666666666667 22  10.8441840277778 21.9008413461538  10.0325520833333 21.7025240384615  C 9.22092013888889 21.5042067307692  8.28125 21.2155448717949  7.21354166666667 20.8365384615385  C 6.20659722222222 20.4839743589744  5.60763888888889 20.3076923076923  5.41666666666667 20.3076923076923  L 1.66666666666667 20.3076923076923  C 1.20659722222222 20.3076923076923  0.813802083333333 20.1424278846154  0.48828125 19.8118990384615  C 0.162760416666667 19.4813701923077  0 19.0825320512821  0 18.6153846153846  L 0 10.1538461538462  C 0 9.68669871794872  0.162760416666667 9.28786057692308  0.48828125 8.95733173076923  C 0.813802083333333 8.62680288461539  1.20659722222222 8.46153846153846  1.66666666666667 8.46153846153846  L 5.234375 8.46153846153846  C 5.546875 8.25  6.14149305555556 7.56690705128205  7.01822916666667 6.41225961538462  C 7.52170138888889 5.75120192307692  7.98611111111111 5.18709935897436  8.41145833333333 4.71995192307692  C 8.61979166666667 4.49959935897436  8.77387152777778 4.12279647435897  8.87369791666667 3.58954326923077  C 8.97352430555556 3.05629006410256  9.10590277777778 2.49879807692308  9.27083333333333 1.91706730769231  C 9.43576388888889 1.33533653846154  9.70486111111111 0.859375  10.078125 0.489182692307691  C 10.4166666666667 0.163060897435899  10.8072916666667 0  11.25 0  C 11.9791666666667 0  12.6345486111111 0.143229166666668  13.2161458333333 0.4296875  C 13.7977430555556 0.716145833333332  14.2404513888889 1.16346153846154  14.5442708333333 1.77163461538462  C 14.8480902777778 2.37980769230769  15 3.19951923076923  15 4.23076923076923  C 15 5.05048076923077  14.7916666666667 5.89663461538462  14.375 6.76923076923077  L 16.6666666666667 6.76923076923077  C 17.5694444444444 6.76923076923077  18.3506944444444 7.10416666666667  19.0104166666667 7.77403846153846  Z " fill-rule="nonzero" fill="#000000" stroke="none" transform="matrix(1 0 0 1 337 1263 )" />
  </g>
</svg>