<?xml version="1.0" encoding="utf-8"?>
<svg version="1.1" xmlns:xlink="http://www.w3.org/1999/xlink" width="14px" height="14px" xmlns="http://www.w3.org/2000/svg">
  <g transform="matrix(1 0 0 1 -760 -520 )">
    <path d="M 767 521  C 770.36 521  773 523.64  773 527  C 773 530.36  770.36 533  767 533  C 763.64 533  761 530.36  761 527  C 761 523.64  763.64 521  767 521  Z " fill-rule="nonzero" fill="#ffffff" stroke="none" />
    <path d="M 767 521  C 770.36 521  773 523.64  773 527  C 773 530.36  770.36 533  767 533  C 763.64 533  761 530.36  761 527  C 761 523.64  763.64 521  767 521  Z " stroke-width="2" stroke="#7ecf51" fill="none" />
  </g>
</svg>