<?xml version="1.0" encoding="utf-8"?>
<svg version="1.1" xmlns:xlink="http://www.w3.org/1999/xlink" width="12px" height="12px" viewBox="983 652.5  12 12" xmlns="http://www.w3.org/2000/svg">
  <path d="M 989 652.5  C 992.36 652.5  995 655.14  995 658.5  C 995 661.86  992.36 664.5  989 664.5  C 985.64 664.5  983 661.86  983 658.5  C 983 655.14  985.64 652.5  989 652.5  Z " fill-rule="nonzero" fill="#f0f0f0" stroke="none" />
  <path d="M 989 653  C 992.08 653  994.5 655.42  994.5 658.5  C 994.5 661.58  992.08 664  989 664  C 985.92 664  983.5 661.58  983.5 658.5  C 983.5 655.42  985.92 653  989 653  Z " stroke-width="1" stroke="#797979" fill="none" />
  <path d="M 989 661.5  C 987.32 661.5  986 660.18  986 658.5  C 986 656.82  987.32 655.5  989 655.5  C 990.68 655.5  992 656.82  992 658.5  C 992 660.18  990.68 661.5  989 661.5  " fill-rule="nonzero" fill="#797979" stroke="none" />
</svg>