<?xml version="1.0" encoding="utf-8"?>
<svg version="1.1" xmlns:xlink="http://www.w3.org/1999/xlink" width="12px" height="12px" viewBox="428 652.5  12 12" xmlns="http://www.w3.org/2000/svg">
  <path d="M 434 652.5  C 437.36 652.5  440 655.14  440 658.5  C 440 661.86  437.36 664.5  434 664.5  C 430.64 664.5  428 661.86  428 658.5  C 428 655.14  430.64 652.5  434 652.5  Z " fill-rule="nonzero" fill="#f0f0f0" stroke="none" />
  <path d="M 434 653  C 437.08 653  439.5 655.42  439.5 658.5  C 439.5 661.58  437.08 664  434 664  C 430.92 664  428.5 661.58  428.5 658.5  C 428.5 655.42  430.92 653  434 653  Z " stroke-width="1" stroke="#797979" fill="none" />
  <path d="M 434 661.5  C 432.32 661.5  431 660.18  431 658.5  C 431 656.82  432.32 655.5  434 655.5  C 435.68 655.5  437 656.82  437 658.5  C 437 660.18  435.68 661.5  434 661.5  " fill-rule="nonzero" fill="#797979" stroke="none" />
</svg>