<?xml version="1.0" encoding="utf-8"?>
<svg version="1.1" xmlns:xlink="http://www.w3.org/1999/xlink" width="25px" height="17px" xmlns="http://www.w3.org/2000/svg">
  <g transform="matrix(1 0 0 1 -298 -237 )">
    <path d="M 10 10.625  L 10 11.9  L 15 11.9  L 15 10.625  L 13.3333333333333 10.625  L 13.3333333333333 4.675  L 11.8489583333333 4.675  L 9.921875 6.49453125  L 10.9244791666667 7.55703125  C 11.2890625 7.22942708333333  11.5277777777778 6.97708333333333  11.640625 6.8  L 11.6666666666667 6.8  L 11.6666666666667 10.625  L 10 10.625  Z M 16.3932291666667 6.6140625  C 16.5755208333333 7.2515625  16.6666666666667 7.88020833333333  16.6666666666667 8.5  C 16.6666666666667 9.11979166666667  16.5755208333333 9.7484375  16.3932291666667 10.3859375  C 16.2109375 11.0234375  15.9526909722222 11.6166666666667  15.6184895833333 12.165625  C 15.2842881944444 12.7145833333333  14.84375 13.16171875  14.296875 13.50703125  C 13.75 13.85234375  13.1510416666667 14.025  12.5 14.025  C 11.8489583333333 14.025  11.25 13.85234375  10.703125 13.50703125  C 10.15625 13.16171875  9.71571180555556 12.7145833333333  9.38151041666667 12.165625  C 9.04730902777778 11.6166666666667  8.7890625 11.0234375  8.60677083333333 10.3859375  C 8.42447916666667 9.7484375  8.33333333333333 9.11979166666667  8.33333333333333 8.5  C 8.33333333333333 7.88020833333333  8.42447916666667 7.2515625  8.60677083333333 6.6140625  C 8.7890625 5.9765625  9.04730902777778 5.38333333333333  9.38151041666667 4.834375  C 9.71571180555556 4.28541666666666  10.15625 3.83828125  10.703125 3.49296875  C 11.25 3.14765625  11.8489583333333 2.975  12.5 2.975  C 13.1510416666667 2.975  13.75 3.14765625  14.296875 3.49296875  C 14.84375 3.83828125  15.2842881944444 4.28541666666666  15.6184895833333 4.834375  C 15.9526909722222 5.38333333333333  16.2109375 5.9765625  16.3932291666667 6.6140625  Z M 20.9765625 12.89609375  C 21.6276041666667 12.23203125  22.4131944444444 11.9  23.3333333333333 11.9  L 23.3333333333333 5.1  C 22.4131944444444 5.1  21.6276041666667 4.76796875  20.9765625 4.10390625  C 20.3255208333333 3.43984375  20 2.63854166666666  20 2  L 5 2  C 5 2.63854166666666  4.67447916666667 3.43984375  4.0234375 4.10390625  C 3.37239583333333 4.76796875  2.58680555555556 5.1  1.66666666666667 5.1  L 1.66666666666667 11.9  C 2.58680555555556 11.9  3.37239583333333 12.23203125  4.0234375 12.89609375  C 4.67447916666667 13.56015625  5 14.3614583333333  5 15  L 20 15  C 20 14.3614583333333  20.3255208333333 13.56015625  20.9765625 12.89609375  Z M 24.7526041666667 0.252343750000001  C 24.9175347222222 0.420572916666665  25 0.619791666666665  25 0.850000000000001  L 25 16.15  C 25 16.3802083333333  24.9175347222222 16.5794270833333  24.7526041666667 16.74765625  C 24.5876736111111 16.9158854166667  24.3923611111111 17  24.1666666666667 17  L 0.833333333333333 17  C 0.607638888888889 17  0.412326388888889 16.9158854166667  0.247395833333333 16.74765625  C 0.0824652777777778 16.5794270833333  0 16.3802083333333  0 16.15  L 0 0.850000000000001  C 0 0.619791666666665  0.0824652777777778 0.420572916666665  0.247395833333333 0.252343750000001  C 0.412326388888889 0.0841145833333323  0.607638888888889 0  0.833333333333333 0  L 24.1666666666667 0  C 24.3923611111111 0  24.5876736111111 0.0841145833333323  24.7526041666667 0.252343750000001  Z " fill-rule="nonzero" fill="#333333" stroke="none" transform="matrix(1 0 0 1 298 237 )" />
  </g>
</svg>