<?xml version="1.0" encoding="utf-8"?>
<svg version="1.1" xmlns:xlink="http://www.w3.org/1999/xlink" width="358px" height="243px" xmlns="http://www.w3.org/2000/svg">
  <g transform="matrix(1 0 0 1 -313 -446 )">
    <path d="M 16.7594278283485 117.226130653266  L 20.4837451235371 113.969849246231  L 16.7594278283485 110.306532663317  L 17.6905071521456 105.829145728643  L 13.9661898569571 102.979899497487  L 8.37971391417425 98.502512562814  L 6.0520156046814 95.6532663316583  L 8.37971391417425 91.9899497487437  L 5.12093628088426 89.9547738693467  L 0 87.5125628140704  L 0 85.8844221105527  L 4.18985695708713 86.6984924623115  L 5.12093628088426 82.6281407035176  L 6.0520156046814 79.3718592964824  L 5.12093628088426 75.7085427135678  L 0 74.894472361809  L 1.39661898569571 73.2663316582914  L 1.39661898569571 69.6030150753769  L 3.25877763328999 69.6030150753769  L 5.12093628088426 67.1608040201005  L 9.77633289986996 65.5326633165829  L 14.8972691807542 64.7185929648241  L 17.6905071521456 66.3467336683417  L 20.4837451235371 67.1608040201005  L 22.8114434330299 66.3467336683417  L 25.6046814044213 64.7185929648241  L 29.3289986996099 66.3467336683417  L 33.9843953185956 64.7185929648241  L 40.5019505851756 63.4974874371859  L 47.0195058517555 62.2763819095477  L 50.2782834850455 56.9849246231156  L 50.2782834850455 54.9497487437186  L 52.1404421326398 54.9497487437186  L 53.0715214564369 48.4371859296482  L 54.0026007802341 45.1809045226131  L 53.0715214564369 43.5527638190955  L 54.0026007802341 41.9246231155779  L 58.6579973992198 41.9246231155779  L 63.3133940182055 41.9246231155779  L 66.1066319895969 43.5527638190955  L 66.1066319895969 40.2964824120603  L 71.2275682704811 35.0050251256281  L 75.8829648894668 30.1206030150754  L 81.0039011703511 34.1909547738693  L 87.0559167750325 35.0050251256281  L 87.9869960988297 28.0854271356784  L 91.7113133940182 25.643216080402  L 94.5045513654096 26.4572864321608  L 97.297789336801 23.608040201005  L 97.297789336801 21.572864321608  L 102.884265279584 22.3869346733668  L 104.28088426528 23.608040201005  L 102.884265279584 24.8291457286432  L 104.28088426528 28.0854271356784  L 108.005201560468 32.5628140703518  L 109.867360208062 32.5628140703518  L 112.660598179454 35.0050251256281  L 115.453836150845 35.8190954773869  L 115.453836150845 40.2964824120603  L 117.31599479844 41.9246231155779  L 117.31599479844 45.1809045226131  L 113.591677503251 49.6582914572864  L 112.660598179454 51.6934673366834  L 115.453836150845 54.9497487437186  L 121.971391417425 55.7638190954774  L 128.954486345904 57.7989949748744  L 133.144343302991 62.2763819095477  L 138.265279583875 63.4974874371859  L 138.265279583875 66.3467336683417  L 139.196358907672 70.4170854271357  L 142.455136540962 75.7085427135678  L 147.110533159948 75.7085427135678  L 155.955786736021 78.5577889447236  L 162.938881664499 78.5577889447236  L 169.921976592978 79.3718592964824  L 174.577373211964 82.6281407035176  L 181.560468140442 85.0703517587939  L 187.146944083225 86.6984924623115  L 189.474642392718 85.8844221105527  L 192.267880364109 87.5125628140704  L 199.250975292588 85.0703517587939  L 204.837451235371 83.8492462311558  L 211.820546163849 82.6281407035176  L 218.338101430429 82.6281407035176  L 224.390117035111 80.5929648241206  L 229.045513654096 75.7085427135678  L 233.235370611183 74.0804020100502  L 233.235370611183 71.2311557788945  L 229.976592977893 67.1608040201005  L 234.16644993498 62.2763819095477  L 237.890767230169 65.5326633165829  L 241.615084525358 65.5326633165829  L 247.667100130039 62.2763819095477  L 253.253576072822 60.6482412060302  L 258.374512353706 57.7989949748744  L 258.374512353706 55.7638190954774  L 262.098829648895 52.9145728643216  L 266.288686605982 51.6934673366834  L 272.806241872562 50.4723618090452  L 277.461638491547 50.4723618090452  L 277.461638491547 48.4371859296482  L 273.737321196359 43.5527638190955  L 268.616384915475 40.2964824120603  L 263.960988296489 42.7386934673367  L 259.305591677503 41.9246231155779  L 255.115734720416 43.5527638190955  L 253.253576072822 40.2964824120603  L 255.115734720416 35.8190954773869  L 258.374512353706 28.0854271356784  L 263.960988296489 30.1206030150754  L 270.01300390117 26.4572864321608  L 270.944083224967 23.608040201005  L 273.737321196359 18.7236180904523  L 276.53055916775 12.6180904522613  L 278.392717815345 8.54773869346734  L 273.737321196359 8.54773869346734  L 272.806241872562 6.10552763819095  L 275.599479843953 4.47738693467337  L 281.185955786736 1.62814070351759  L 287.703511053316 0.814070351758793  L 292.8244473342 0  L 299.34200260078 1.62814070351759  L 303.997399219766 3.25628140703517  L 305.85955786736 6.10552763819095  L 307.256176853056 8.54773869346734  L 310.049414824447 12.6180904522613  L 311.911573472042 15.8743718592965  L 315.170351105332 19.5376884422111  L 317.963589076723 23.608040201005  L 323.550065019506 23.608040201005  L 329.602080624187 24.8291457286432  L 332.860858257477 25.643216080402  L 335.18855656697 28.8994974874372  L 335.18855656697 32.5628140703518  L 337.981794538362 34.1909547738693  L 341.70611183355 34.1909547738693  L 346.361508452536 32.5628140703518  L 346.361508452536 30.1206030150754  L 351.48244473342 28.0854271356784  L 356.603381014304 24.8291457286432  L 356.603381014304 25.643216080402  L 356.603381014304 28.8994974874372  L 358 30.1206030150754  L 355.206762028609 33.3768844221105  L 355.206762028609 39.0753768844221  L 354.275682704811 45.1809045226131  L 353.344603381014 49.6582914572864  L 346.361508452536 50.4723618090452  L 343.568270481144 53.7286432160804  L 345.430429128739 59.427135678392  L 346.361508452536 62.2763819095477  L 346.361508452536 66.3467336683417  L 343.568270481144 68.7889447236181  L 345.430429128739 71.2311557788944  L 341.70611183355 70.4170854271357  L 339.843953185956 67.9748743718593  L 338.912873862159 70.4170854271357  L 338.912873862159 72.4522613065327  L 336.119635890767 75.7085427135678  L 332.860858257477 76.929648241206  L 330.998699609883 76.929648241206  L 332.860858257477 79.3718592964824  L 332.860858257477 81.4070351758794  L 327.739921976593 81.4070351758794  L 324.481144343303 79.3718592964824  L 322.15344603381 81.4070351758794  L 322.15344603381 83.8492462311558  L 320.291287386216 85.8844221105527  L 315.170351105332 89.9547738693467  L 311.911573472042 92.8040201005025  L 310.980494148244 95.6532663316583  L 303.997399219766 97.2814070351759  L 299.34200260078 101.35175879397  L 296.548764629389 104.201005025126  L 291.893368010403 105.829145728643  L 291.893368010403 104.201005025126  L 294.221066319896 101.35175879397  L 292.8244473342 99.7236180904522  L 297.945383615084 92.8040201005025  L 294.221066319896 89.9547738693467  L 290.962288686606 88.7336683417085  L 287.703511053316 92.8040201005025  L 286.30689206762 96.4673366834171  L 281.185955786736 99.7236180904522  L 279.78933680104 104.201005025126  L 275.599479843953 105.829145728643  L 272.806241872562 102.979899497487  L 270.944083224967 105.829145728643  L 270.01300390117 108.678391959799  L 272.806241872562 111.934673366834  L 277.461638491547 111.934673366834  L 279.78933680104 113.969849246231  L 279.78933680104 117.226130653266  L 281.185955786736 118.854271356784  L 285.375812743823 117.226130653266  L 287.703511053316 114.78391959799  L 291.893368010403 112.748743718593  L 295.152145643693 113.969849246231  L 299.34200260078 113.969849246231  L 302.60078023407 114.78391959799  L 302.60078023407 117.226130653266  L 297.945383615084 120.075376884422  L 292.8244473342 122.924623115578  L 292.8244473342 125.366834170854  L 289.100130039012 126.180904522613  L 286.30689206762 129.844221105528  L 283.513654096229 134.72864321608  L 285.375812743823 137.577889447236  L 290.962288686606 138.391959798995  L 294.221066319896 144.904522613065  L 296.548764629389 148.56783919598  L 296.548764629389 151.417085427136  L 299.34200260078 151.417085427136  L 299.34200260078 153.452261306533  L 303.997399219766 154.266331658291  L 304.928478543563 157.929648241206  L 305.85955786736 163.221105527638  L 301.669700910273 164.035175879397  L 299.34200260078 166.070351758794  L 295.152145643693 168.105527638191  L 296.548764629389 168.105527638191  L 301.669700910273 166.884422110553  L 304.928478543563 169.326633165829  L 308.187256176853 166.070351758794  L 310.049414824447 169.326633165829  L 307.256176853056 172.989949748744  L 308.187256176853 176.653266331658  L 305.85955786736 178.688442211055  L 305.85955786736 181.537688442211  L 301.669700910273 184.793969849246  L 297.945383615084 190.085427135678  L 296.548764629389 194.562814070352  L 292.8244473342 193.748743718593  L 294.221066319896 196.190954773869  L 294.221066319896 199.040201005025  L 295.152145643693 202.29648241206  L 291.893368010403 205.552763819095  L 289.100130039012 208.402010050251  L 287.703511053316 210.844221105528  L 283.513654096229 209.623115577889  L 284.444733420026 212.065326633166  L 281.185955786736 215.321608040201  L 277.461638491547 217.356783919598  L 273.737321196359 221.020100502513  L 267.685305591677 224.276381909548  L 265.357607282185 224.276381909548  L 260.2366710013 225.090452261307  L 256.046814044213 228.346733668342  L 250.46033810143 230.381909547739  L 245.339401820546 232.010050251256  L 243.477243172952 233.231155778894  L 240.68400520156 232.010050251256  L 237.890767230169 233.231155778894  L 233.235370611183 234.859296482412  L 229.045513654096 234.859296482412  L 227.648894668401 236.894472361809  L 226.252275682705 236.894472361809  L 227.648894668401 239.743718592965  L 227.648894668401 241.778894472362  L 226.252275682705 243  L 222.993498049415 243  L 221.596879063719 239.743718592965  L 220.665799739922 238.115577889447  L 222.993498049415 234.859296482412  L 220.665799739922 233.231155778894  L 216.941482444733 234.859296482412  L 213.682704811443 233.231155778894  L 208.096228868661 234.859296482412  L 202.044213263979 232.010050251256  L 197.854356306892 230.381909547739  L 196.923276983095 227.532663316583  L 199.250975292588 225.090452261307  L 194.595578673602 223.05527638191  L 189.474642392718 221.020100502513  L 188.543563068921 219.798994974874  L 184.819245773732 221.020100502513  L 181.560468140442 224.276381909548  L 177.370611183355 225.904522613065  L 174.577373211964 224.276381909548  L 169.921976592978 225.904522613065  L 167.128738621586 223.05527638191  L 165.266579973992 224.276381909548  L 160.611183355006 225.090452261307  L 158.283485045514 225.904522613065  L 159.680104031209 229.1608040201  L 160.611183355006 232.010050251256  L 160.611183355006 233.231155778894  L 155.955786736021 233.231155778894  L 155.955786736021 230.381909547739  L 151.300390117035 231.195979899497  L 148.507152145644 231.195979899497  L 146.179453836151 226.718592964824  L 143.851755526658 226.718592964824  L 140.127438231469 225.904522613065  L 141.524057217165 223.05527638191  L 142.455136540962 221.020100502513  L 142.455136540962 219.798994974874  L 140.127438231469 217.356783919598  L 140.127438231469 214.100502512563  L 140.127438231469 212.065326633166  L 135.937581274382 212.065326633166  L 132.213263979194 212.879396984925  L 132.213263979194 209.623115577889  L 130.816644993498 207.587939698493  L 133.144343302991 203.924623115578  L 138.265279583875 199.854271356784  L 140.127438231469 197.005025125628  L 142.455136540962 191.713567839196  L 141.524057217165 186.422110552764  L 138.265279583875 185.608040201005  L 139.196358907672 182.35175879397  L 135.006501950585 179.502512562814  L 133.144343302991 182.35175879397  L 132.213263979194 183.979899497487  L 125.695708712614 181.537688442211  L 124.299089726918 179.502512562814  L 119.643693107932 179.502512562814  L 118.247074122237 181.537688442211  L 112.660598179454 183.979899497487  L 110.79843953186 182.35175879397  L 107.074122236671 186.422110552764  L 101.02210663199 187.236180904523  L 94.5045513654096 185.608040201005  L 94.5045513654096 181.537688442211  L 91.7113133940182 181.537688442211  L 91.7113133940182 177.874371859297  L 85.6592977893368 175.43216080402  L 81.0039011703511 172.989949748744  L 75.8829648894668 175.43216080402  L 73.0897269180754 179.502512562814  L 70.296488946684 177.874371859297  L 73.0897269180754 172.989949748744  L 68.4343302990897 172.989949748744  L 61.9167750325097 172.989949748744  L 57.7269180754226 169.326633165829  L 54.9336801040312 171.768844221105  L 53.0715214564369 170.140703517588  L 50.2782834850455 166.884422110553  L 47.0195058517555 163.221105527638  L 42.8296488946684 159.964824120603  L 38.1742522756827 157.929648241206  L 35.3810143042913 153.452261306533  L 31.6566970091027 148.56783919598  L 27.4668400520156 146.125628140703  L 24.6736020806242 147.753768844221  L 19.5526657997399 143.683417085427  L 17.6905071521456 140.020100502513  L 12.5695708712614 137.577889447236  L 11.1729518855657 131.472361809045  L 12.5695708712614 125.366834170854  L 13.9661898569571 122.924623115578  L 16.7594278283485 127.809045226131  L 18.6215864759428 122.110552763819  L 16.7594278283485 117.226130653266  Z " fill-rule="nonzero" fill="#ff0000" stroke="none" fill-opacity="0.2" transform="matrix(1 0 0 1 313 446 )" />
  </g>
</svg>