<?xml version="1.0" encoding="utf-8"?>
<svg version="1.1" xmlns:xlink="http://www.w3.org/1999/xlink" width="65px" height="60px" xmlns="http://www.w3.org/2000/svg">
  <g transform="matrix(1 0 0 1 -442 -620 )">
    <path d="M 14.0794223826715 3.10344827586206  L 15.956678700361 0  L 15.956678700361 3.10344827586206  L 15.956678700361 5.79310344827587  L 16.8953068592058 7.03448275862071  L 16.8953068592058 5.79310344827587  L 19.2418772563177 3.10344827586206  L 22.9963898916968 5.79310344827587  L 21.3537906137184 8.48275862068968  L 22.9963898916968 11.1724137931034  L 26.7509025270758 11.1724137931034  L 28.6281588447653 15.7241379310345  L 31.2093862815885 19.8620689655172  L 32.1480144404332 22.3448275862069  L 33.5559566787004 25.2413793103448  L 38.9530685920578 22.3448275862069  L 39.8916967509025 23.3793103448276  L 43.1768953068592 21.5172413793103  L 42.0036101083032 18.6206896551724  L 40.8303249097473 15.7241379310345  L 45.5234657039711 13.0344827586207  L 46.4620938628159 11.1724137931034  L 46.4620938628159 9.72413793103448  L 48.8086642599278 8.48275862068968  L 48.8086642599278 7.03448275862071  L 50.2166064981949 7.03448275862071  L 53.5018050541516 7.03448275862071  L 53.5018050541516 9.72413793103448  L 52.5631768953068 11.1724137931034  L 54.6750902527075 13.0344827586207  L 57.7256317689531 11.1724137931034  L 59.3682310469314 13.0344827586207  L 59.3682310469314 15.7241379310345  L 54.6750902527075 16.7586206896552  L 53.5018050541516 15.7241379310345  L 51.6245487364621 16.7586206896552  L 50.2166064981949 14.6896551724138  L 47.870036101083 16.7586206896552  L 48.8086642599278 18.6206896551724  L 47.870036101083 21.5172413793103  L 48.8086642599278 22.3448275862069  L 50.2166064981949 21.5172413793103  L 52.5631768953068 21.5172413793103  L 54.6750902527075 23.3793103448276  L 53.5018050541516 24.6206896551724  L 52.5631768953068 28.1379310344828  L 54.6750902527075 31.6551724137931  L 53.5018050541516 35.3793103448276  L 53.5018050541516 37.8620689655172  L 56.7870036101083 37.8620689655172  L 57.7256317689531 39.7241379310345  L 59.3682310469314 40.7586206896552  L 60.3068592057762 40.7586206896552  L 62.1841155234657 40.7586206896552  L 63.5920577617329 40.7586206896552  L 65 42.4137931034483  L 63.5920577617329 44.6896551724138  L 60.3068592057762 46.3448275862069  L 57.7256317689531 44.6896551724138  L 54.6750902527075 46.3448275862069  L 54.6750902527075 48.2068965517241  L 50.2166064981949 49.2413793103448  L 48.8086642599278 49.2413793103448  L 47.870036101083 50.4827586206897  L 45.5234657039711 49.2413793103448  L 43.1768953068592 49.2413793103448  L 40.8303249097473 50.4827586206897  L 37.3104693140794 48.2068965517241  L 34.9638989169675 49.2413793103448  L 34.9638989169675 50.4827586206897  L 30.2707581227437 50.4827586206897  L 28.6281588447653 51.7241379310345  L 30.2707581227437 55.0344827586207  L 30.2707581227437 57.7241379310345  L 30.2707581227437 60  L 28.6281588447653 58.9655172413793  L 26.7509025270758 58.9655172413793  L 26.7509025270758 57.7241379310345  L 25.5776173285199 55.0344827586207  L 22.9963898916968 56.2758620689655  L 18.0685920577617 56.2758620689655  L 16.8953068592058 54  L 16.8953068592058 51.7241379310345  L 14.0794223826715 51.7241379310345  L 10.5595667870036 50.4827586206897  L 11.9675090252708 49.2413793103448  L 11.9675090252708 47.1724137931035  L 15.0180505415163 44.6896551724138  L 11.9675090252708 43.8620689655172  L 9.62093862815885 42.4137931034483  L 9.62093862815885 40.7586206896552  L 8.4476534296029 37.8620689655172  L 9.62093862815885 36.8275862068966  L 7.03971119133575 36.8275862068966  L 5.86642599277981 35.3793103448276  L 1.87725631768953 37.8620689655172  L 0 36.8275862068966  L 1.87725631768953 35.3793103448276  L 0.938628158844776 31.6551724137931  L 0.938628158844776 30.2068965517241  L 2.81588447653431 30.2068965517241  L 2.81588447653431 28.1379310344828  L 7.03971119133575 25.2413793103448  L 10.5595667870036 24.6206896551724  L 10.5595667870036 21.5172413793103  L 11.9675090252708 16.7586206896552  L 11.9675090252708 11.1724137931034  L 9.62093862815885 11.1724137931034  L 7.03971119133575 7.03448275862071  L 8.4476534296029 5.79310344827587  L 10.5595667870036 7.03448275862071  L 12.9061371841155 7.03448275862071  L 11.9675090252708 4.96551724137932  L 12.9061371841155 1.448275862069  L 14.0794223826715 3.10344827586206  Z " fill-rule="nonzero" fill="#ffcc99" stroke="none" transform="matrix(1 0 0 1 442 620 )" />
  </g>
</svg>