<?xml version="1.0" encoding="utf-8"?>
<svg version="1.1" xmlns:xlink="http://www.w3.org/1999/xlink" width="159px" height="116px" xmlns="http://www.w3.org/2000/svg">
  <g transform="matrix(1 0 0 1 -458 -448 )">
    <path d="M 1.16398243045388 77.1298245614035  L 0 73.8736842105263  L 2.09516837481699 73.8736842105263  L 8.84626647144948 76.1122807017544  L 15.597364568082 76.1122807017544  L 23.0468521229868 77.1298245614035  L 27.9355783308931 79.9789473684211  L 34.4538799414349 82.6245614035088  L 40.7393850658858 84.4561403508772  L 42.8345534407028 83.438596491228  L 45.1625183016105 85.6771929824561  L 51.9136163982431 83.438596491228  L 58.4319180087848 80.9964912280702  L 64.9502196193265 80.9964912280702  L 71.9341142020498 80.9964912280702  L 78.2196193265007 78.3508771929825  L 81.9443631039532 73.8736842105263  L 87.7642752562226 70.4140350877193  L 83.3411420204978 65.7333333333333  L 84.5051244509517 63.4947368421053  L 87.7642752562226 60.8491228070175  L 91.2562225475842 62.8842105263158  L 94.7481698389458 63.4947368421053  L 100.568081991215 60.8491228070175  L 102.197657393851 57.5929824561404  L 105.922401171303 58.4070175438596  L 111.0439238653 55.1508771929825  L 111.0439238653 52.5052631578947  L 115.467057101025 50.4701754385965  L 120.355783308931 48.6385964912281  L 126.874084919473 47.621052631579  L 129.900439238653 47.621052631579  L 131.297218155198 45.7894736842105  L 126.874084919473 41.5157894736842  L 120.355783308931 38.4631578947368  L 115.467057101025 41.5157894736842  L 112.906295754026 39.8877192982456  L 109.414348462665 39.8877192982456  L 108.483162518302 41.5157894736842  L 105.922401171303 39.8877192982456  L 107.319180087848 37.0385964912281  L 108.483162518302 31.7473684210526  L 111.0439238653 26.0491228070175  L 116.86383601757 27.880701754386  L 122.91654465593 24.6245614035088  L 125.477306002928 22.7929824561403  L 124.080527086384 20.7578947368421  L 126.874084919473 15.2631578947368  L 127.755458515284 11.8035087719298  L 129.900439238653 10.3789473684211  L 131.297218155198 7.93684210526316  L 129.900439238653 5.90175438596491  L 126.874084919473 5.29122807017544  L 126.874084919473 3.25614035087719  L 128.503660322108 2.23859649122807  L 133.857979502196 0  L 134.789165446559 1.22105263157895  L 133.857979502196 2.23859649122807  L 132.461200585652 5.29122807017544  L 135.720351390922 6.71578947368421  L 138.04831625183 4.47719298245614  L 140.376281112738 5.90175438596491  L 140.376281112738 9.36140350877193  L 142.471449487555 13.0245614035088  L 145.032210834553 13.0245614035088  L 150.386530014641 11.8035087719298  L 154.111273792094 9.36140350877193  L 157.603221083455 11.8035087719298  L 159 13.0245614035088  L 159 16.0771929824561  L 156.206442166911 21.5719298245614  L 157.603221083455 24.6245614035088  L 157.603221083455 26.0491228070175  L 155.042459736457 27.0666666666667  L 155.042459736457 29.1017543859649  L 154.111273792094 31.7473684210526  L 155.042459736457 33.5789473684211  L 154.111273792094 34.5964912280702  L 152.288209606987 32.5614035087719  L 150.386530014641 35.2070175438596  L 146.428989751098 38.4631578947368  L 145.032210834553 40.9052631578947  L 147.825768667643 45.1789473684211  L 150.386530014641 42.7368421052632  L 151.550512445095 44.3649122807018  L 147.825768667643 46.8070175438597  L 149.222547584187 48.6385964912281  L 147.825768667643 50.4701754385965  L 147.825768667643 52.5052631578947  L 146.428989751098 50.4701754385965  L 145.032210834553 51.6912280701754  L 142.471449487555 50.4701754385965  L 142.471449487555 52.5052631578947  L 144.10102489019 54.540350877193  L 145.032210834553 60.0350877192983  L 147.825768667643 63.4947368421053  L 151.550512445095 61.6631578947368  L 154.111273792094 65.7333333333333  L 153.180087847731 67.7684210526316  L 155.042459736457 68.7859649122807  L 156.206442166911 70.4140350877193  L 154.111273792094 71.6350877192983  L 153.180087847731 72.6526315789474  L 150.386530014641 73.8736842105263  L 146.428989751098 74.8912280701754  L 142.471449487555 77.1298245614035  L 138.04831625183 79.1649122807018  L 135.720351390922 82.6245614035088  L 132.461200585652 78.3508771929825  L 132.461200585652 80.9964912280702  L 131.297218155198 85.6771929824561  L 128.503660322108 85.6771929824561  L 126.874084919473 86.4912280701755  L 124.080527086384 83.438596491228  L 125.477306002928 82.6245614035088  L 124.080527086384 79.9789473684211  L 121.752562225476 77.1298245614035  L 120.355783308931 77.1298245614035  L 116.86383601757 79.9789473684211  L 116.86383601757 81.8105263157895  L 114.535871156662 82.6245614035088  L 111.975109809663 83.438596491228  L 111.0439238653 82.6245614035088  L 107.319180087848 85.6771929824561  L 104.525622254758 85.6771929824561  L 104.525622254758 82.6245614035088  L 104.525622254758 81.8105263157895  L 102.197657393851 82.6245614035088  L 100.568081991215 86.4912280701755  L 99.1713030746705 87.5087719298246  L 99.1713030746705 90.3578947368421  L 100.568081991215 92.1894736842105  L 99.1713030746705 94.021052631579  L 94.7481698389458 96.0561403508772  L 89.6266471449487 95.2421052631579  L 87.7642752562226 99.3122807017544  L 87.7642752562226 101.550877192982  L 84.5051244509517 101.550877192982  L 83.3411420204978 102.568421052632  L 81.9443631039532 101.550877192982  L 79.6163982430454 102.568421052632  L 76.3572474377745 102.568421052632  L 73.3308931185944 106.638596491228  L 69.8389458272328 109.894736842105  L 69.8389458272328 113.150877192982  L 67.7437774524158 112.133333333333  L 67.7437774524158 115.59298245614  L 63.7862371888726 115.59298245614  L 60.7598828696925 113.150877192982  L 55.8711566617862 111.522807017544  L 54.0087847730601 109.894736842105  L 54.0087847730601 107.656140350877  L 57.7335285505124 105.417543859649  L 55.8711566617862 102.568421052632  L 51.9136163982431 103.99298245614  L 50.0512445095168 106.638596491228  L 50.0512445095168 109.284210526316  L 49.3528550512445 110.912280701754  L 49.3528550512445 113.964912280702  L 43.7657393850659 114.982456140351  L 40.506588579795 116  L 37.2474377745242 115.59298245614  L 33.5226939970717 112.133333333333  L 34.4538799414349 110.912280701754  L 34.4538799414349 109.284210526316  L 38.1786237188873 105.417543859649  L 39.5754026354319 103.99298245614  L 38.1786237188873 102.568421052632  L 34.4538799414349 101.550877192982  L 32.1259150805271 103.382456140351  L 29.3323572474378 102.568421052632  L 25.3748169838946 103.382456140351  L 25.3748169838946 105.417543859649  L 23.0468521229868 106.638596491228  L 20.0204978038067 103.99298245614  L 17.9253294289897 103.382456140351  L 17.9253294289897 100.126315789474  L 14.4333821376281 97.6842105263158  L 11.6398243045388 96.0561403508772  L 15.597364568082 93.0035087719298  L 16.5285505124451 90.3578947368421  L 14.4333821376281 87.5087719298246  L 10.4758418740849 89.340350877193  L 7.21669106881406 89.340350877193  L 5.12152269399707 90.3578947368421  L 5.12152269399707 88.5263157894737  L 2.09516837481699 85.6771929824561  L 1.16398243045388 84.4561403508772  L 3.49194729136165 82.6245614035088  L 1.16398243045388 77.1298245614035  Z " fill-rule="nonzero" fill="#cc9900" stroke="none" fill-opacity="0.498039215686275" transform="matrix(1 0 0 1 458 448 )" />
  </g>
</svg>