<?xml version="1.0" encoding="utf-8"?>
<svg version="1.1" xmlns:xlink="http://www.w3.org/1999/xlink" width="13px" height="10px" xmlns="http://www.w3.org/2000/svg">
  <g transform="matrix(1 0 0 1 -567 -537 )">
    <path d="M 13 3.88888888888889  L 13 5  L 11.5142857142857 5.97222222222222  L 9.09999999999998 5.97222222222222  L 9.09999999999998 7.22222222222222  L 10.0285714285714 8.88888888888889  L 6.31428571428572 10  L 4.82857142857145 8.88888888888889  L 2.7857142857143 10  L 1.67142857142855 8.88888888888889  L 0 8.88888888888889  L 1.67142857142855 7.22222222222222  L 0 7.22222222222222  L 1.67142857142855 5.97222222222222  L 3.90000000000002 5.97222222222222  L 2.7857142857143 3.88888888888889  L 2.7857142857143 2.22222222222222  L 6.31428571428572 0.972222222222219  L 6.31428571428572 0  L 7.98571428571431 0  L 9.09999999999998 0.972222222222219  L 13 0.972222222222219  L 11.5142857142857 3.19444444444444  L 13 3.88888888888889  Z " fill-rule="nonzero" fill="#ff0000" stroke="none" fill-opacity="0.498039215686275" transform="matrix(1 0 0 1 567 537 )" />
  </g>
</svg>