<?xml version="1.0" encoding="utf-8"?>
<svg version="1.1" xmlns:xlink="http://www.w3.org/1999/xlink" width="63px" height="72px" xmlns="http://www.w3.org/2000/svg">
  <defs>
    <mask fill="white" id="clip11">
      <path d="M 3.77528089887644 3.44788732394364  L 0 0  L 63 0  L 63 7.90985915492957  L 59.2247191011236 10.9521126760563  L 56.629213483146 16.6309859154929  L 54.0337078651686 20.281690140845  L 53.3258426966293 26.7718309859155  L 53.3258426966293 32.2478873239437  L 54.0337078651686 41.5774647887324  L 43.1797752808988 56.1802816901409  L 29.0224719101124 70.7830985915493  L 20.5280898876404 72  L 14.6292134831461 67.3352112676056  L 9.91011235955058 62.2647887323944  L 9.91011235955058 54.1521126760563  L 17.2247191011236 44.8225352112676  L 18.876404494382 36.3042253521127  L 17.2247191011236 29.6112676056338  L 12.9775280898877 24.743661971831  L 12.0337078651686 18.0507042253521  L 10.8539325842697 14.1971830985915  L 16.0449438202246 12.3718309859155  L 14.6292134831461 8.92394366197183  L 12.0337078651686 7.90985915492957  L 8.49438202247193 7.90985915492957  L 3.77528089887644 6.08450704225354  L 3.77528089887644 3.44788732394364  Z " fill-rule="evenodd" />
    </mask>
  </defs>
  <g transform="matrix(1 0 0 1 -665 -624 )">
    <path d="M 3.77528089887644 3.44788732394364  L 0 0  L 63 0  L 63 7.90985915492957  L 59.2247191011236 10.9521126760563  L 56.629213483146 16.6309859154929  L 54.0337078651686 20.281690140845  L 53.3258426966293 26.7718309859155  L 53.3258426966293 32.2478873239437  L 54.0337078651686 41.5774647887324  L 43.1797752808988 56.1802816901409  L 29.0224719101124 70.7830985915493  L 20.5280898876404 72  L 14.6292134831461 67.3352112676056  L 9.91011235955058 62.2647887323944  L 9.91011235955058 54.1521126760563  L 17.2247191011236 44.8225352112676  L 18.876404494382 36.3042253521127  L 17.2247191011236 29.6112676056338  L 12.9775280898877 24.743661971831  L 12.0337078651686 18.0507042253521  L 10.8539325842697 14.1971830985915  L 16.0449438202246 12.3718309859155  L 14.6292134831461 8.92394366197183  L 12.0337078651686 7.90985915492957  L 8.49438202247193 7.90985915492957  L 3.77528089887644 6.08450704225354  L 3.77528089887644 3.44788732394364  Z " fill-rule="nonzero" fill="#eeeeee" stroke="none" fill-opacity="0.498039215686275" transform="matrix(1 0 0 1 665 624 )" />
    <path d="M 3.77528089887644 3.44788732394364  L 0 0  L 63 0  L 63 7.90985915492957  L 59.2247191011236 10.9521126760563  L 56.629213483146 16.6309859154929  L 54.0337078651686 20.281690140845  L 53.3258426966293 26.7718309859155  L 53.3258426966293 32.2478873239437  L 54.0337078651686 41.5774647887324  L 43.1797752808988 56.1802816901409  L 29.0224719101124 70.7830985915493  L 20.5280898876404 72  L 14.6292134831461 67.3352112676056  L 9.91011235955058 62.2647887323944  L 9.91011235955058 54.1521126760563  L 17.2247191011236 44.8225352112676  L 18.876404494382 36.3042253521127  L 17.2247191011236 29.6112676056338  L 12.9775280898877 24.743661971831  L 12.0337078651686 18.0507042253521  L 10.8539325842697 14.1971830985915  L 16.0449438202246 12.3718309859155  L 14.6292134831461 8.92394366197183  L 12.0337078651686 7.90985915492957  L 8.49438202247193 7.90985915492957  L 3.77528089887644 6.08450704225354  L 3.77528089887644 3.44788732394364  Z " stroke-width="2" stroke="#ff0000" fill="none" stroke-opacity="0.2" transform="matrix(1 0 0 1 665 624 )" mask="url(#clip11)" />
  </g>
</svg>