<?xml version="1.0" encoding="utf-8"?>
<svg version="1.1" xmlns:xlink="http://www.w3.org/1999/xlink" width="13px" height="23px" xmlns="http://www.w3.org/2000/svg">
  <g transform="matrix(1 0 0 1 -610 -648 )">
    <path d="M 8.33962264150945 0  L 10.3018867924528 0  L 13 0  L 13 1.18965517241378  L 13 2.57758620689654  L 13 3.96551724137929  L 12.0188679245283 7.3362068965517  L 12.0188679245283 12.0948275862069  L 10.3018867924528 15.0689655172413  L 10.3018867924528 16.8534482758621  L 8.33962264150945 18.2413793103448  L 8.33962264150945 20.2241379310345  L 8.33962264150945 23  L 6.37735849056604 23  L 6.37735849056604 20.2241379310345  L 3.43396226415096 19.2327586206896  L 1.22641509433967 16.8534482758621  L 0 15.0689655172413  L 0 13.6810344827586  L 1.22641509433967 12.0948275862069  L 2.20754716981133 9.71551724137929  L 3.43396226415096 6.14655172413792  L 4.41509433962263 3.96551724137929  L 6.37735849056604 2.57758620689654  L 6.37735849056604 1.18965517241378  L 8.33962264150945 0  Z " fill-rule="nonzero" fill="#0099ff" stroke="none" fill-opacity="0.498039215686275" transform="matrix(1 0 0 1 610 648 )" />
  </g>
</svg>