<?xml version="1.0" encoding="utf-8"?>
<svg version="1.1" xmlns:xlink="http://www.w3.org/1999/xlink" width="59px" height="37px" xmlns="http://www.w3.org/2000/svg">
  <g transform="matrix(1 0 0 1 -601 -495 )">
    <path d="M 6.13599999999995 1.6353591160221  L 7.31599999999997 0  L 11.564 0  L 12.98 0  L 14.396 3.88397790055249  L 15.812 5.31491712707182  L 19.352 4.70165745856354  L 21.004 5.31491712707182  L 22.184 3.88397790055249  L 25.252 6.33701657458564  L 27.848 5.31491712707182  L 30.444 5.31491712707182  L 31.388 6.33701657458564  L 31.388 7.76795580110497  L 31.388 8.99447513812155  L 34.456 8.99447513812155  L 36.816 12.2651933701657  L 38.232 11.4475138121547  L 38.232 8.99447513812155  L 39.884 8.99447513812155  L 42.008 12.2651933701657  L 43.896 14.9226519337017  L 45.548 14.9226519337017  L 45.548 12.2651933701657  L 48.38 12.2651933701657  L 49.56 10.2209944751381  L 49.56 11.4475138121547  L 51.212 10.2209944751381  L 54.516 12.2651933701657  L 55.46 14.1049723756906  L 56.6400000000001 13.0828729281768  L 59 14.1049723756906  L 57.82 14.9226519337017  L 57.82 16.9668508287293  L 55.46 18.1933701657458  L 56.6400000000001 21.0552486187845  L 54.516 19.2154696132597  L 51.212 16.9668508287293  L 51.212 19.2154696132597  L 51.212 21.0552486187845  L 49.56 22.4861878453039  L 47.2 25.5524861878453  L 43.896 26.3701657458564  L 41.064 26.9834254143646  L 43.896 29.4364640883978  L 43.896 30.6629834254144  L 38.232 32.2983425414365  L 35.872 29.4364640883978  L 33.512 30.6629834254144  L 33.512 32.9116022099447  L 31.388 35.1602209944751  L 31.388 37  L 28.792 37  L 28.792 35.1602209944751  L 26.432 31.4806629834254  L 25.252 29.4364640883978  L 25.252 28.0055248618784  L 22.184 24.3259668508287  L 21.004 22.4861878453039  L 19.352 24.3259668508287  L 18.408 21.0552486187845  L 14.396 21.0552486187845  L 12.98 21.0552486187845  L 11.564 19.2154696132597  L 12.98 18.1933701657458  L 11.564 14.9226519337017  L 9.912 13.0828729281768  L 8.25999999999999 13.0828729281768  L 6.13599999999995 14.9226519337017  L 4.24799999999999 14.9226519337017  L 2.59599999999994 12.2651933701657  L 2.59599999999994 10.2209944751381  L 2.59599999999994 7.76795580110497  L 1.41600000000001 5.31491712707182  L 0 5.31491712707182  L 0 2.65745856353591  L 2.59599999999994 3.88397790055249  L 4.24799999999999 3.88397790055249  L 6.13599999999995 3.88397790055249  L 5.19200000000002 2.65745856353591  L 6.13599999999995 1.6353591160221  Z " fill-rule="nonzero" fill="#ff9933" stroke="none" fill-opacity="0.498039215686275" transform="matrix(1 0 0 1 601 495 )" />
  </g>
</svg>