<?xml version="1.0" encoding="utf-8"?>
<svg version="1.1" xmlns:xlink="http://www.w3.org/1999/xlink" width="72px" height="61px" xmlns="http://www.w3.org/2000/svg">
  <g transform="matrix(1 0 0 1 -450 -584 )">
    <path d="M 0.917197452229295 3.51107023411372  L 0.917197452229295 0.626321070234122  L 3.65714285714284 0  L 7.3375796178344 0.626321070234122  L 8.48407643312104 2.89290969899665  L 9.40127388535033 6.60187290969898  L 13.5286624203822 9.89872909698996  L 16.968152866242 9.89872909698996  L 19.4904458598726 11.1350501672241  L 23.6178343949045 12.3713712374582  L 24.7643312101911 7.42608695652175  L 29.1210191082803 8.25030100334448  L 32.3312101910828 8.25030100334448  L 33.4777070063694 6.60187290969898  L 32.3312101910828 3.51107023411372  L 34.3949044585987 2.89290969899665  L 36.2292993630573 0.626321070234122  L 38.5222929936306 2.89290969899665  L 38.5222929936306 5.15949832775919  L 40.5859872611465 5.15949832775919  L 43.5668789808917 6.60187290969898  L 45.6305732484076 9.0745150501672  L 47.2356687898089 13.4016387959866  L 51.8216560509554 13.4016387959866  L 54.1146496815286 12.3713712374582  L 56.6369426751592 12.3713712374582  L 61.2229299363058 13.4016387959866  L 64.2038216560509 16.2863879598662  L 68.5605095541401 17.1106020066889  L 72 17.1106020066889  L 72 20.40745819398  L 70.8535031847134 23.4982608695652  L 68.5605095541401 27.6193311036789  L 66.0382165605096 29.4738127090301  L 63.0573248407643 33.3888294314382  L 59.6178343949045 31.7404013377926  L 54.1146496815286 30.7101337792642  L 54.1146496815286 33.3888294314382  L 51.8216560509554 36.8917391304348  L 54.1146496815286 39.7764882943144  L 58.0127388535032 43.6915050167225  L 55.4904458598726 43.6915050167225  L 52.968152866242 45.3399331103679  L 55.4904458598726 46.7823076923077  L 58.0127388535032 49.2549498327759  L 52.968152866242 50.0791638795987  L 49.9872611464968 50.0791638795987  L 49.9872611464968 48.4307357859532  L 45.6305732484076 48.4307357859532  L 43.5668789808917 46.7823076923077  L 44.7133757961783 42.661237458194  L 40.5859872611465 42.661237458194  L 40.5859872611465 45.3399331103679  L 36.2292993630573 45.3399331103679  L 38.5222929936306 48.4307357859532  L 33.4777070063694 51.3154849498328  L 33.4777070063694 54.6123411371237  L 34.3949044585987 57.9091973244147  L 30.7261146496816 59.7636789297659  L 25.9108280254777 61  L 23.6178343949045 57.9091973244147  L 22.0127388535032 54.6123411371237  L 20.6369426751592 52.1396989966555  L 18.5732484076433 46.7823076923077  L 14.6751592356688 46.7823076923077  L 13.5286624203822 45.3399331103679  L 14.6751592356688 42.661237458194  L 10.7770700636943 39.7764882943144  L 8.48407643312104 42.661237458194  L 7.3375796178344 39.7764882943144  L 8.48407643312104 36.8917391304348  L 7.3375796178344 33.3888294314382  L 8.48407643312104 30.7101337792642  L 7.3375796178344 27.6193311036789  L 8.48407643312104 24.5285284280936  L 5.96178343949045 20.40745819398  L 9.40127388535033 20.40745819398  L 7.3375796178344 18.1408695652174  L 4.81528662420382 15.4621739130435  L 4.81528662420382 12.3713712374582  L 0.917197452229295 11.1350501672241  L 0 7.42608695652175  L 2.52229299363059 5.15949832775919  L 0.917197452229295 3.51107023411372  Z " fill-rule="nonzero" fill="#996699" stroke="none" fill-opacity="0.498039215686275" transform="matrix(1 0 0 1 450 584 )" />
  </g>
</svg>