<?xml version="1.0" encoding="utf-8"?>
<svg version="1.1" xmlns:xlink="http://www.w3.org/1999/xlink" width="20px" height="30px" xmlns="http://www.w3.org/2000/svg">
  <g transform="matrix(1 0 0 1 -500 -550 )">
    <path d="M 8.46846846846845 4.28571428571429  L 8.46846846846845 3.21428571428571  L 10.0900900900901 2.29591836734694  L 11.7117117117117 1.07142857142856  L 13.6936936936937 0  L 15.1351351351351 0  L 15.1351351351351 2.29591836734694  L 13.6936936936937 4.28571428571429  L 11.7117117117117 5.96938775510204  L 12.7927927927928 5.96938775510204  L 12.7927927927928 7.5  L 15.1351351351351 8.87755102040816  L 16.9369369369369 8.87755102040816  L 20 11.1734693877551  L 16.9369369369369 13.7755102040816  L 17.8378378378378 16.8367346938775  L 13.6936936936937 16.8367346938775  L 12.7927927927928 18.2142857142857  L 12.7927927927928 19.2857142857143  L 10.990990990991 20.5102040816327  L 11.7117117117117 22.8061224489796  L 15.1351351351351 23.8775510204082  L 13.6936936936937 26.4795918367347  L 11.7117117117117 26.4795918367347  L 11.7117117117117 29.234693877551  L 10.990990990991 30  L 8.46846846846845 29.234693877551  L 6.84684684684684 28.1632653061225  L 6.84684684684684 26.4795918367347  L 5.40540540540539 27.2448979591837  L 3.78378378378379 25.1020408163265  L 5.40540540540539 23.8775510204082  L 3.78378378378379 20.5102040816327  L 3.78378378378379 19.2857142857143  L 4.68468468468466 19.2857142857143  L 3.78378378378379 17.6020408163265  L 1.08108108108107 15.6122448979592  L 0 15.6122448979592  L 0 13.7755102040816  L 2.52252252252252 12.5510204081633  L 4.68468468468466 12.5510204081633  L 6.84684684684684 11.1734693877551  L 8.46846846846845 10.2551020408163  L 8.46846846846845 8.87755102040816  L 8.46846846846845 7.5  L 8.46846846846845 5.96938775510204  L 8.46846846846845 4.28571428571429  Z " fill-rule="nonzero" fill="#ffcc00" stroke="none" fill-opacity="0.498039215686275" transform="matrix(1 0 0 1 500 550 )" />
  </g>
</svg>