<?xml version="1.0" encoding="utf-8"?>
<svg version="1.1" xmlns:xlink="http://www.w3.org/1999/xlink" width="33px" height="37px" xmlns="http://www.w3.org/2000/svg">
  <g transform="matrix(1 0 0 1 -567 -584 )">
    <path d="M 4.14659685863873 4.54918032786886  L 6.04712041884819 4.54918032786886  L 8.12041884816756 6.97540983606558  L 11.2303664921466 4.54918032786886  L 10.3664921465969 2.88114754098361  L 6.04712041884819 0.909836065573765  L 9.50261780104713 0  L 11.2303664921466 1.66803278688525  L 12.7853403141361 1.66803278688525  L 14.1675392670157 3.94262295081967  L 18.1413612565445 4.54918032786886  L 18.1413612565445 5.76229508196722  L 21.4240837696335 5.76229508196722  L 21.4240837696335 6.97540983606558  L 20.2146596858639 8.18852459016394  L 20.2146596858639 9.55327868852459  L 22.8062827225131 10.4631147540984  L 22.8062827225131 12.4344262295082  L 25.7434554973822 12.4344262295082  L 26.7801047120419 10.4631147540984  L 28.6806282722513 12.4344262295082  L 28.6806282722513 14.405737704918  L 25.7434554973822 14.405737704918  L 24.8795811518324 14.405737704918  L 25.7434554973822 15.922131147541  L 24.8795811518324 17.1352459016393  L 24.0157068062827 18.8032786885246  L 25.7434554973822 20.0163934426229  L 27.6439790575916 20.0163934426229  L 27.6439790575916 21.6844262295082  L 27.6439790575916 23.0491803278688  L 28.6806282722513 23.0491803278688  L 31.2722513089006 23.0491803278688  L 33 23.9590163934426  L 33 26.9918032786885  L 31.2722513089006 28.0532786885246  L 31.2722513089006 28.9631147540984  L 31.2722513089006 30.0245901639344  L 28.6806282722513 30.0245901639344  L 28.6806282722513 34.2704918032787  L 24.8795811518324 37  L 22.8062827225131 35.6352459016393  L 20.2146596858639 35.6352459016393  L 18.1413612565445 34.2704918032787  L 17.1047120418848 33.5122950819672  L 15.3769633507853 37  L 14.1675392670157 35.6352459016393  L 15.3769633507853 34.2704918032787  L 14.1675392670157 32.4508196721312  L 11.2303664921466 33.5122950819672  L 10.3664921465969 34.2704918032787  L 8.12041884816756 30.9344262295082  L 8.12041884816756 30.0245901639344  L 7.08376963350786 28.9631147540984  L 8.12041884816756 26.9918032786885  L 8.12041884816756 25.6270491803279  L 6.04712041884819 25.6270491803279  L 4.14659685863873 23.0491803278688  L 6.04712041884819 20.7745901639344  L 7.08376963350786 20.7745901639344  L 7.08376963350786 17.1352459016393  L 7.08376963350786 15.922131147541  L 5.01047120418849 15.922131147541  L 1.72774869109949 15.3155737704918  L 1.72774869109949 12.4344262295082  L 0 12.4344262295082  L 0 11.5245901639344  L 1.72774869109949 11.5245901639344  L 2.93717277486913 10.4631147540984  L 2.93717277486913 8.18852459016394  L 4.14659685863873 8.18852459016394  L 4.14659685863873 5.76229508196722  L 4.14659685863873 4.54918032786886  Z " fill-rule="nonzero" fill="#ffcc99" stroke="none" fill-opacity="0.498039215686275" transform="matrix(1 0 0 1 567 584 )" />
  </g>
</svg>