<?xml version="1.0" encoding="utf-8"?>
<svg version="1.1" xmlns:xlink="http://www.w3.org/1999/xlink" width="49px" height="27px" xmlns="http://www.w3.org/2000/svg">
  <g transform="matrix(1 0 0 1 -565 -557 )">
    <path d="M 15.4551971326165 1.21348314606742  L 17.3870967741936 0  L 19.1433691756273 1.21348314606742  L 19.1433691756273 2.42696629213484  L 20.5483870967742 0  L 22.3046594982079 1.21348314606742  L 23.8853046594982 0  L 26.3440860215054 2.42696629213484  L 25.4659498207885 3.3370786516854  L 25.4659498207885 5.15730337078653  L 27.2222222222222 7.28089887640449  L 30.3835125448029 6.52247191011236  L 31.6129032258065 5.15730337078653  L 31.6129032258065 4.39887640449438  L 33.8960573476703 3.3370786516854  L 33.8960573476703 2.42696629213484  L 36.3548387096775 1.21348314606742  L 39.516129032258 2.42696629213484  L 41.0967741935484 2.42696629213484  L 42.5017921146953 3.3370786516854  L 44.7849462365592 3.3370786516854  L 44.7849462365592 2.42696629213484  L 47.068100358423 3.3370786516854  L 49 3.3370786516854  L 49 4.39887640449438  L 47.9462365591398 5.15730337078653  L 49 6.52247191011236  L 47.9462365591398 7.28089887640449  L 46.0143369175627 6.52247191011236  L 44.7849462365592 6.52247191011236  L 42.5017921146953 7.28089887640449  L 39.516129032258 9.55617977528091  L 38.6379928315412 11.5280898876405  L 37.4086021505377 13.0449438202247  L 36.3548387096775 14.4101123595506  L 35.4767025089606 13.0449438202247  L 33.8960573476703 13.0449438202247  L 34.7741935483871 14.4101123595506  L 33.8960573476703 16.2303370786517  L 32.4910394265233 17.5955056179775  L 31.6129032258065 18.6573033707865  L 30.3835125448029 20.4775280898876  L 29.505376344086 22.4494382022472  L 27.2222222222222 23.2078651685393  L 26.3440860215054 24.1179775280899  L 26.3440860215054 25.3314606741573  L 25.4659498207885 25.3314606741573  L 23.8853046594982 27  L 21.426523297491 25.3314606741573  L 20.5483870967742 25.3314606741573  L 19.1433691756273 27  L 17.3870967741936 27  L 15.4551971326165 27  L 13.5232974910394 24.1179775280899  L 11.5913978494624 24.1179775280899  L 10.5376344086022 25.3314606741573  L 10.5376344086022 26.0898876404494  L 8.95698924731183 27  L 4.91756272401436 27  L 3.86379928315412 26.0898876404494  L 1.75627240143368 24.1179775280899  L 0 25.3314606741573  L 0 22.4494382022472  L 2.98566308243728 20.4775280898876  L 2.98566308243728 18.6573033707865  L 3.86379928315412 16.2303370786517  L 2.98566308243728 14.4101123595506  L 2.98566308243728 13.0449438202247  L 2.98566308243728 11.5280898876405  L 4.91756272401436 9.55617977528091  L 5.97132616487456 8.19101123595506  L 5.97132616487456 6.52247191011236  L 7.55197132616491 6.52247191011236  L 8.95698924731183 5.15730337078653  L 11.5913978494624 3.3370786516854  L 15.4551971326165 2.42696629213484  L 15.4551971326165 1.21348314606742  Z " fill-rule="nonzero" fill="#00cc99" stroke="none" fill-opacity="0.498039215686275" transform="matrix(1 0 0 1 565 557 )" />
  </g>
</svg>