<?xml version="1.0" encoding="utf-8"?>
<svg version="1.1" xmlns:xlink="http://www.w3.org/1999/xlink" width="25px" height="46px" xmlns="http://www.w3.org/2000/svg">
  <g transform="matrix(1 0 0 1 -537 -539 )">
    <path d="M 21.7465753424658 1.8157894736842  L 21.7465753424658 0  L 23.6301369863014 1.8157894736842  L 23.6301369863014 3.02631578947369  L 25 4.08552631578948  L 21.7465753424658 5.29605263157895  L 21.7465753424658 6.50657894736843  L 23.6301369863014 7.26315789473683  L 25 8.47368421052632  L 25 10.1381578947369  L 23.6301369863014 11.5  L 23.6301369863014 12.7105263157895  L 21.7465753424658 12.7105263157895  L 21.7465753424658 13.6184210526316  L 21.7465753424658 15.1315789473684  L 19.6917808219178 17.5526315789474  L 19.6917808219178 19.3684210526316  L 21.7465753424658 19.3684210526316  L 21.7465753424658 21.4868421052631  L 23.6301369863014 23.3026315789474  L 21.7465753424658 25.2697368421053  L 21.7465753424658 27.0855263157895  L 21.7465753424658 29.2039473684211  L 19.6917808219178 30.2631578947369  L 21.0616438356164 32.2302631578947  L 21.7465753424658 35.5592105263158  L 21.7465753424658 37.6776315789474  L 18.4931506849315 39.4934210526316  L 15.9246575342466 41.1578947368421  L 11.986301369863 41.1578947368421  L 10.9589041095891 41.9144736842105  L 9.07534246575344 41.9144736842105  L 7.53424657534245 43.8815789473684  L 5.47945205479453 43.8815789473684  L 2.56849315068491 46  L 0 45.3947368421053  L 0 41.9144736842105  L 1.02739726027396 39.4934210526316  L 2.56849315068491 39.4934210526316  L 1.02739726027396 35.5592105263158  L 1.02739726027396 31.1710526315789  L 1.02739726027396 28.4473684210526  L 2.56849315068491 26.4802631578947  L 2.56849315068491 25.2697368421053  L 2.56849315068491 23.3026315789474  L 1.02739726027396 21.4868421052631  L 1.02739726027396 19.3684210526316  L 3.4246575342466 17.5526315789474  L 5.47945205479453 11.5  L 4.28082191780825 11.5  L 5.47945205479453 10.1381578947369  L 7.53424657534245 10.1381578947369  L 10.1027397260274 10.1381578947369  L 10.1027397260274 7.26315789473683  L 10.1027397260274 5.29605263157895  L 11.986301369863 4.08552631578948  L 16.9520547945206 4.08552631578948  L 19.6917808219178 4.08552631578948  L 21.0616438356164 3.02631578947369  L 21.7465753424658 1.8157894736842  Z " fill-rule="nonzero" fill="#cc9966" stroke="none" fill-opacity="0.498039215686275" transform="matrix(1 0 0 1 537 539 )" />
  </g>
</svg>