<?xml version="1.0" encoding="utf-8"?>
<svg version="1.1" xmlns:xlink="http://www.w3.org/1999/xlink" width="55px" height="38px" xmlns="http://www.w3.org/2000/svg">
  <g transform="matrix(1 0 0 1 -532 -650 )">
    <path d="M 17.9906542056075 9.61632653061223  L 17.9906542056075 6.82448979591837  L 19.190031152648 5.27346938775509  L 19.190031152648 3.25714285714283  L 21.2461059190031 3.25714285714283  L 23.1308411214953 4.6530612244898  L 23.98753894081 5.27346938775509  L 25.1869158878504 4.6530612244898  L 23.98753894081 1.55102040816328  L 26.5576323987539 0  L 28.4423676012461 1.55102040816328  L 31.01246105919 1.55102040816328  L 32.3831775700935 1.55102040816328  L 33.411214953271 1.55102040816328  L 35.9813084112149 1.55102040816328  L 37.3520249221184 2.48163265306119  L 35.9813084112149 4.03265306122451  L 34.9532710280374 6.04897959183673  L 34.9532710280374 6.82448979591837  L 35.9813084112149 7.75510204081636  L 40.0934579439252 6.82448979591837  L 42.6635514018692 5.27346938775509  L 44.8909657320872 6.04897959183673  L 44.8909657320872 5.27346938775509  L 46.2616822429907 4.6530612244898  L 49.0031152647975 4.6530612244898  L 50.5451713395639 5.27346938775509  L 52.7725856697819 5.27346938775509  L 53.8006230529595 7.75510204081636  L 53.8006230529595 9.61632653061223  L 55 11.7877551020408  L 55 13.6489795918367  L 52.7725856697819 14.734693877551  L 52.7725856697819 16.130612244898  L 50.5451713395639 17.0612244897959  L 49.0031152647975 18.6122448979592  L 46.2616822429907 18.6122448979592  L 44.8909657320872 18.6122448979592  L 44.8909657320872 19.6979591836735  L 42.6635514018692 18.6122448979592  L 41.1214953271028 19.6979591836735  L 40.0934579439252 20.7836734693877  L 37.3520249221184 20.7836734693877  L 37.3520249221184 21.7142857142857  L 35.9813084112149 23.5755102040816  L 33.411214953271 23.5755102040816  L 32.3831775700935 21.7142857142857  L 31.01246105919 19.6979591836735  L 29.9844236760124 19.6979591836735  L 29.9844236760124 20.7836734693877  L 29.9844236760124 21.7142857142857  L 31.01246105919 23.5755102040816  L 30.6012461059126 23.6995918367366  L 28.4423676012461 24.3510204081633  L 28.4423676012461 25.5918367346939  L 26.5576323987539 24.3510204081633  L 26.5576323987539 25.5918367346939  L 26.5576323987539 27.1428571428571  L 25.1869158878504 26.3673469387755  L 23.98753894081 27.1428571428571  L 23.1308411214953 28.8489795918368  L 21.2461059190031 27.1428571428571  L 20.0467289719626 28.0734693877551  L 19.190031152648 27.1428571428571  L 16.9626168224299 28.0734693877551  L 15.9345794392523 29.6244897959184  L 14.2211838006231 29.6244897959184  L 11.993769470405 29.6244897959184  L 9.7663551401869 30.4  L 8.56697819314645 31.795918367347  L 8.56697819314645 34.4326530612245  L 7.19626168224299 34.4326530612245  L 5.82554517133957 34.4326530612245  L 7.19626168224299 34.4326530612245  L 7.19626168224299 35.8285714285714  L 7.19626168224299 36.9784946236559  L 4.62616822429904 38  L 2.74143302180688 38  L 2.74143302180688 35.8285714285714  L 1.71339563862927 34.4326530612245  L 0 33.0367346938775  L 1.71339563862927 30.4  L 1.71339563862927 29.6244897959184  L 4.62616822429904 27.1428571428571  L 5.82554517133957 27.1428571428571  L 7.19626168224299 26.3673469387755  L 7.19626168224299 24.3510204081633  L 8.56697819314645 24.3510204081633  L 8.56697819314645 23.5755102040816  L 11.1370716510904 20.7836734693877  L 12.8504672897196 20.7836734693877  L 14.2211838006231 18.6122448979592  L 12.8504672897196 16.130612244898  L 14.2211838006231 14.734693877551  L 15.9345794392523 13.6489795918367  L 16.9626168224299 11.7877551020408  L 16.9626168224299 10.5469387755102  L 17.9906542056075 9.61632653061223  Z " fill-rule="nonzero" fill="#ff9999" stroke="none" transform="matrix(1 0 0 1 532 650 )" />
  </g>
</svg>