<?xml version="1.0" encoding="utf-8"?>
<svg version="1.1" xmlns:xlink="http://www.w3.org/1999/xlink" width="55px" height="35px" xmlns="http://www.w3.org/2000/svg">
  <g transform="matrix(1 0 0 1 -495 -645 )">
    <path d="M 1.15546218487396 13.3040935672515  L 0 11.8713450292398  L 3.23529411764707 8.8011695906433  L 8.31932773109245 10.233918128655  L 10.8613445378151 11.0526315789474  L 13.172268907563 8.8011695906433  L 18.0252100840336 7.3684210526316  L 18.0252100840336 6.14035087719298  L 19.4117647058824 5.11695906432752  L 20.5672268907563 7.3684210526316  L 22.4159663865546 7.3684210526316  L 24.0336134453782 8.8011695906433  L 26.1134453781513 7.3684210526316  L 27.2689075630252 6.14035087719298  L 29.1176470588236 7.3684210526316  L 29.1176470588236 5.11695906432752  L 32.1218487394958 6.14035087719298  L 32.1218487394958 4.29824561403511  L 34.4327731092437 4.29824561403511  L 36.5126050420168 2.4561403508772  L 38.3613445378151 3.4795321637427  L 39.2857142857143 1.43274853801174  L 40.9033613445379 1.43274853801174  L 40.9033613445379 3.4795321637427  L 44.3697478991597 0  L 47.1428571428572 0  L 48.9915966386555 1.43274853801174  L 48.9915966386555 3.4795321637427  L 50.3781512605042 3.4795321637427  L 48.9915966386555 5.11695906432752  L 48.9915966386555 7.3684210526316  L 46.218487394958 8.8011695906433  L 46.218487394958 10.233918128655  L 48.9915966386555 8.8011695906433  L 50.3781512605042 10.233918128655  L 50.3781512605042 11.8713450292398  L 53.8445378151261 11.0526315789474  L 53.8445378151261 11.8713450292398  L 55 14.9415204678363  L 53.8445378151261 14.9415204678363  L 53.8445378151261 16.9883040935673  L 51.764705882353 19.0350877192983  L 50.3781512605042 21.2865497076023  L 50.3781512605042 23.7426900584795  L 48.9915966386555 25.9941520467837  L 47.1428571428572 25.9941520467837  L 45.2941176470588 28.2456140350877  L 45.2941176470588 29.4736842105263  L 42.983193277311 30.0877192982456  L 42.983193277311 31.1111111111111  L 40.9033613445379 32.1345029239766  L 39.2857142857143 33.5672514619883  L 38.3613445378151 33.5672514619883  L 34.4327731092437 35  L 33.046218487395 33.5672514619883  L 30.735294117647 33.5672514619883  L 29.1176470588236 32.1345029239766  L 27.2689075630252 33.5672514619883  L 24.0336134453782 33.5672514619883  L 20.5672268907563 33.5672514619883  L 18.0252100840336 32.1345029239766  L 16.8697478991596 31.1111111111111  L 14.327731092437 29.4736842105263  L 14.327731092437 27.4269005847953  L 15.2521008403362 25.9941520467837  L 15.2521008403362 24.5614035087719  L 14.327731092437 23.7426900584795  L 10.8613445378151 24.5614035087719  L 9.70588235294116 23.7426900584795  L 6.23949579831931 22.1052631578948  L 8.31932773109245 19.0350877192983  L 10.8613445378151 19.8538011695907  L 11.7857142857143 18.0116959064328  L 10.8613445378151 15.9649122807018  L 8.31932773109245 15.9649122807018  L 6.23949579831931 15.9649122807018  L 4.62184873949581 14.9415204678363  L 4.62184873949581 14.1228070175439  L 1.15546218487396 13.3040935672515  Z " fill-rule="nonzero" fill="#6699ff" stroke="none" fill-opacity="0.498039215686275" transform="matrix(1 0 0 1 495 645 )" />
  </g>
</svg>