<?xml version="1.0" encoding="utf-8"?>
<svg version="1.1" xmlns:xlink="http://www.w3.org/1999/xlink" width="141px" height="96px" xmlns="http://www.w3.org/2000/svg">
  <g transform="matrix(1 0 0 1 -313 -467 )">
    <path d="M 26.2647058823529 91.1392405063291  L 20.3897058823529 91.1392405063291  L 16.5882352941176 87.7974683544304  L 16.5882352941176 81.7215189873418  L 13.1323529411765 79.5949367088608  L 10.0220588235294 77.7721518987342  L 8.98529411764706 76.253164556962  L 6.91176470588235 76.253164556962  L 6.91176470588235 72.9113924050633  L 7.94852941176471 71.3924050632911  L 7.94852941176471 68.9620253164557  L 5.52941176470588 68.0506329113924  L 5.52941176470588 67.4430379746835  L 3.80147058823529 65.620253164557  L 1.03676470588235 64.7088607594937  L 1.03676470588235 63.1898734177215  L 3.80147058823529 64.1012658227848  L 4.83823529411765 63.1898734177215  L 4.83823529411765 61.6708860759494  L 5.52941176470588 57.4177215189874  L 6.91176470588235 54.9873417721519  L 4.83823529411765 52.8607594936709  L 1.03676470588235 52.8607594936709  L 0 51.3417721518988  L 1.03676470588235 49.8227848101266  L 1.03676470588235 47.3924050632912  L 1.03676470588235 46.1772151898734  L 3.80147058823529 46.1772151898734  L 5.52941176470588 43.746835443038  L 10.0220588235294 43.746835443038  L 12.0955882352941 41.9240506329114  L 15.2058823529412 41.9240506329114  L 17.625 43.746835443038  L 20.3897058823529 43.746835443038  L 23.5 43.746835443038  L 23.5 41.9240506329114  L 28.3382352941176 41.9240506329114  L 33.5220588235294 41.9240506329114  L 42.1617647058824 40.4050632911393  L 47 38.5822784810127  L 48.7279411764706 35.2405063291139  L 50.8014705882353 33.4177215189873  L 52.5294117647059 33.4177215189873  L 52.5294117647059 25.5189873417722  L 52.5294117647059 22.7848101265823  L 52.5294117647059 20.9620253164557  L 52.5294117647059 19.4430379746836  L 57.3676470588235 19.4430379746836  L 62.2058823529412 19.4430379746836  L 65.3161764705882 20.9620253164557  L 66.6985294117647 18.5316455696203  L 70.8455882352941 12.4556962025316  L 74.9926470588235 8.20253164556962  L 79.4852941176471 11.2405063291139  L 85.0147058823529 12.4556962025316  L 86.7426470588235 11.2405063291139  L 88.4705882352941 6.68354430379748  L 90.8897058823529 3.0379746835443  L 93.3088235294118 3.0379746835443  L 96.0735294117647 3.0379746835443  L 97.1102941176471 0  L 99.875 0  L 101.948529411765 0  L 101.948529411765 3.0379746835443  L 104.713235294118 6.68354430379748  L 106.786764705882 9.41772151898734  L 110.242647058824 9.41772151898734  L 111.970588235294 12.4556962025316  L 113.698529411765 13.6708860759494  L 113.698529411765 16.7088607594937  L 116.117647058824 20.3544303797468  L 116.117647058824 22.7848101265823  L 114.735294117647 24.9113924050633  L 111.970588235294 28.253164556962  L 113.698529411765 31.2911392405063  L 117.5 33.4177215189873  L 121.992647058824 34.6329113924051  L 127.522058823529 35.2405063291139  L 132.014705882353 39.493670886076  L 136.507352941176 41.9240506329114  L 137.544117647059 45.5696202531646  L 137.544117647059 48.9113924050633  L 141 52.253164556962  L 137.544117647059 54.9873417721519  L 138.580882352941 57.4177215189874  L 136.507352941176 59.5443037974684  L 132.014705882353 59.5443037974684  L 127.522058823529 61.6708860759494  L 123.375 65.620253164557  L 118.882352941176 65.620253164557  L 116.117647058824 68.0506329113924  L 114.735294117647 72.9113924050633  L 111.970588235294 76.253164556962  L 106.786764705882 77.7721518987342  L 100.911764705882 77.7721518987342  L 97.1102941176471 78.9873417721519  L 97.1102941176471 79.5949367088608  L 99.875 80.5063291139241  L 98.8382352941176 82.6329113924051  L 100.911764705882 85.6708860759494  L 101.948529411765 89.3164556962026  L 99.875 92.3544303797469  L 99.875 96  L 95.3823529411765 94.4810126582279  L 90.8897058823529 95.3924050632912  L 86.7426470588235 92.3544303797469  L 82.5955882352941 91.1392405063291  L 77.7573529411765 90.2278481012658  L 72.5735294117647 90.2278481012658  L 68.7720588235294 91.1392405063291  L 64.2794117647059 92.3544303797469  L 59.7867647058824 91.1392405063291  L 53.9117647058823 92.3544303797469  L 50.8014705882353 91.1392405063291  L 47 88.7088607594937  L 42.1617647058824 89.3164556962026  L 38.0147058823529 88.7088607594937  L 33.5220588235294 87.7974683544304  L 30.0661764705882 87.7974683544304  L 26.2647058823529 91.1392405063291  Z " fill-rule="nonzero" fill="#cccccc" stroke="none" fill-opacity="0.498039215686275" transform="matrix(1 0 0 1 313 467 )" />
  </g>
</svg>