<?xml version="1.0" encoding="utf-8"?>
<svg version="1.1" xmlns:xlink="http://www.w3.org/1999/xlink" width="40px" height="31px" xmlns="http://www.w3.org/2000/svg">
  <g transform="matrix(1 0 0 1 -577 -579 )">
    <path d="M 17.1929824561404 0  L 18.5964912280701 0  L 19.6491228070175 2.34848484848485  L 20.8771929824561 2.34848484848485  L 22.280701754386 3.28787878787878  L 27.0175438596491 4.69696969696971  L 28.2456140350877 7.51515151515151  L 30 11.5858585858586  L 32.1052631578947 14.2474747474747  L 32.1052631578947 16.2828282828283  L 32.1052631578947 17.2222222222222  L 35.4385964912281 18.1616161616162  L 35.4385964912281 19.8838383838384  L 38.9473684210526 20.8232323232323  L 40 22.2323232323232  L 40 24.4242424242424  L 35.4385964912281 22.2323232323232  L 33.859649122807 22.2323232323232  L 35.4385964912281 24.4242424242424  L 35.4385964912281 25.520202020202  L 33.859649122807 28.1818181818182  L 33.859649122807 29.2777777777778  L 31.2280701754386 31  L 29.1228070175438 29.2777777777778  L 27.0175438596491 29.2777777777778  L 24.2105263157895 29.2777777777778  L 22.280701754386 28.1818181818182  L 20.8771929824561 28.1818181818182  L 18.5964912280701 28.1818181818182  L 19.6491228070175 25.520202020202  L 17.1929824561404 24.4242424242424  L 15.7894736842105 22.2323232323232  L 17.1929824561404 20.8232323232323  L 17.1929824561404 18.1616161616162  L 18.5964912280701 18.1616161616162  L 19.6491228070175 19.2575757575758  L 20.8771929824561 18.1616161616162  L 20.8771929824561 16.2828282828283  L 18.5964912280701 16.2828282828283  L 17.1929824561404 16.2828282828283  L 15.7894736842105 17.2222222222222  L 13.859649122807 17.2222222222222  L 13.859649122807 14.2474747474747  L 12.1052631578947 14.2474747474747  L 12.1052631578947 11.5858585858586  L 12.9824561403508 11.5858585858586  L 12.9824561403508 10.489898989899  L 10.7017543859649 10.489898989899  L 9.64912280701752 8.92424242424243  L 5.78947368421053 8.92424242424243  L 4.5614035087719 6.41919191919191  L 2.10526315789469 4.69696969696971  L 0 4.69696969696971  L 0 3.28787878787878  L 3.33333333333332 2.34848484848485  L 5.78947368421053 4.69696969696971  L 7.19298245614031 4.69696969696971  L 8.42105263157894 5.47979797979798  L 9.64912280701752 4.69696969696971  L 9.64912280701752 3.28787878787878  L 12.1052631578947 3.28787878787878  L 12.1052631578947 4.69696969696971  L 13.859649122807 4.69696969696971  L 13.859649122807 3.28787878787878  L 15.7894736842105 3.28787878787878  L 17.1929824561404 1.56565656565657  L 17.1929824561404 0  Z " fill-rule="nonzero" fill="#cccc66" stroke="none" fill-opacity="0.498039215686275" transform="matrix(1 0 0 1 577 579 )" />
  </g>
</svg>