<?xml version="1.0" encoding="utf-8"?>
<svg version="1.1" xmlns:xlink="http://www.w3.org/1999/xlink" width="35px" height="42px" xmlns="http://www.w3.org/2000/svg">
  <g transform="matrix(1 0 0 1 -560 -617 )">
    <path d="M 3.24742268041238 9.75280898876404  L 2.34536082474226 8.65168539325841  L 4.51030927835053 6.13483146067414  L 6.67525773195875 6.13483146067414  L 9.3814432989691 4.71910112359549  L 10.8247422680412 4.71910112359549  L 10.8247422680412 2.9887640449438  L 13.3505154639175 1.7303370786517  L 16.5979381443299 2.9887640449438  L 18.9432989690722 1.7303370786517  L 21.4690721649485 0  L 22.7319587628866 0  L 21.4690721649485 2.9887640449438  L 22.7319587628866 3.77528089887637  L 24.8969072164948 1.7303370786517  L 24.8969072164948 0  L 28.6855670103093 2.9887640449438  L 31.5721649484536 2.9887640449438  L 32.6546391752577 3.77528089887637  L 32.6546391752577 6.13483146067414  L 33.7371134020619 7.07865168539326  L 35 8.65168539325841  L 35 11.9550561797753  L 35 14  L 30.4896907216495 15.8876404494382  L 28.6855670103093 14.7865168539326  L 25.979381443299 17.6179775280899  L 25.979381443299 20.6067415730337  L 24.8969072164948 22.8089887640449  L 22.7319587628866 24.3820224719101  L 22.7319587628866 27.0561797752809  L 21.4690721649485 28.4719101123595  L 22.7319587628866 29.4157303370786  L 20.2061855670103 31.3033707865169  L 20.2061855670103 33.6629213483146  L 18.9432989690722 36.1797752808989  L 18.9432989690722 38.5393258426966  L 17.5 38.5393258426966  L 17.5 41.0561797752809  L 15.1546391752577 39.6404494382022  L 13.3505154639175 39.6404494382022  L 8.47938144329898 42  L 6.67525773195875 42  L 6.67525773195875 41.0561797752809  L 7.75773195876287 39.6404494382022  L 8.47938144329898 38.5393258426966  L 9.3814432989691 37.123595505618  L 8.47938144329898 35.0786516853932  L 5.95360824742268 36.1797752808989  L 4.51030927835053 36.1797752808989  L 3.24742268041238 35.0786516853932  L 3.24742268041238 32.561797752809  L 4.51030927835053 31.3033707865169  L 5.95360824742268 29.4157303370786  L 3.24742268041238 29.4157303370786  L 4.51030927835053 27.0561797752809  L 2.34536082474226 25.6404494382022  L 2.34536082474226 22.8089887640449  L 1.26288659793815 22.8089887640449  L 2.34536082474226 21.3932584269663  L 1.26288659793815 20.6067415730337  L 0 19.0337078651685  L 1.26288659793815 16.8314606741573  L 2.34536082474226 15.8876404494382  L 3.24742268041238 14.7865168539326  L 4.51030927835053 14  L 4.51030927835053 11.9550561797753  L 3.24742268041238 11.9550561797753  L 3.24742268041238 9.75280898876404  Z " fill-rule="nonzero" fill="#ff9933" stroke="none" fill-opacity="0.498039215686275" transform="matrix(1 0 0 1 560 617 )" />
  </g>
</svg>