<?xml version="1.0" encoding="utf-8"?>
<svg version="1.1" xmlns:xlink="http://www.w3.org/1999/xlink" width="42px" height="35px" xmlns="http://www.w3.org/2000/svg">
  <g transform="matrix(1 0 0 1 -537 -573 )">
    <path d="M 21.6942148760331 3.51528384279476  L 21.6942148760331 0  L 25.3388429752066 0  L 30.3719008264463 1.83406113537118  L 32.2809917355372 0.917030567685598  L 32.2809917355372 4.27947598253275  L 32.2809917355372 5.65502183406114  L 30.3719008264463 7.18340611353712  L 29.3305785123967 9.93449781659389  L 31.4132231404959 9.93449781659389  L 34.1900826446281 12.0742358078603  L 36.7933884297521 12.0742358078603  L 38.7024793388429 13.1441048034934  L 41.1322314049587 14.9781659388646  L 42 17.117903930131  L 38.7024793388429 18.1877729257642  L 36.7933884297521 16.2008733624454  L 34.1900826446281 17.117903930131  L 35.0578512396694 19.1048034934498  L 33.1487603305785 20.0218340611354  L 33.1487603305785 22.6200873362446  L 32.2809917355372 23.8427947598253  L 31.4132231404959 22.6200873362446  L 30.3719008264463 23.8427947598253  L 31.4132231404959 25.3711790393013  L 32.2809917355372 27.2052401746725  L 36.099173553719 27.2052401746725  L 36.7933884297521 27.2052401746725  L 37.6611570247934 30.2620087336244  L 37.6611570247934 32.5545851528385  L 36.7933884297521 33.3187772925764  L 34.1900826446281 35  L 33.1487603305785 33.3187772925764  L 31.4132231404959 35  L 28.2892561983471 34.0829694323144  L 26.2066115702479 33.3187772925764  L 25.3388429752066 33.3187772925764  L 23.4297520661157 31.3318777292576  L 23.4297520661157 28.5807860262009  L 21.6942148760331 30.2620087336244  L 19.6115702479339 29.3449781659389  L 17.5289256198347 29.3449781659389  L 13.1900826446281 29.3449781659389  L 7.80991735537189 27.2052401746725  L 6.24793388429752 26.2882096069869  L 4.68595041322315 23.8427947598253  L 4.68595041322315 21.5502183406114  L 2.60330578512396 19.1048034934498  L 1.73553719008262 18.1877729257642  L 1.73553719008262 17.117903930131  L 0 14.9781659388646  L 0 13.1441048034934  L 3.99173553719009 13.1441048034934  L 7.80991735537189 11.1572052401747  L 9.89256198347108 9.17030567685589  L 11.801652892562 9.17030567685589  L 11.801652892562 7.9475982532751  L 16.3140495867768 7.9475982532751  L 18.7438016528926 6.57205240174672  L 20.4793388429752 5.65502183406114  L 21.6942148760331 3.51528384279476  Z " fill-rule="nonzero" fill="#33ccff" stroke="none" fill-opacity="0.498039215686275" transform="matrix(1 0 0 1 537 573 )" />
  </g>
</svg>