<?xml version="1.0" encoding="utf-8"?>
<svg version="1.1" xmlns:xlink="http://www.w3.org/1999/xlink" width="38px" height="49px" xmlns="http://www.w3.org/2000/svg">
  <g transform="matrix(1 0 0 1 -558 -526 )">
    <path d="M 1.23720930232558 47.2888888888889  L 0 45.1111111111111  L 1.23720930232558 44.0222222222222  L 2.12093023255811 41.8444444444445  L 3.71162790697675 38.2666666666667  L 2.12093023255811 35.9333333333334  L 2.12093023255811 33.9111111111111  L 0 33.9111111111111  L 0 31.5777777777778  L 1.23720930232558 29.7111111111111  L 1.23720930232558 28  L 2.12093023255811 26.9111111111111  L 3.71162790697675 26.9111111111111  L 4.7720930232558 26.1333333333333  L 5.65581395348837 23.0222222222222  L 4.7720930232558 22.2444444444445  L 3.71162790697675 20.8444444444444  L 2.12093023255811 20.8444444444444  L 2.12093023255811 19.2888888888889  L 4.7720930232558 17.5777777777778  L 3.71162790697675 15.5555555555556  L 2.12093023255811 13.0666666666667  L 0 11.9777777777778  L 1.23720930232558 10.7333333333333  L 1.23720930232558 8.71111111111114  L 2.12093023255811 8.71111111111114  L 3.71162790697675 5.91111111111111  L 4.7720930232558 4.35555555555557  L 5.65581395348837 3.57777777777779  L 6.71627906976746 5.91111111111111  L 6.71627906976746 7.46666666666668  L 7.953488372093 7.46666666666668  L 9.89767441860466 7.46666666666668  L 12.9023255813954 4.35555555555557  L 13.7860465116279 5.91111111111111  L 15.553488372093 4.35555555555557  L 16.9674418604651 4.35555555555557  L 17.8511627906977 5.13333333333335  L 18.7348837209302 4.35555555555557  L 17.8511627906977 2.8  L 18.7348837209302 1.86666666666667  L 19.6186046511627 0.777777777777782  L 21.5627906976744 0.777777777777782  L 21.5627906976744 0  L 23.506976744186 0  L 25.4511627906976 0.777777777777782  L 25.4511627906976 1.86666666666667  L 25.4511627906976 2.8  L 26.6883720930233 3.57777777777779  L 26.6883720930233 4.35555555555557  L 26.6883720930233 5.91111111111111  L 27.5720930232558 7.46666666666668  L 27.5720930232558 8.71111111111114  L 31.106976744186 8.71111111111114  L 33.5813953488372 8.71111111111114  L 31.9906976744186 10.7333333333333  L 31.9906976744186 11.9777777777778  L 31.9906976744186 13.0666666666667  L 34.8186046511628 14.1555555555556  L 36.2325581395349 14.1555555555556  L 38 17.5777777777778  L 36.2325581395349 19.2888888888889  L 34.8186046511628 20.8444444444444  L 34.8186046511628 22.2444444444445  L 33.5813953488372 23.9555555555556  L 31.9906976744186 23.9555555555556  L 29.693023255814 26.1333333333333  L 27.5720930232558 23.9555555555556  L 26.6883720930233 22.2444444444445  L 25.4511627906976 22.2444444444445  L 24.3906976744186 20.8444444444444  L 24.3906976744186 19.2888888888889  L 25.4511627906976 19.2888888888889  L 24.3906976744186 16.8  L 23.506976744186 16.8  L 21.5627906976744 15.5555555555556  L 23.506976744186 14.1555555555556  L 19.6186046511627 13.0666666666667  L 17.8511627906977 11.9777777777778  L 15.553488372093 13.0666666666667  L 13.7860465116279 16.8  L 13.7860465116279 17.5777777777778  L 11.6651162790697 19.2888888888889  L 10.7813953488372 20.2222222222222  L 11.6651162790697 20.8444444444444  L 11.6651162790697 22.2444444444445  L 12.9023255813954 23.0222222222222  L 15.553488372093 22.2444444444445  L 16.9674418604651 23.9555555555556  L 17.8511627906977 22.2444444444445  L 19.6186046511627 22.2444444444445  L 19.6186046511627 23.9555555555556  L 20.5023255813954 26.1333333333333  L 19.6186046511627 28  L 21.5627906976744 28.9333333333334  L 21.5627906976744 29.7111111111111  L 23.506976744186 29.7111111111111  L 24.3906976744186 29.7111111111111  L 25.4511627906976 29.7111111111111  L 26.6883720930233 31.5777777777778  L 26.6883720930233 32.9777777777778  L 24.3906976744186 35.1555555555556  L 21.5627906976744 35.1555555555556  L 18.7348837209302 38.2666666666667  L 17.8511627906977 38.2666666666667  L 15.553488372093 39.2  L 14.6697674418605 42.7777777777778  L 11.6651162790697 45.1111111111111  L 11.6651162790697 47.2888888888889  L 12.9023255813954 48.2222222222222  L 9.89767441860466 49  L 5.65581395348837 48.2222222222222  L 1.23720930232558 47.2888888888889  Z " fill-rule="nonzero" fill="#ffccff" stroke="none" fill-opacity="0.498039215686275" transform="matrix(1 0 0 1 558 526 )" />
  </g>
</svg>