<?xml version="1.0" encoding="utf-8"?>
<svg version="1.1" xmlns:xlink="http://www.w3.org/1999/xlink" width="29px" height="29px" xmlns="http://www.w3.org/2000/svg">
  <g transform="matrix(1 0 0 1 -592 -606 )">
    <path d="M 14.6746987951807 2.6363636363636  L 17.644578313253 0.775401069518692  L 18.8674698795181 2.6363636363636  L 20.2650602409638 2.6363636363636  L 18.8674698795181 3.72192513368982  L 17.644578313253 5.73796791443848  L 15.7228915662651 5.73796791443848  L 16.5963855421686 6.51336898395721  L 18.8674698795181 6.51336898395721  L 20.2650602409638 5.73796791443848  L 21.8373493975904 5.73796791443848  L 23.7590361445783 7.2887700534759  L 25.855421686747 6.51336898395721  L 26.7289156626506 5.73796791443848  L 26.7289156626506 3.72192513368982  L 29 3.72192513368982  L 29 5.73796791443848  L 29 7.2887700534759  L 29 8.68449197860961  L 26.7289156626506 9.61497326203205  L 26.7289156626506 8.68449197860961  L 24.9819277108434 11.3208556149733  L 25.855421686747 11.3208556149733  L 25.855421686747 12.5614973262032  L 26.7289156626506 13.8021390374331  L 26.7289156626506 14.7843137254902  L 24.9819277108434 15.5080213903743  L 25.855421686747 16.5935828877005  L 24.9819277108434 17.524064171123  L 25.855421686747 20.4705882352941  L 23.7590361445783 21.711229946524  L 21.8373493975904 22.7967914438503  L 20.2650602409638 23.572192513369  L 18.8674698795181 25.4331550802139  L 18.8674698795181 26.9839572192513  L 18.8674698795181 29  L 17.644578313253 29  L 16.5963855421686 28.0695187165775  L 13.8012048192771 29  L 11.0060240963856 25.4331550802139  L 8.90963855421684 28.0695187165775  L 7.16265060240964 28.0695187165775  L 5.24096385542168 25.4331550802139  L 5.24096385542168 22.7967914438503  L 2.62048192771084 21.711229946524  L 2.62048192771084 19.5401069518717  L 1.22289156626508 17.524064171123  L 0 16.5935828877005  L 0 15.5080213903743  L 4.36746987951808 11.3208556149733  L 4.36746987951808 7.2887700534759  L 7.16265060240964 7.2887700534759  L 8.210843373494 5.73796791443848  L 7.16265060240964 5.73796791443848  L 8.210843373494 3.72192513368982  L 8.210843373494 2.6363636363636  L 8.210843373494 0.775401069518692  L 11.0060240963856 0  L 12.4036144578314 1.70588235294117  L 14.6746987951807 2.6363636363636  Z " fill-rule="nonzero" fill="#009933" stroke="none" fill-opacity="0.498039215686275" transform="matrix(1 0 0 1 592 606 )" />
  </g>
</svg>