<?xml version="1.0" encoding="utf-8"?>
<svg version="1.1" xmlns:xlink="http://www.w3.org/1999/xlink" width="54px" height="30px" xmlns="http://www.w3.org/2000/svg">
  <g transform="matrix(1 0 0 1 -524 -595 )">
    <path d="M 15.6038961038961 0.773195876288669  L 17.7077922077922 0  L 19.4610389610389 2.01030927835051  L 21.038961038961 3.71134020618556  L 25.2467532467533 6.49484536082474  L 30.3311688311688 6.49484536082474  L 32.961038961039 5.72164948453607  L 34.3636363636364 6.49484536082474  L 36.1168831168831 5.72164948453607  L 36.1168831168831 8.96907216494846  L 38.3961038961039 10.360824742268  L 39.6233766233766 8.96907216494846  L 40.5 10.360824742268  L 42.6038961038961 11.5979381443299  L 44.5324675324675 12.3711340206186  L 46.461038961039 11.5979381443299  L 48.0389610389611 12.3711340206186  L 49.2662337662338 14.0721649484536  L 51.3701298701299 14.0721649484536  L 52.2467532467533 15.3092783505155  L 51.3701298701299 16.8556701030928  L 51.3701298701299 18.7113402061856  L 52.2467532467533 20.8762886597938  L 54 23.041237113402  L 52.2467532467533 24.2783505154639  L 50.1428571428572 24.2783505154639  L 46.461038961039 25.8247422680412  L 42.6038961038961 28.6082474226804  L 40.5 28.6082474226804  L 38.3961038961039 30  L 36.9935064935065 28.6082474226804  L 36.9935064935065 27.2164948453608  L 36.9935064935065 25.8247422680412  L 36.1168831168831 24.2783505154639  L 32.961038961039 27.2164948453608  L 31.7337662337663 25.8247422680412  L 28.4025974025974 25.8247422680412  L 26.8246753246753 27.2164948453608  L 24.3701298701298 24.2783505154639  L 21.9155844155844 24.2783505154639  L 17.7077922077922 23.041237113402  L 14.2012987012987 24.2783505154639  L 14.2012987012987 25.8247422680412  L 12.9740259740259 25.8247422680412  L 11.2207792207792 25.8247422680412  L 7.71428571428568 27.2164948453608  L 5.61038961038959 30  L 3.68181818181819 28.6082474226804  L 2.62987012987012 27.2164948453608  L 0 24.2783505154639  L 0 21.8041237113402  L 0 19.9484536082474  L 2.62987012987012 19.9484536082474  L 4.73376623376621 19.9484536082474  L 6.487012987013 19.9484536082474  L 9.99350649350646 16.8556701030928  L 11.2207792207792 17.6288659793814  L 12.2727272727272 14.0721649484536  L 9.99350649350646 13.1443298969072  L 7.71428571428568 11.5979381443299  L 7.71428571428568 8.96907216494846  L 7.71428571428568 6.49484536082474  L 6.487012987013 6.49484536082474  L 8.5909090909091 4.63917525773198  L 11.2207792207792 4.63917525773198  L 11.2207792207792 2.01030927835051  L 9.99350649350646 2.78350515463918  L 7.71428571428568 0.773195876288669  L 8.5909090909091 0  L 12.2727272727272 0  L 14.2012987012987 0  L 15.6038961038961 0.773195876288669  Z " fill-rule="nonzero" fill="#0099cc" stroke="none" fill-opacity="0.498039215686275" transform="matrix(1 0 0 1 524 595 )" />
  </g>
</svg>