<?xml version="1.0" encoding="utf-8"?>
<svg version="1.1" xmlns:xlink="http://www.w3.org/1999/xlink" width="40px" height="38px" xmlns="http://www.w3.org/2000/svg">
  <g transform="matrix(1 0 0 1 -526 -619 )">
    <path d="M 3.55555555555553 8.08835341365459  L 2.66666666666668 6.714859437751  L 4.44444444444447 4.73092369477911  L 4.44444444444447 3.05220883534135  L 8.88888888888889 1.52610441767066  L 10.6666666666667 3.05220883534135  L 12.0888888888889 1.52610441767066  L 12.0888888888889 0  L 14.9333333333334 0  L 19.5555555555555 0.763052208835364  L 21.1555555555556 0.763052208835364  L 24.3555555555556 3.05220883534135  L 27.2 1.52610441767066  L 29.5111111111111 2.44176706827309  L 29.5111111111111 3.05220883534135  L 33.4222222222222 1.52610441767066  L 35.0222222222222 2.44176706827309  L 35.0222222222222 4.73092369477911  L 36.0888888888889 5.7991967871486  L 38.5777777777778 9.61445783132532  L 38.5777777777778 11.293172690763  L 36.0888888888889 14.1927710843374  L 35.0222222222222 17.7028112449799  L 36.0888888888889 17.7028112449799  L 37.1555555555556 19.3815261044177  L 36.0888888888889 21.6706827309237  L 37.1555555555556 23.6546184738956  L 38.5777777777778 24.570281124498  L 38.5777777777778 26.859437751004  L 40 27.6224899598394  L 37.1555555555556 30.3694779116466  L 38.5777777777778 32.6586345381526  L 35.0222222222222 33.574297188755  L 33.4222222222222 31.5903614457831  L 30.7555555555556 33.574297188755  L 30.7555555555556 36.1686746987952  L 29.5111111111111 36.9317269076305  L 28.2666666666667 34.9477911646586  L 24.3555555555556 34.9477911646586  L 24.3555555555556 36.1686746987952  L 23.2888888888889 38  L 21.1555555555556 38  L 19.5555555555555 38  L 19.5555555555555 36.9317269076305  L 18.6666666666666 34.9477911646586  L 17.4222222222222 34.9477911646586  L 17.4222222222222 36.1686746987952  L 15.8222222222222 36.1686746987952  L 15.8222222222222 34.9477911646586  L 17.4222222222222 33.574297188755  L 17.4222222222222 32.6586345381526  L 19.5555555555555 30.3694779116466  L 17.4222222222222 29.6064257028112  L 18.6666666666666 26.859437751004  L 15.8222222222222 25.7911646586345  L 14.9333333333334 27.6224899598394  L 12.0888888888889 26.859437751004  L 10.6666666666667 28.6907630522089  L 8.88888888888889 28.6907630522089  L 8.88888888888889 27.6224899598394  L 7.11111111111111 28.6907630522089  L 7.11111111111111 30.3694779116466  L 5.68888888888887 29.6064257028112  L 4.44444444444447 28.6907630522089  L 3.55555555555553 27.6224899598394  L 3.55555555555553 25.7911646586345  L 3.55555555555553 24.570281124498  L 5.68888888888887 22.7389558232932  L 4.44444444444447 20.9076305220884  L 1.42222222222224 21.6706827309237  L 0 21.6706827309237  L 1.42222222222224 19.3815261044177  L 4.44444444444447 17.7028112449799  L 2.66666666666668 15.718875502008  L 3.55555555555553 14.1927710843374  L 3.55555555555553 13.1244979919679  L 2.66666666666668 11.293172690763  L 2.66666666666668 10.3775100401606  L 2.66666666666668 9.61445783132532  L 3.55555555555553 8.08835341365459  Z " fill-rule="nonzero" fill="#cc9999" stroke="none" fill-opacity="0.498039215686275" transform="matrix(1 0 0 1 526 619 )" />
  </g>
</svg>