<?xml version="1.0" encoding="utf-8"?>
<svg version="1.1" xmlns:xlink="http://www.w3.org/1999/xlink" width="100px" height="77px" xmlns="http://www.w3.org/2000/svg">
  <g transform="matrix(1 0 0 1 -425 -520 )">
    <path d="M 4.84988452655888 23.7853403141361  L 0 23.7853403141361  L 0 21.7696335078534  L 2.07852193995382 19.955497382199  L 3.92609699769053 15.9240837696335  L 6.46651270207852 13.303664921466  L 11.3163972286374 12.2958115183246  L 15.2424942263279 9.27225130890053  L 19.3995381062356 6.65183246073298  L 23.3256351039261 6.65183246073298  L 26.5588914549653 3.82984293193717  L 25.635103926097 2.60677083333332  L 29.3302540415704 0  L 33.7182448036952 1.00785340314137  L 34.8729792147806 4.63612565445027  L 36.4896073903002 9.27225130890053  L 34.8729792147806 12.2958115183246  L 38.568129330254 15.1178010471204  L 38.568129330254 17.3350785340314  L 40.4157043879907 15.9240837696335  L 43.8799076212471 15.9240837696335  L 48.0369515011547 15.1178010471204  L 50.1154734411085 17.3350785340314  L 49.1916859122402 19.3507853403141  L 45.9770114942529 22.4583333333333  L 48.0369515011547 24.5916230366492  L 50.1154734411085 27.0104712041885  L 52.4249422632794 27.0104712041885  L 52.4249422632794 30.2356020942408  L 53.5796766743649 31.2434554973822  L 56.35103926097 33.0575916230367  L 59.3533487297921 31.2434554973822  L 58.4295612009238 30.2356020942408  L 63.0484988452656 29.2277486910995  L 65.5889145496535 30.2356020942408  L 67.6674364896073 29.2277486910995  L 71.5935334872979 28.2198952879581  L 72.7482678983834 31.2434554973822  L 71.5935334872979 33.0575916230367  L 67.6674364896073 35.2916666666667  L 67.6674364896073 36.6858638743456  L 66.743648960739 38.5  L 70.2078521939954 41.3219895287958  L 73.6720554272517 43.1361256544503  L 75.7505773672055 44.7486910994764  L 77.5981524249423 46.3612565445026  L 78.5219399538106 48.9816753926702  L 80.1385681293302 53.0130890052356  L 78.5219399538106 54.4240837696335  L 80.1385681293302 56.4397905759162  L 84.7575057736721 58.8586387434555  L 86.8360277136259 56.4397905759162  L 89.1454965357967 52.2068062827225  L 85.6812933025404 49.7879581151833  L 87.7598152424942 46.3612565445026  L 91.4549653579676 46.3612565445026  L 94.919168591224 48.9816753926702  L 99.0762124711317 50.7958115183246  L 100 54.4240837696335  L 100 58.8586387434555  L 93.9953810623556 58.8586387434555  L 94.919168591224 61.479057591623  L 91.4549653579676 61.479057591623  L 89.1454965357967 60.2696335078534  L 85.6812933025404 60.2696335078534  L 86.8360277136259 62.4869109947644  L 85.6812933025404 63.8979057591623  L 87.7598152424942 65.7120418848168  L 85.6812933025404 68.7356020942409  L 86.8360277136259 71.3560209424084  L 84.7575057736721 71.3560209424084  L 81.986143187067 71.3560209424084  L 80.1385681293302 72.7670157068063  L 81.986143187067 73.5732984293194  L 80.1385681293302 75.7905759162303  L 77.5981524249423 77  L 72.7482678983834 75.7905759162303  L 70.2078521939954 75.7905759162303  L 71.5935334872979 73.5732984293194  L 70.2078521939954 70.1465968586388  L 65.5889145496535 68.7356020942409  L 63.0484988452656 64.9057591623037  L 59.3533487297921 66.5183246073298  L 58.4295612009238 66.5183246073298  L 59.3533487297921 70.1465968586388  L 57.2748267898383 71.3560209424084  L 53.5796766743649 71.3560209424084  L 54.5034642032332 68.7356020942409  L 51.0392609699769 68.7356020942409  L 48.0369515011547 64.9057591623037  L 49.1916859122402 62.4869109947644  L 53.5796766743649 64.9057591623037  L 54.5034642032332 65.7120418848168  L 58.4295612009238 63.8979057591623  L 57.2748267898383 61.479057591623  L 58.4295612009238 58.8586387434555  L 59.3533487297921 57.8507853403141  L 59.3533487297921 56.4397905759162  L 62.1247113163972 55.8350785340314  L 63.0484988452656 53.8193717277487  L 63.0484988452656 50.7958115183246  L 62.1247113163972 49.7879581151833  L 62.1247113163972 47.7722513089005  L 61.2009237875289 45.5549738219895  L 59.3533487297921 41.3219895287958  L 56.35103926097 39.5078534031414  L 52.4249422632794 37.6937172774869  L 49.1916859122402 34.6701570680628  L 45.2873563218391 33.6875  L 42.7251732101617 31.2434554973822  L 40.4157043879907 28.2198952879581  L 36.4896073903002 29.2277486910995  L 34.8729792147806 30.2356020942408  L 32.1016166281755 27.0104712041885  L 29.3302540415704 27.0104712041885  L 27.9445727482679 28.2198952879581  L 27.9445727482679 30.2356020942408  L 26.5588914549653 31.2434554973822  L 25.635103926097 33.0575916230367  L 22.0689655172414 33.0575916230367  L 18.3908045977011 31.2434554973822  L 13.8568129330254 31.2434554973822  L 12.2401847575058 28.2198952879581  L 8.08314087759814 27.0104712041885  L 4.84988452655888 25.8010471204189  L 4.84988452655888 23.7853403141361  Z " fill-rule="nonzero" fill="#00cccc" stroke="none" fill-opacity="0.498039215686275" transform="matrix(1 0 0 1 425 520 )" />
  </g>
</svg>