<?xml version="1.0" encoding="utf-8"?>
<svg version="1.1" xmlns:xlink="http://www.w3.org/1999/xlink" width="29px" height="35px" xmlns="http://www.w3.org/2000/svg">
  <g transform="matrix(1 0 0 1 -579 -629 )">
    <path d="M 0.847953216374273 26.9594594594595  L 0 25.6981981981982  L 0 24.2792792792793  L 0.847953216374273 22.3873873873874  L 0.847953216374273 20.9684684684685  L 0.847953216374273 19.5495495495496  L 3.39181286549709 17.8153153153153  L 3.39181286549709 16.3963963963964  L 4.57894736842108 14.6621621621621  L 3.39181286549709 11.036036036036  L 6.10526315789471 10.2477477477477  L 6.84015594541908 9.61711711711714  L 6.84015594541908 7.09459459459459  L 6.10526315789471 5.518018018018  L 8.98830409356729 3.62612612612612  L 11.3625730994152 3.62612612612612  L 13.2280701754386 2.20720720720722  L 15.093567251462 2.20720720720722  L 15.093567251462 0  L 18.3157894736842 0  L 18.3157894736842 2.20720720720722  L 19.5029239766082 5.518018018018  L 22.046783625731 6.30630630630631  L 23.5730994152047 5.518018018018  L 23.5730994152047 3.62612612612612  L 25.9473684210526 5.518018018018  L 29 5.518018018018  L 29 7.09459459459459  L 29 9.61711711711714  L 27.6432748538011 11.8243243243244  L 25.9473684210526 14.6621621621621  L 25.9473684210526 17.8153153153153  L 27.6432748538011 19.5495495495496  L 25.9473684210526 20.9684684684685  L 24.5906432748538 22.3873873873874  L 22.046783625731 24.2792792792793  L 20.4074074074074 27.9054054054054  L 16.7894736842105 26.9594594594595  L 16.7894736842105 29.009009009009  L 15.093567251462 30.4279279279279  L 13.2280701754386 32.3198198198198  L 11.3625730994152 34.054054054054  L 8.98830409356729 35  L 7.63157894736842 32.3198198198198  L 7.63157894736842 30.4279279279279  L 6.10526315789471 27.9054054054054  L 4.57894736842108 27.9054054054054  L 3.39181286549709 26.9594594594595  L 0.847953216374273 26.9594594594595  Z " fill-rule="nonzero" fill="#cc66cc" stroke="none" fill-opacity="0.498039215686275" transform="matrix(1 0 0 1 579 629 )" />
  </g>
</svg>