<?xml version="1.0" encoding="utf-8"?>
<svg version="1.1" xmlns:xlink="http://www.w3.org/1999/xlink" width="134px" height="77px" xmlns="http://www.w3.org/2000/svg">
  <g transform="matrix(1 0 0 1 -324 -555 )">
    <path d="M 3.48051948051948 7.94444444444445  L 8.0051948051948 3.97222222222222  L 14.2701298701299 3.97222222222222  L 17.0545454545455 1.22222222222222  L 20.8831168831169 0  L 24.7116883116883 1.22222222222222  L 28.8883116883117 2.13888888888889  L 34.1090909090909 1.22222222222222  L 37.5896103896104 3.36111111111111  L 41.4181818181818 4.88888888888888  L 46.987012987013 3.97222222222222  L 51.8597402597403 4.88888888888888  L 56.0363636363636 3.97222222222222  L 59.8649350649351 2.13888888888889  L 65.0857142857143 2.13888888888889  L 69.9584415584416 3.97222222222222  L 74.4831168831169 4.88888888888888  L 77.9636363636364 7.94444444444445  L 77.9636363636364 9.77777777777778  L 77.9636363636364 12.8333333333333  L 75.8753246753247 16.5  L 76.9194805194805 19.8611111111111  L 75.8753246753247 22.9166666666667  L 77.9636363636364 26.8888888888889  L 82.4883116883117 29.3333333333333  L 86.3168831168831 32.0833333333333  L 90.4935064935065 34.2222222222222  L 95.3662337662338 35.75  L 99.5428571428572 37.5833333333333  L 104.415584415584 37.5833333333333  L 108.592207792208 39.7222222222222  L 111.028571428571 42.1666666666667  L 112.072727272727 44.6111111111111  L 115.553246753247 45.8333333333333  L 118.685714285714 45.8333333333333  L 120.425974025974 44.6111111111111  L 124.254545454545 42.1666666666667  L 126.690909090909 40.9444444444444  L 130.171428571429 44.6111111111111  L 131.911688311688 46.75  L 134 49.8055555555556  L 131.911688311688 50.7222222222222  L 132.955844155844 54.3888888888889  L 131.911688311688 57.75  L 132.955844155844 61.1111111111111  L 132.955844155844 65.0833333333333  L 131.911688311688 67.8333333333333  L 130.171428571429 69.6666666666667  L 128.083116883117 73.6388888888889  L 126.690909090909 71.1944444444444  L 125.646753246753 72.4166666666667  L 121.818181818182 69.6666666666667  L 117.641558441558 74.5555555555556  L 112.072727272727 71.1944444444444  L 105.45974025974 71.1944444444444  L 100.587012987013 72.4166666666667  L 93.974025974026 76.0833333333333  L 87.361038961039 77  L 81.4441558441559 76.0833333333333  L 80.051948051948 71.1944444444444  L 77.9636363636364 66.9166666666667  L 74.4831168831169 67.8333333333333  L 67.8701298701299 63.5555555555556  L 62.3012987012987 65.0833333333333  L 59.8649350649351 69.6666666666667  L 58.1246753246753 67.8333333333333  L 59.8649350649351 63.5555555555556  L 56.0363636363636 63.5555555555556  L 48.7272727272727 63.5555555555556  L 43.8545454545455 60.5  L 40.025974025974 61.1111111111111  L 36.5454545454545 56.5277777777778  L 34.1090909090909 54.3888888888889  L 29.9324675324675 49.8055555555556  L 25.7558441558442 46.75  L 21.9272727272727 43.0833333333333  L 19.1428571428571 38.8055555555556  L 14.9662337662338 35.75  L 11.4857142857143 37.5833333333333  L 8.0051948051948 33.3055555555556  L 5.22077922077922 29.3333333333333  L 0 26.8888888888889  L 0 22  L 0 16.5  L 3.48051948051948 18.3333333333333  L 6.61298701298701 12.8333333333333  L 3.48051948051948 7.94444444444445  Z " fill-rule="nonzero" fill="#9999cc" stroke="none" fill-opacity="0.498039215686275" transform="matrix(1 0 0 1 324 555 )" />
  </g>
</svg>