<?xml version="1.0" encoding="utf-8"?>
<svg version="1.1" xmlns:xlink="http://www.w3.org/1999/xlink" width="42px" height="33px" xmlns="http://www.w3.org/2000/svg">
  <g transform="matrix(1 0 0 1 -489 -624 )">
    <path d="M 0.918032786885217 16.5  L 0 14.4629629629629  L 2.2950819672131 12.0185185185185  L 3.21311475409832 13.2407407407407  L 5.04918032786884 12.0185185185185  L 6.655737704918 13.2407407407407  L 9.18032786885246 13.2407407407407  L 11.0163934426229 12.0185185185185  L 11.0163934426229 9.98148148148145  L 13.5409836065574 9.98148148148145  L 18.8196721311475 9.98148148148145  L 18.8196721311475 9.16666666666668  L 17.9016393442623 7.33333333333333  L 16.5245901639344 7.33333333333333  L 14.4590163934426 5.90740740740738  L 14.4590163934426 5.09259259259257  L 16.5245901639344 3.87037037037035  L 19.7377049180328 5.09259259259257  L 20.8852459016393 3.87037037037035  L 22.2622950819672 5.90740740740738  L 23.4098360655738 3.87037037037035  L 24.7868852459016 2.03703703703704  L 26.1639344262295 3.25925925925926  L 26.1639344262295 2.03703703703704  L 27.5409836065574 0  L 29.8360655737705 1.0185185185185  L 29.8360655737705 2.03703703703704  L 33.0491803278689 1.0185185185185  L 33.9672131147541 3.25925925925926  L 33.0491803278689 3.87037037037035  L 34.8852459016393 5.09259259259257  L 36.0327868852459 7.33333333333333  L 37.8688524590164 7.33333333333333  L 39.4754098360655 5.90740740740738  L 40.3934426229508 8.14814814814814  L 40.3934426229508 9.98148148148145  L 40.3934426229508 12.0185185185185  L 39.4754098360655 13.2407407407407  L 36.9508196721311 16.5  L 37.8688524590164 16.5  L 40.3934426229508 15.6851851851851  L 42 16.5  L 42 18.1296296296296  L 40.3934426229508 18.1296296296296  L 40.3934426229508 20.1666666666667  L 40.3934426229508 21.3888888888889  L 42 23.6296296296296  L 40.3934426229508 25.462962962963  L 37.8688524590164 25.462962962963  L 37.8688524590164 27.2962962962963  L 36.0327868852459 25.462962962963  L 34.8852459016393 28.1111111111111  L 33.9672131147541 27.2962962962963  L 31.4426229508197 29.1296296296296  L 29.8360655737705 29.9444444444445  L 28.4590163934426 29.1296296296296  L 27.5409836065574 29.1296296296296  L 26.1639344262295 28.1111111111111  L 26.1639344262295 26.2777777777778  L 23.4098360655738 27.2962962962963  L 23.4098360655738 28.1111111111111  L 19.7377049180328 29.9444444444445  L 16.5245901639344 32.1851851851851  L 14.4590163934426 31.3703703703704  L 9.18032786885246 29.9444444444445  L 6.655737704918 33  L 5.04918032786884 32.1851851851851  L 6.655737704918 29.1296296296296  L 6.655737704918 28.1111111111111  L 5.04918032786884 26.2777777777778  L 5.04918032786884 24.6481481481481  L 5.04918032786884 22.4074074074074  L 6.655737704918 20.1666666666667  L 5.04918032786884 18.1296296296296  L 4.13114754098362 18.1296296296296  L 2.2950819672131 18.1296296296296  L 0 18.1296296296296  L 0.918032786885217 16.5  Z " fill-rule="nonzero" fill="#00cc66" stroke="none" fill-opacity="0.498039215686275" transform="matrix(1 0 0 1 489 624 )" />
  </g>
</svg>