<?xml version="1.0" encoding="utf-8"?>
<svg version="1.1" xmlns:xlink="http://www.w3.org/1999/xlink" width="41px" height="36px" xmlns="http://www.w3.org/2000/svg">
  <g transform="matrix(1 0 0 1 -588 -515 )">
    <path d="M 25.683908045977 3.45762711864406  L 25.683908045977 0.610169491525417  L 27.5689655172414 0  L 30.3965517241379 1.62711864406779  L 31.3390804597702 4.27118644067796  L 33.6954022988506 1.62711864406779  L 33.6954022988506 4.27118644067796  L 36.9942528735633 7.9322033898305  L 38.6436781609196 7.9322033898305  L 36.9942528735633 10.3728813559322  L 38.6436781609196 12  L 41 14.6440677966102  L 41 17.0847457627119  L 38.6436781609196 19.728813559322  L 34.6379310344827 23.5932203389831  L 34.6379310344827 24.8135593220339  L 31.3390804597702 25.6271186440678  L 25.683908045977 28.2711864406779  L 21.2068965517241 31.3220338983051  L 20.264367816092 33.3559322033898  L 18.1436781609196 33.3559322033898  L 18.1436781609196 34.5762711864407  L 15.316091954023 36  L 15.316091954023 34.5762711864407  L 16.4942528735633 33.3559322033898  L 18.1436781609196 32.3389830508475  L 19.5574712643678 30.5084745762712  L 16.4942528735633 31.3220338983051  L 15.316091954023 29.4915254237288  L 16.4942528735633 29.4915254237288  L 16.4942528735633 27.4576271186441  L 19.5574712643678 25.6271186440678  L 20.264367816092 23.5932203389831  L 21.2068965517241 21.7627118644068  L 18.1436781609196 19.728813559322  L 18.1436781609196 18.9152542372881  L 15.316091954023 19.728813559322  L 13.4310344827586 19.728813559322  L 12.0172413793103 21.7627118644068  L 10.6034482758621 24.8135593220339  L 5.6551724137931 28.2711864406779  L 3.77011494252875 23.5932203389831  L 0 21.7627118644068  L 1.17816091954026 18.9152542372881  L 2.35632183908048 17.0847457627119  L 1.17816091954026 15.6610169491525  L 2.35632183908048 13.2203389830508  L 1.17816091954026 11.1864406779661  L 2.35632183908048 10.3728813559322  L 4.71264367816092 12  L 5.6551724137931 14.6440677966102  L 8.24712643678158 12  L 12.0172413793103 10.3728813559322  L 13.4310344827586 8.94915254237287  L 15.316091954023 8.94915254237287  L 16.4942528735633 6.91525423728811  L 19.5574712643678 6.91525423728811  L 19.5574712643678 5.28813559322033  L 21.2068965517241 5.28813559322033  L 24.2701149425287 5.28813559322033  L 24.2701149425287 3.45762711864406  L 25.683908045977 3.45762711864406  Z " fill-rule="nonzero" fill="#ff66cc" stroke="none" fill-opacity="0.498039215686275" transform="matrix(1 0 0 1 588 515 )" />
  </g>
</svg>