<?xml version="1.0" encoding="utf-8"?>
<svg version="1.1" xmlns:xlink="http://www.w3.org/1999/xlink" width="33px" height="30px" xmlns="http://www.w3.org/2000/svg">
  <g transform="matrix(1 0 0 1 -502 -602 )">
    <path d="M 0 19.1666666666667  L 2.74999999999999 16.4583333333334  L 1.37500000000001 14.7916666666667  L 3.89583333333332 13.3333333333333  L 6.41666666666664 14.7916666666667  L 8.02083333333332 14.7916666666667  L 8.93749999999999 15.625  L 11.9166666666666 16.4583333333334  L 13.75 13.3333333333333  L 15.3541666666667 11.4583333333334  L 17.4166666666667 10.4166666666667  L 19.4791666666667 6.24999999999999  L 20.625 5.20833333333337  L 20.625 2.70833333333335  L 20.625 1.45833333333337  L 22 0  L 24.75 2.70833333333335  L 26.125 3.95833333333336  L 28.6458333333333 3.95833333333336  L 29.5625 5.20833333333337  L 32.0833333333333 6.24999999999999  L 33 10.4166666666667  L 32.0833333333333 10.4166666666667  L 29.5625 11.4583333333334  L 27.2708333333333 13.3333333333333  L 26.125 13.3333333333333  L 23.8333333333333 13.3333333333333  L 22 13.3333333333333  L 20.625 13.3333333333333  L 22 14.7916666666667  L 20.625 16.4583333333334  L 23.8333333333333 20.4166666666667  L 26.125 23.3333333333334  L 27.2708333333333 26.875  L 27.2708333333333 28.5416666666667  L 24.75 30  L 23.1458333333333 30  L 22 28.5416666666667  L 20.625 26.875  L 20.625 24.375  L 17.4166666666667 24.375  L 13.75 22.5  L 13.75 24.375  L 13.75 25.625  L 11.9166666666666 24.375  L 10.5416666666666 25.625  L 8.93749999999999 28.5416666666667  L 6.41666666666664 26.875  L 5.50000000000001 25.625  L 3.89583333333332 24.375  L 1.37500000000001 21.875  L 0 19.1666666666667  Z " fill-rule="nonzero" fill="#ff0000" stroke="none" fill-opacity="0.498039215686275" transform="matrix(1 0 0 1 502 602 )" />
  </g>
</svg>