<?xml version="1.0" encoding="utf-8"?>
<svg version="1.1" xmlns:xlink="http://www.w3.org/1999/xlink" width="39px" height="58px" xmlns="http://www.w3.org/2000/svg">
  <g transform="matrix(1 0 0 1 -504 -550 )">
    <path d="M 37.0230414746544 0  L 38.1013824884793 0  L 39 1.38829787234043  L 38.1013824884793 1.38829787234043  L 39 2.46808510638298  L 37.0230414746544 6.32446808510639  L 37.0230414746544 8.32978723404255  L 34.6866359447005 9.4095744680851  L 34.6866359447005 11.7234042553191  L 37.0230414746544 14.8085106382979  L 34.6866359447005 16.1968085106383  L 34.6866359447005 17.2765957446808  L 33.2488479262673 19.281914893617  L 34.6866359447005 22.8297872340426  L 34.6866359447005 25.7606382978724  L 35.7649769585254 29.7712765957447  L 33.2488479262673 32.8563829787234  L 33.2488479262673 36.5585106382979  L 34.6866359447005 39.1808510638298  L 35.7649769585254 41.4946808510638  L 37.0230414746544 43.8085106382979  L 38.1013824884793 45.1968085106383  L 38.1013824884793 46.7393617021276  L 35.7649769585254 47.9734042553191  L 34.6866359447005 46.7393617021276  L 33.2488479262673 46.7393617021276  L 28.7557603686636 46.7393617021276  L 27.3179723502304 46.7393617021276  L 28.7557603686636 47.9734042553191  L 30.0138248847927 49.3617021276596  L 31.2718894009217 49.3617021276596  L 32.1705069124424 51.2127659574468  L 30.0138248847927 51.2127659574468  L 28.7557603686636 51.2127659574468  L 27.3179723502304 53.6808510638298  L 28.7557603686636 55.3776595744681  L 28.7557603686636 58  L 25.8801843317972 58  L 24.6221198156682 56.4574468085106  L 19.9493087557604 53.6808510638298  L 15.9953917050691 54.4521276595745  L 14.3778801843318 52.7553191489362  L 12.0414746543779 51.2127659574468  L 11.3225806451613 52.7553191489362  L 9.34562211981565 50.2872340425532  L 8.26728110599077 50.2872340425532  L 6.47004608294932 51.2127659574468  L 3.59447004608295 49.3617021276596  L 1.61751152073734 50.2872340425532  L 0 47.9734042553191  L 1.61751152073734 47.9734042553191  L 2.69585253456222 46.7393617021276  L 1.61751152073734 45.1968085106383  L 2.69585253456222 43.8085106382979  L 4.49308755760367 43.8085106382979  L 6.47004608294932 43.8085106382979  L 8.26728110599077 43.8085106382979  L 7.36866359447005 41.4946808510638  L 7.36866359447005 40.1063829787234  L 8.26728110599077 39.1808510638298  L 8.26728110599077 36.5585106382979  L 6.47004608294932 36.5585106382979  L 8.26728110599077 33.936170212766  L 7.36866359447005 32.8563829787234  L 10.4239631336406 32.8563829787234  L 11.3225806451613 33.936170212766  L 15.9953917050691 33.936170212766  L 14.3778801843318 31.6223404255319  L 19.9493087557604 31.6223404255319  L 21.3870967741936 31.6223404255319  L 21.3870967741936 27.9202127659574  L 22.4654377880185 25.7606382978724  L 22.4654377880185 22.8297872340426  L 19.9493087557604 22.8297872340426  L 17.7926267281106 21.9042553191489  L 15.9953917050691 20.3617021276596  L 12.9400921658986 18.5106382978723  L 12.9400921658986 16.1968085106383  L 14.3778801843318 13.2659574468085  L 15.9953917050691 13.2659574468085  L 17.7926267281106 14.8085106382979  L 22.4654377880185 14.0372340425532  L 22.4654377880185 11.7234042553191  L 24.6221198156682 11.7234042553191  L 24.6221198156682 9.4095744680851  L 27.3179723502304 6.32446808510639  L 28.7557603686636 4.93617021276596  L 31.2718894009217 2.46808510638298  L 31.2718894009217 1.38829787234043  L 34.6866359447005 1.38829787234043  L 37.0230414746544 0  Z " fill-rule="nonzero" fill="#66cc99" stroke="none" fill-opacity="0.498039215686275" transform="matrix(1 0 0 1 504 550 )" />
  </g>
</svg>