<?xml version="1.0" encoding="utf-8"?>
<svg version="1.1" xmlns:xlink="http://www.w3.org/1999/xlink" width="89px" height="57px" xmlns="http://www.w3.org/2000/svg">
  <g transform="matrix(1 0 0 1 -401 -544 )">
    <path d="M 29.3560209424084 0  L 24.696335078534 0  L 18.6387434554974 0  L 13.2801047120419 0.82909090909091  L 10.0183246073298 1.65818181818182  L 10.0183246073298 2.90181818181818  L 11.6492146596858 2.90181818181818  L 11.6492146596858 5.80363636363637  L 13.2801047120419 9.7418181818182  L 14.6780104712042 13.2654545454545  L 11.6492146596858 15.5454545454545  L 11.6492146596858 19.6909090909091  L 7.22251308900521 18.0327272727273  L 3.26178010471203 18.0327272727273  L 3.26178010471203 19.6909090909091  L 1.86387434554974 23.4218181818182  L 0.931937172774861 26.9454545454546  L 1.86387434554974 30.2618181818182  L 0 33.5781818181818  L 3.26178010471203 38.6195652173913  L 7.22251308900521 40.2109090909091  L 10.9502617801047 43.1127272727273  L 15.6099476439791 45.6  L 20.0366492146597 46.6363636363636  L 24.696335078534 48.7090909090909  L 29.3560209424084 48.7090909090909  L 33.3167539267016 50.7818181818182  L 35.1806282722513 53.2690909090909  L 37.0445026178011 55.9636363636364  L 40.0732984293194 57  L 42.869109947644 57  L 45.4319371727749 54.9272727272727  L 48.6937172774869 53.2690909090909  L 48.6937172774869 50.7818181818182  L 51.955497382199 51.8181818181818  L 48.6937172774869 48.7090909090909  L 51.955497382199 45.6  L 50.7905759162304 41.4545454545455  L 54.5183246073299 40.2109090909091  L 57.5471204188482 43.1127272727273  L 59.6439790575916 46.6363636363636  L 63.1387434554974 50.7818181818182  L 66.6335078534031 49.7454545454545  L 69.8952879581152 51.8181818181818  L 74.3219895287958 53.2690909090909  L 75.2539267015707 48.7090909090909  L 78.9816753926702 48.7090909090909  L 78.9816753926702 46.6363636363636  L 76.1858638743456 45.6  L 73.1570680628272 42.4909090909091  L 74.3219895287958 40.2109090909091  L 80.1465968586388 42.4909090909091  L 82.9424083769634 41.4545454545455  L 82.9424083769634 36.2727272727273  L 85.0392670157068 32.7490909090909  L 89 30.2618181818182  L 87.6020942408377 25.7018181818182  L 86.4371727748691 22.1781818181818  L 85.0392670157068 18.0327272727273  L 81.544502617801 15.5454545454545  L 76.1858638743456 13.2654545454545  L 73.1570680628272 10.7781818181818  L 67.7984293193717 7.87636363636364  L 64.5366492146597 4.35272727272727  L 59.6439790575916 5.80363636363637  L 57.5471204188482 2.90181818181818  L 52.8874345549738 2.90181818181818  L 51.955497382199 6.84  L 47.9947643979057 9.7418181818182  L 44.2670157068063 7.87636363636364  L 38.6753926701571 6.84  L 36.1125654450262 3.7309090909091  L 32.3848167539267 2.90181818181818  L 29.3560209424084 0  Z " fill-rule="nonzero" fill="#999900" stroke="none" fill-opacity="0.498039215686275" transform="matrix(1 0 0 1 401 544 )" />
  </g>
</svg>