<?xml version="1.0" encoding="utf-8"?>
<svg version="1.1" xmlns:xlink="http://www.w3.org/1999/xlink" width="78px" height="66px" xmlns="http://www.w3.org/2000/svg">
  <g transform="matrix(1 0 0 1 -592 -445 )">
    <path d="M 3.91150442477875 4.29102167182662  L 1.84070796460174 2.65634674922601  L 7.8230088495575 1.43034055727554  L 12.6548672566372 0  L 13.8053097345133 1.43034055727554  L 18.8672566371681 2.65634674922601  L 20.7079646017699 1.43034055727554  L 23.929203539823 2.65634674922601  L 26.4601769911504 6.74303405572755  L 28.7610619469026 9.80804953560372  L 29.6814159292036 12.6687306501548  L 33.1327433628318 17.5727554179567  L 35.2035398230088 20.6377708978328  L 36.1238938053097 23.0897832817337  L 38.4247787610619 24.5201238390093  L 41.8761061946903 23.0897832817337  L 44.6371681415929 24.5201238390093  L 46.4778761061947 24.5201238390093  L 49.6991150442478 26.5634674922601  L 53.6106194690265 26.5634674922601  L 53.6106194690265 28.4024767801858  L 55.4513274336283 30.6501547987616  L 55.4513274336283 33.3065015479876  L 57.5221238938053 34.7368421052632  L 61.8938053097345 33.3065015479876  L 65.5752212389381 33.3065015479876  L 66.7256637168141 30.6501547987616  L 70.4070796460177 28.4024767801858  L 72.9380530973451 26.5634674922601  L 77.0796460176991 25.7461300309598  L 75.929203539823 29.6284829721362  L 78 30.6501547987616  L 75.929203539823 33.3065015479876  L 74.7787610619468 35.5541795665635  L 75.929203539823 38.0061919504644  L 75.929203539823 41.6842105263158  L 74.7787610619468 45.9752321981424  L 72.9380530973451 48.6315789473684  L 72.9380530973451 50.8792569659443  L 67.8761061946902 50.8792569659443  L 63.9646017699115 53.7399380804954  L 61.8938053097345 53.7399380804954  L 62.8141592920354 55.7832817337461  L 65.5752212389381 59.0526315789474  L 66.7256637168141 64.9783281733746  L 62.8141592920354 64.9783281733746  L 60.5132743362831 61.9133126934985  L 58.9026548672566 62.7306501547988  L 57.5221238938053 61.9133126934985  L 55.4513274336283 62.7306501547988  L 54.5309734513274 64.9783281733746  L 52.6902654867257 66  L 49.6991150442478 62.7306501547988  L 48.7787610619469 60.0743034055728  L 47.6283185840708 60.0743034055728  L 46.4778761061947 62.7306501547988  L 44.6371681415929 62.7306501547988  L 43.0265486725663 60.0743034055728  L 41.8761061946903 60.0743034055728  L 40.0353982300885 59.0526315789474  L 40.0353982300885 57.0092879256966  L 36.1238938053097 57.0092879256966  L 33.8230088495575 57.0092879256966  L 31.9823008849558 55.7832817337461  L 29.6814159292036 55.7832817337461  L 27.8407079646018 55.7832817337461  L 26.4601769911504 55.7832817337461  L 25.5398230088496 57.0092879256966  L 22.7787610619469 54.7616099071208  L 21.6283185840708 50.8792569659443  L 17.716814159292 51.6965944272446  L 15.8761061946903 49.6532507739938  L 18.8672566371681 48.6315789473684  L 17.716814159292 45.9752321981424  L 15.8761061946903 48.0185758513932  L 13.8053097345133 45.9752321981424  L 12.6548672566372 43.7275541795666  L 13.8053097345133 41.6842105263158  L 17.716814159292 38.0061919504644  L 20.7079646017699 34.7368421052632  L 21.6283185840708 37.1888544891641  L 22.7787610619469 36.3715170278638  L 21.6283185840708 33.3065015479876  L 22.7787610619469 30.6501547987616  L 23.929203539823 29.6284829721362  L 25.5398230088496 28.4024767801858  L 23.929203539823 26.5634674922601  L 23.929203539823 24.5201238390093  L 25.5398230088496 21.8637770897833  L 25.5398230088496 20.6377708978328  L 26.4601769911504 19.2074303405573  L 26.4601769911504 17.5727554179567  L 26.4601769911504 15.938080495356  L 23.929203539823 14.3034055727554  L 21.6283185840708 12.6687306501548  L 18.8672566371681 14.3034055727554  L 16.7964601769912 15.1207430340557  L 13.8053097345133 15.1207430340557  L 12.6548672566372 15.938080495356  L 9.89380530973451 15.938080495356  L 8.74336283185838 12.6687306501548  L 8.74336283185838 11.4427244582043  L 8.74336283185838 9.80804953560372  L 5.52212389380529 8.58204334365325  L 3.91150442477875 9.80804953560372  L 1.84070796460174 8.58204334365325  L 0 7.76470588235294  L 1.84070796460174 6.74303405572755  L 3.91150442477875 4.29102167182662  Z " fill-rule="nonzero" fill="#6699ff" stroke="none" fill-opacity="0.498039215686275" transform="matrix(1 0 0 1 592 445 )" />
  </g>
</svg>