<?xml version="1.0" encoding="utf-8"?>
<svg version="1.1" xmlns:xlink="http://www.w3.org/1999/xlink" width="100px" height="23px" xmlns="http://www.w3.org/2000/svg">
  <defs>
    <mask fill="white" id="clip13">
      <path d="M 0 18  L 0 5  C 0 2.19999999999999  2.20000000000005 0  5 0  L 64.6666666666679 0  L 95 0  C 97.8 0  100 2.19999999999999  100 5  L 100 18  C 100 20.8  97.8 23  95 23  L 5 23  C 2.20000000000005 23  0 20.8  0 18  Z " fill-rule="evenodd" />
    </mask>
  </defs>
  <g transform="matrix(1 0 0 1 -537 -237 )">
    <path d="M 0 18  L 0 5  C 0 2.19999999999999  2.20000000000005 0  5 0  L 64.6666666666679 0  L 95 0  C 97.8 0  100 2.19999999999999  100 5  L 100 18  C 100 20.8  97.8 23  95 23  L 5 23  C 2.20000000000005 23  0 20.8  0 18  Z " fill-rule="nonzero" fill="#ffffff" stroke="none" transform="matrix(1 0 0 1 537 237 )" />
    <path d="M 0 18  L 0 5  C 0 2.19999999999999  2.20000000000005 0  5 0  L 64.6666666666679 0  L 95 0  C 97.8 0  100 2.19999999999999  100 5  L 100 18  C 100 20.8  97.8 23  95 23  L 5 23  C 2.20000000000005 23  0 20.8  0 18  Z " stroke-width="2" stroke="#797979" fill="none" transform="matrix(1 0 0 1 537 237 )" mask="url(#clip13)" />
  </g>
</svg>