<?xml version="1.0" encoding="utf-8"?>
<svg version="1.1" xmlns:xlink="http://www.w3.org/1999/xlink" width="16px" height="16px" xmlns="http://www.w3.org/2000/svg">
  <g transform="matrix(1 0 0 1 -488 -144 )">
    <path d="M 496 144  C 500.48 144  504 147.52  504 152  C 504 156.48  500.48 160  496 160  C 491.52 160  488 156.48  488 152  C 488 147.52  491.52 144  496 144  Z " fill-rule="nonzero" fill="#ffffff" stroke="none" />
    <path d="M 496 144.5  C 500.2 144.5  503.5 147.8  503.5 152  C 503.5 156.2  500.2 159.5  496 159.5  C 491.8 159.5  488.5 156.2  488.5 152  C 488.5 147.8  491.8 144.5  496 144.5  Z " stroke-width="1" stroke="#d7d7d7" fill="none" />
  </g>
</svg>