<?xml version="1.0" encoding="utf-8"?>
<svg version="1.1" xmlns:xlink="http://www.w3.org/1999/xlink" width="20px" height="22px" xmlns="http://www.w3.org/2000/svg">
  <g transform="matrix(1 0 0 1 -1234 -301 )">
    <path d="M 1.53846153846154 16.8928571428571  L 1.53846153846154 20.4285714285714  L 5 20.4285714285714  L 5 16.8928571428571  L 1.53846153846154 16.8928571428571  Z M 5.76923076923077 16.8928571428571  L 5.76923076923077 20.4285714285714  L 9.61538461538462 20.4285714285714  L 9.61538461538462 16.8928571428571  L 5.76923076923077 16.8928571428571  Z M 1.53846153846154 12.1785714285714  L 1.53846153846154 16.1071428571429  L 5 16.1071428571429  L 5 12.1785714285714  L 1.53846153846154 12.1785714285714  Z M 5.76923076923077 12.1785714285714  L 5.76923076923077 16.1071428571429  L 9.61538461538462 16.1071428571429  L 9.61538461538462 12.1785714285714  L 5.76923076923077 12.1785714285714  Z M 1.53846153846154 7.85714285714286  L 1.53846153846154 11.3928571428571  L 5 11.3928571428571  L 5 7.85714285714286  L 1.53846153846154 7.85714285714286  Z M 10.3846153846154 16.8928571428571  L 10.3846153846154 20.4285714285714  L 14.2307692307692 20.4285714285714  L 14.2307692307692 16.8928571428571  L 10.3846153846154 16.8928571428571  Z M 5.76923076923077 7.85714285714286  L 5.76923076923077 11.3928571428571  L 9.61538461538462 11.3928571428571  L 9.61538461538462 7.85714285714286  L 5.76923076923077 7.85714285714286  Z M 15 16.8928571428571  L 15 20.4285714285714  L 18.4615384615385 20.4285714285714  L 18.4615384615385 16.8928571428571  L 15 16.8928571428571  Z M 10.3846153846154 12.1785714285714  L 10.3846153846154 16.1071428571429  L 14.2307692307692 16.1071428571429  L 14.2307692307692 12.1785714285714  L 10.3846153846154 12.1785714285714  Z M 6.03966346153846 5.77622767857143  C 6.11578525641026 5.69847470238095  6.15384615384615 5.60639880952381  6.15384615384615 5.5  L 6.15384615384615 1.96428571428571  C 6.15384615384615 1.8578869047619  6.11578525641026 1.76581101190476  6.03966346153846 1.68805803571429  C 5.96354166666667 1.61030505952381  5.87339743589744 1.57142857142857  5.76923076923077 1.57142857142857  L 5 1.57142857142857  C 4.89583333333333 1.57142857142857  4.8056891025641 1.61030505952381  4.72956730769231 1.68805803571429  C 4.65344551282051 1.76581101190476  4.61538461538462 1.8578869047619  4.61538461538462 1.96428571428571  L 4.61538461538462 5.5  C 4.61538461538462 5.60639880952381  4.65344551282051 5.69847470238095  4.72956730769231 5.77622767857143  C 4.8056891025641 5.85398065476191  4.89583333333333 5.89285714285714  5 5.89285714285714  L 5.76923076923077 5.89285714285714  C 5.87339743589744 5.89285714285714  5.96354166666667 5.85398065476191  6.03966346153846 5.77622767857143  Z M 15 12.1785714285714  L 15 16.1071428571429  L 18.4615384615385 16.1071428571429  L 18.4615384615385 12.1785714285714  L 15 12.1785714285714  Z M 10.3846153846154 7.85714285714286  L 10.3846153846154 11.3928571428571  L 14.2307692307692 11.3928571428571  L 14.2307692307692 7.85714285714286  L 10.3846153846154 7.85714285714286  Z M 15 7.85714285714286  L 15 11.3928571428571  L 18.4615384615385 11.3928571428571  L 18.4615384615385 7.85714285714286  L 15 7.85714285714286  Z M 15.2704326923077 5.77622767857143  C 15.3465544871795 5.69847470238095  15.3846153846154 5.60639880952381  15.3846153846154 5.5  L 15.3846153846154 1.96428571428571  C 15.3846153846154 1.8578869047619  15.3465544871795 1.76581101190476  15.2704326923077 1.68805803571429  C 15.1943108974359 1.61030505952381  15.1041666666667 1.57142857142857  15 1.57142857142857  L 14.2307692307692 1.57142857142857  C 14.1266025641026 1.57142857142857  14.0364583333333 1.61030505952381  13.9603365384615 1.68805803571429  C 13.8842147435897 1.76581101190476  13.8461538461538 1.8578869047619  13.8461538461538 1.96428571428571  L 13.8461538461538 5.5  C 13.8461538461538 5.60639880952381  13.8842147435897 5.69847470238095  13.9603365384615 5.77622767857143  C 14.0364583333333 5.85398065476191  14.1266025641026 5.89285714285714  14.2307692307692 5.89285714285714  L 15 5.89285714285714  C 15.1041666666667 5.89285714285714  15.1943108974359 5.85398065476191  15.2704326923077 5.77622767857143  Z M 19.5432692307692 3.609375  C 19.8477564102564 3.92038690476191  20 4.28869047619048  20 4.71428571428571  L 20 20.4285714285714  C 20 20.8541666666667  19.8477564102564 21.2224702380952  19.5432692307692 21.5334821428571  C 19.2387820512821 21.844494047619  18.8782051282051 22  18.4615384615385 22  L 1.53846153846154 22  C 1.12179487179487 22  0.761217948717949 21.844494047619  0.456730769230769 21.5334821428571  C 0.15224358974359 21.2224702380952  0 20.8541666666667  0 20.4285714285714  L 0 4.71428571428571  C 0 4.28869047619048  0.15224358974359 3.92038690476191  0.456730769230769 3.609375  C 0.761217948717949 3.29836309523809  1.12179487179487 3.14285714285714  1.53846153846154 3.14285714285714  L 3.07692307692308 3.14285714285714  L 3.07692307692308 1.96428571428571  C 3.07692307692308 1.42410714285714  3.26522435897436 0.961681547619046  3.64182692307692 0.577008928571429  C 4.01842948717949 0.19233630952381  4.47115384615385 0  5 0  L 5.76923076923077 0  C 6.29807692307692 0  6.75080128205128 0.19233630952381  7.12740384615385 0.577008928571429  C 7.50400641025641 0.961681547619046  7.69230769230769 1.42410714285714  7.69230769230769 1.96428571428571  L 7.69230769230769 3.14285714285714  L 12.3076923076923 3.14285714285714  L 12.3076923076923 1.96428571428571  C 12.3076923076923 1.42410714285714  12.4959935897436 0.961681547619046  12.8725961538462 0.577008928571429  C 13.2491987179487 0.19233630952381  13.7019230769231 0  14.2307692307692 0  L 15 0  C 15.5288461538462 0  15.9815705128205 0.19233630952381  16.3581730769231 0.577008928571429  C 16.7347756410256 0.961681547619046  16.9230769230769 1.42410714285714  16.9230769230769 1.96428571428571  L 16.9230769230769 3.14285714285714  L 18.4615384615385 3.14285714285714  C 18.8782051282051 3.14285714285714  19.2387820512821 3.29836309523809  19.5432692307692 3.609375  Z " fill-rule="nonzero" fill="#000000" stroke="none" transform="matrix(1 0 0 1 1234 301 )" />
  </g>
</svg>